<?xml version="1.0" standalone="no"?>
<!DOCTYPE svg PUBLIC "-//W3C//DTD SVG 20010904//EN"
 "http://www.w3.org/TR/2001/REC-SVG-20010904/DTD/svg10.dtd">
<svg version="1.0" xmlns="http://www.w3.org/2000/svg"
 width="32.000000pt" height="32.000000pt" viewBox="0 0 32.000000 32.000000"
 preserveAspectRatio="xMidYMid meet">

<g transform="translate(0.000000,32.000000) scale(0.100000,-0.100000)"
fill="#000000" stroke="none">
<path d="M145 280 c-4 -6 -11 -8 -16 -4 -12 7 -65 -43 -56 -53 4 -3 2 -12 -4
-19 -6 -7 -7 -19 -3 -26 14 -22 12 -52 -3 -70 -17 -19 -10 -38 16 -38 10 0 24
-12 31 -26 l14 -25 18 23 18 23 18 -21 18 -21 17 24 c10 12 24 23 32 23 22 0
27 17 13 42 -15 26 -17 47 -4 66 4 7 3 19 -3 26 -6 7 -8 16 -4 19 9 10 -44 60
-56 53 -5 -4 -12 -2 -16 4 -3 5 -10 10 -15 10 -5 0 -12 -5 -15 -10z m62 -42
c23 -17 25 -45 7 -84 -13 -27 -20 -31 -49 -28 -66 5 -87 41 -59 100 13 27 20
31 49 28 19 -1 42 -8 52 -16z m-78 -134 c15 10 24 -13 11 -29 -10 -12 -15 -12
-35 3 -12 9 -20 23 -18 30 4 9 9 10 19 1 7 -6 18 -8 23 -5z m90 -23 c-20 -16
-26 -18 -38 -6 -16 15 -6 36 13 29 8 -3 17 0 21 6 5 8 10 9 18 1 7 -7 3 -16
-14 -30z"/>
<path d="M170 205 c-7 -9 -21 -13 -31 -10 -23 8 -25 -8 -4 -25 13 -11 20 -9
40 10 14 13 25 27 25 32 0 13 -17 9 -30 -7z"/>
</g>
</svg>
