<svg xmlns="http://www.w3.org/2000/svg" viewBox="0 0 24 30" fill="none" x="0px" y="0px"><path d="M6 14C6 13.4477 6.44772 13 7 13H9V11C9 10.4477 9.44772 10 10 10C10.5523 10 11 10.4477 11 11V13H13C13.5523 13 14 13.4477 14 14C14 14.5523 13.5523 15 13 15H11V17C11 17.5523 10.5523 18 10 18C9.44771 18 9 17.5523 9 17V15H7C6.44772 15 6 14.5523 6 14Z" fill="black"/><path fill-rule="evenodd" clip-rule="evenodd" d="M18 18V19C18 20.6569 16.6569 22 15 22H5C3.34315 22 2 20.6569 2 19V9C2 7.34315 3.34315 6 5 6H6V5C6 3.34315 7.34315 2 9 2H19C20.6569 2 22 3.34315 22 5V15C22 16.6569 20.6569 18 19 18H18ZM8 6V5C8 4.44771 8.44772 4 9 4H19C19.5523 4 20 4.44772 20 5V15C20 15.5523 19.5523 16 19 16H18V9C18 7.34315 16.6569 6 15 6H8ZM4 19C4 19.5523 4.44772 20 5 20H15C15.5523 20 16 19.5523 16 19V9C16 8.44772 15.5523 8 15 8H5C4.44772 8 4 8.44771 4 9V19Z" fill="black"/><text x="0" y="39" fill="#000000" font-size="5px" font-weight="bold" font-family="'Helvetica Neue', Helvetica, Arial-Unicode, Arial, Sans-serif">Created by HideMaru</text><text x="0" y="44" fill="#000000" font-size="5px" font-weight="bold" font-family="'Helvetica Neue', Helvetica, Arial-Unicode, Arial, Sans-serif">from the Noun Project</text></svg>