<svg xmlns="http://www.w3.org/2000/svg" viewBox="0 0 24 30" fill="none" x="0px" y="0px"><path d="M19 9V18C20.6569 18 22 16.6569 22 15V5C22 3.34315 20.6569 2 19 2H9C7.34315 2 6 3.34315 6 5H15C17.2091 5 19 6.79086 19 9Z" fill="black"/><path fill-rule="evenodd" clip-rule="evenodd" d="M2 19C2 20.6569 3.34315 22 5 22H15C16.6569 22 18 20.6569 18 19V9C18 7.34315 16.6569 6 15 6H5C3.34315 6 2 7.34315 2 9V19ZM6 14C6 13.4477 6.44772 13 7 13H9V11C9 10.4477 9.44772 10 10 10C10.5523 10 11 10.4477 11 11V13H13C13.5523 13 14 13.4477 14 14C14 14.5523 13.5523 15 13 15H11V17C11 17.5523 10.5523 18 10 18C9.44771 18 9 17.5523 9 17V15H7C6.44772 15 6 14.5523 6 14Z" fill="black"/><text x="0" y="39" fill="#000000" font-size="5px" font-weight="bold" font-family="'Helvetica Neue', Helvetica, Arial-Unicode, Arial, Sans-serif">Created by HideMaru</text><text x="0" y="44" fill="#000000" font-size="5px" font-weight="bold" font-family="'Helvetica Neue', Helvetica, Arial-Unicode, Arial, Sans-serif">from the Noun Project</text></svg>