<?xml version="1.0" standalone="no"?>
<!DOCTYPE svg PUBLIC "-//W3C//DTD SVG 20010904//EN"
 "http://www.w3.org/TR/2001/REC-SVG-20010904/DTD/svg10.dtd">
<svg version="1.0" xmlns="http://www.w3.org/2000/svg"
 width="512.000000pt" height="512.000000pt" viewBox="0 0 512.000000 512.000000"
 preserveAspectRatio="xMidYMid meet">

<g transform="translate(0.000000,512.000000) scale(0.100000,-0.100000)"
fill="#000000" stroke="none">
<path d="M2443 5105 c-29 -8 -70 -23 -90 -34 -21 -10 -452 -258 -958 -550
-742 -429 -930 -542 -972 -583 -60 -59 -116 -159 -132 -236 -15 -74 -15 -2210
0 -2284 18 -85 74 -181 143 -244 48 -45 258 -170 995 -595 514 -296 957 -546
985 -556 76 -27 233 -24 306 5 30 12 471 262 980 556 733 422 938 545 986 590
69 63 125 159 143 244 15 74 15 2210 0 2284 -18 86 -74 181 -144 246 -81 74
-976 592 -1023 592 -57 0 -93 -79 -54 -118 9 -9 189 -116 399 -237 210 -121
380 -221 379 -222 -1 -1 -117 13 -257 32 -140 19 -522 71 -849 115 -327 44
-605 83 -617 85 l-23 5 0 380 c0 209 3 380 6 380 14 0 119 -58 398 -219 162
-94 304 -171 316 -171 76 0 104 98 40 138 -119 74 -629 362 -675 380 -76 31
-205 39 -282 17z m37 -525 l0 -380 -22 -5 c-33 -7 -1721 -235 -1724 -232 -1 1
136 81 304 178 169 98 539 311 822 474 506 293 598 344 613 345 4 0 7 -171 7
-380z m-128 -622 c-27 -40 -295 -440 -597 -888 -301 -448 -553 -821 -559 -828
-9 -9 -91 158 -366 749 -195 419 -355 766 -355 772 0 7 306 52 795 119 437 59
856 116 930 127 74 10 150 19 168 20 l33 1 -49 -72z m1295 -48 c489 -66 913
-124 943 -128 30 -4 55 -12 55 -18 0 -6 -160 -354 -355 -773 -276 -593 -357
-758 -366 -749 -9 10 -569 841 -1142 1696 -53 78 -60 92 -42 92 11 0 419 -54
907 -120z m-463 -840 l616 -915 -849 -5 c-817 -5 -850 -6 -870 -24 -27 -25
-28 -79 -1 -106 20 -20 33 -20 871 -20 468 0 849 -4 847 -8 -10 -26 -1231
-1832 -1238 -1832 -8 0 -1240 1825 -1240 1836 0 2 110 4 244 4 218 0 246 2
264 18 34 28 37 65 9 98 l-25 29 -246 5 -246 5 617 918 c340 504 621 916 625
915 4 -2 284 -415 622 -918z m-2420 -294 c174 -373 315 -683 314 -687 -3 -8
-596 -579 -631 -608 -16 -13 -17 51 -17 995 0 583 4 1003 9 994 5 -8 151 -321
325 -694z m3924 -801 l-3 -507 -320 307 c-187 179 -320 313 -319 323 0 9 144
325 320 701 l319 684 3 -501 c1 -275 1 -728 0 -1007z m-2949 -875 c313 -465
568 -846 566 -848 -1 -2 -308 173 -681 389 -374 215 -764 441 -869 501 -104
60 -205 124 -224 143 l-34 33 139 134 c392 378 520 498 527 495 4 -1 263 -382
576 -847z m2551 539 c179 -171 326 -314 328 -318 8 -23 -152 -121 -931 -571
-478 -276 -870 -500 -872 -498 -4 4 1137 1698 1144 1698 3 0 152 -140 331
-311z"/>
<path d="M1105 3635 c-30 -29 -32 -64 -6 -96 18 -23 27 -24 159 -29 l139 -5
-123 -280 c-89 -201 -122 -287 -118 -305 12 -57 83 -79 121 -37 25 26 313 679
313 708 0 11 -11 31 -25 44 -24 25 -25 25 -230 25 -205 0 -206 0 -230 -25z"/>
<path d="M3722 3637 c-52 -55 -10 -127 74 -127 l44 0 0 -303 0 -304 23 -21
c29 -27 67 -28 98 -3 l24 19 0 362 0 362 -24 19 c-19 16 -40 19 -120 19 -89 0
-99 -2 -119 -23z"/>
<path d="M2551 3226 c-51 -38 -138 -154 -181 -241 -76 -153 -91 -289 -44 -383
46 -93 127 -142 234 -142 188 0 306 172 244 353 -31 91 -137 167 -231 167 -18
0 -33 4 -33 8 0 5 32 43 70 86 78 85 86 111 45 151 -31 31 -62 32 -104 1z m85
-430 c37 -37 45 -82 22 -131 -32 -71 -158 -73 -194 -4 -25 50 -18 97 20 135
28 28 42 34 76 34 34 0 48 -6 76 -34z"/>
<path d="M2497 1616 c-65 -18 -117 -61 -149 -126 -34 -66 -35 -94 -3 -125 44
-45 96 -28 125 41 26 59 72 82 124 60 88 -37 70 -157 -26 -173 -52 -8 -78 -33
-78 -77 0 -41 37 -76 80 -76 36 0 80 -50 80 -92 0 -41 -48 -88 -90 -88 -39 0
-90 47 -90 84 0 27 -36 74 -60 77 -33 3 -51 -2 -70 -21 -42 -42 -16 -152 50
-218 53 -54 87 -67 170 -67 83 0 117 14 169 66 46 46 63 86 69 159 4 58 1 71
-27 123 -31 58 -31 59 -13 85 126 181 -49 426 -261 368z"/>
</g>
</svg>
