<?xml version="1.0" standalone="no"?>
<!DOCTYPE svg PUBLIC "-//W3C//DTD SVG 20010904//EN"
 "http://www.w3.org/TR/2001/REC-SVG-20010904/DTD/svg10.dtd">
<svg version="1.0" xmlns="http://www.w3.org/2000/svg"
 width="348.000000pt" height="609.000000pt" viewBox="0 0 348.000000 609.000000"
 preserveAspectRatio="xMidYMid meet">

<g transform="translate(0.000000,609.000000) scale(0.100000,-0.100000)"
fill="#000000" stroke="none">
<path d="M1559 5600 c-29 -15 -40 -30 -57 -77 -34 -93 -42 -180 -51 -500 -9
-314 -18 -431 -31 -416 -4 4 -13 60 -20 124 -9 88 -9 134 -1 185 15 93 18 228
6 232 -5 1 -11 -19 -12 -45 -4 -76 -24 -256 -29 -264 -7 -11 -179 -25 -243
-20 -5 1 -11 9 -13 19 -6 20 15 45 28 34 5 -4 -2 5 -15 21 -15 16 -19 27 -12
27 11 0 11 3 1 15 -16 20 -6 19 28 -2 l27 -17 -19 22 c-11 12 -25 22 -33 22
-8 0 -11 5 -8 11 4 6 13 8 20 5 16 -6 14 26 -2 37 -17 10 -17 30 0 21 8 -5 7
-2 -2 9 -22 28 -7 29 29 2 19 -14 39 -25 44 -25 6 0 -3 9 -21 21 -33 21 -68
67 -59 77 4 3 19 -3 34 -14 15 -11 34 -24 42 -28 17 -8 -18 23 -58 53 -22 16
-23 20 -9 21 10 0 29 -7 42 -16 22 -14 36 -15 96 -6 78 12 101 25 97 56 -5 35
-52 33 -94 -3 -41 -36 -43 -37 -60 -13 -18 23 -17 32 3 32 9 0 27 10 40 22
l23 22 -21 22 -21 23 38 5 c22 4 56 10 76 15 41 9 42 7 50 -83 2 -16 9 -31 17
-34 11 -4 12 8 6 59 -5 35 -9 73 -10 85 -5 40 -47 123 -71 139 -54 35 -148 2
-187 -67 -48 -83 -56 -138 -67 -439 -6 -156 -15 -320 -20 -364 -13 -111 -12
-158 1 -150 6 4 20 -2 32 -12 12 -11 36 -27 52 -37 28 -16 28 -15 -5 13 -19
17 -30 31 -24 31 5 0 14 -3 20 -7 5 -5 -1 2 -13 14 -13 12 -31 27 -40 32 -16
9 -16 12 -3 21 10 6 11 10 3 10 -7 0 -13 7 -13 16 0 13 4 13 30 -3 17 -10 28
-23 26 -29 -6 -15 6 -30 30 -38 17 -5 29 7 77 78 31 46 57 86 57 90 0 4 -10 6
-22 4 -15 -2 -32 -23 -57 -73 -25 -49 -36 -64 -39 -50 -2 11 -23 34 -47 50
-25 17 -45 33 -45 38 0 12 10 8 44 -18 18 -14 36 -25 41 -25 4 0 -5 10 -21 22
-16 13 -38 31 -48 40 -28 25 -1 23 31 -2 14 -11 31 -20 37 -20 6 0 -7 12 -29
28 -24 16 -41 36 -42 50 -2 16 1 21 10 16 9 -6 9 -4 -1 8 -16 20 -5 51 17 43
13 -5 14 -4 4 6 -18 18 -16 30 4 22 11 -4 14 -3 9 5 -5 9 15 12 76 13 46 0 93
2 105 3 12 1 27 0 32 -4 6 -3 18 -57 26 -120 9 -63 19 -137 23 -165 4 -27 7
-131 7 -229 l-1 -179 -24 -3 c-14 -1 -54 -9 -90 -18 -90 -21 -130 -21 -130 2
-1 10 -24 32 -55 52 -41 25 -55 40 -55 57 0 28 4 28 46 2 46 -28 43 -18 -4 15
-29 20 -38 33 -40 58 -3 58 11 66 57 33 23 -15 43 -26 46 -23 2 2 -18 17 -45
34 -45 26 -50 32 -50 67 0 20 3 37 7 37 3 0 21 -12 40 -26 19 -14 36 -24 38
-22 7 7 -89 77 -97 72 -4 -3 -8 -24 -8 -46 0 -23 -3 -38 -7 -34 -5 4 -8 98 -9
209 -1 170 -4 211 -20 257 -25 71 -65 100 -139 100 -64 0 -89 -23 -136 -130
-33 -74 -33 -78 -34 -220 0 -97 4 -152 12 -166 10 -17 10 -33 -2 -78 -9 -34
-15 -104 -15 -174 0 -115 -10 -255 -29 -422 -13 -107 -17 -163 -51 -660 -5
-80 -12 -158 -15 -175 -2 -16 -12 -128 -20 -249 -17 -246 -8 -414 26 -496 10
-25 30 -89 43 -142 27 -106 45 -150 46 -110 0 12 6 22 13 22 6 0 2 8 -10 18
-21 16 -65 155 -77 245 -3 18 -8 49 -12 71 -5 28 -3 40 7 47 11 7 11 9 -3 9
-11 0 -18 8 -18 19 0 10 -3 32 -6 48 -5 28 -3 31 24 35 25 4 32 0 36 -17 3
-12 17 -27 31 -35 22 -12 24 -18 19 -49 -4 -20 -15 -47 -25 -60 -25 -31 -26
-66 -1 -56 9 3 36 11 60 18 56 15 54 28 -5 20 l-46 -6 27 35 c23 31 25 39 15
61 -18 39 -3 92 36 130 l34 33 -20 38 c-17 32 -18 40 -7 54 11 14 10 15 -6 9
-12 -5 -23 -1 -31 10 -18 25 -32 7 -16 -19 11 -18 11 -22 -3 -30 -9 -5 -16
-16 -16 -23 0 -8 -5 -15 -11 -15 -6 0 -9 -7 -5 -15 3 -10 -9 -23 -38 -40 -51
-30 -56 -31 -49 -6 3 13 11 18 21 14 15 -4 15 -3 0 10 -22 18 -23 37 -2 37 8
0 12 5 9 10 -4 6 -11 8 -16 5 -5 -4 -9 3 -9 14 0 15 5 19 18 15 15 -5 15 -4
-2 10 -10 8 -16 20 -14 27 2 7 15 2 35 -15 17 -14 34 -26 38 -26 4 0 -11 15
-33 33 -23 17 -41 38 -41 45 -1 18 7 15 53 -20 l41 -32 -42 45 c-54 56 -58 87
-5 36 21 -20 41 -37 46 -37 4 0 -13 20 -38 45 -43 42 -56 65 -38 65 4 0 19
-11 34 -25 45 -42 45 -28 0 18 -41 41 -42 45 -36 90 4 26 10 47 14 47 5 0 22
-17 39 -37 20 -25 30 -32 31 -22 0 10 -16 31 -35 48 -26 22 -35 39 -35 61 0
16 3 30 7 30 4 0 25 -17 48 -37 29 -27 26 -23 -10 15 -30 32 -43 52 -34 52 8
0 28 -14 44 -30 16 -17 33 -30 39 -30 6 0 -12 22 -38 49 -48 49 -48 50 -41 97
l7 49 37 -40 c21 -22 48 -41 60 -42 21 -2 21 -1 -6 30 -15 18 -36 44 -46 57
-10 14 -15 18 -11 10 4 -8 18 -30 31 -48 39 -53 20 -48 -26 6 -25 31 -41 60
-41 76 0 36 11 33 46 -14 27 -37 54 -58 54 -42 0 4 -21 29 -46 55 -25 27 -44
55 -42 63 2 9 18 -4 41 -32 20 -26 37 -42 37 -37 0 6 -18 31 -40 56 -37 42
-39 48 -32 84 l8 38 18 -27 c10 -16 25 -28 32 -28 8 0 14 -6 14 -12 0 -7 3
-24 6 -38 5 -22 2 -21 -31 15 -21 22 -31 31 -24 20 7 -11 24 -32 37 -46 13
-15 26 -45 29 -68 3 -23 10 -44 15 -47 5 -3 5 -11 -1 -17 -6 -8 0 -23 20 -47
l29 -35 -16 50 c-44 139 -64 362 -38 428 4 12 -1 20 -17 26 -26 10 -74 69 -65
79 4 3 23 -10 44 -29 l37 -34 -30 35 c-17 19 -33 36 -37 38 -5 2 -8 13 -8 25
0 19 6 15 40 -23 21 -25 39 -40 39 -35 0 6 -18 28 -39 50 -37 36 -51 65 -32
65 4 0 20 -16 35 -36 16 -19 32 -33 35 -29 4 3 2 9 -4 13 -13 9 -64 77 -64 86
0 4 6 4 13 0 10 -6 10 -4 0 7 -14 14 -17 51 -6 63 4 3 22 -8 40 -26 44 -43 42
-28 -2 18 -30 31 -35 42 -35 84 0 27 4 51 9 55 5 3 33 -20 62 -50 29 -30 54
-54 56 -52 1 2 -15 23 -37 46 -22 23 -38 46 -35 52 8 12 42 12 50 -1 4 -7 11
-7 18 -2 7 5 37 12 67 16 30 3 69 9 86 12 29 6 32 4 38 -28 3 -18 9 -94 12
-169 l7 -136 -75 -6 c-75 -5 -188 -34 -188 -48 0 -12 52 -21 63 -10 7 7 2 8
-14 4 -17 -4 -21 -3 -14 5 13 14 120 42 163 42 49 0 29 -20 -21 -21 -23 -1
-53 -5 -67 -10 -16 -5 1 -6 47 -3 115 9 116 8 111 -97 -3 -85 -4 -89 -35 -116
-45 -40 -51 -68 -18 -89 24 -16 27 -16 43 -1 15 16 15 17 -6 17 -23 0 -29 23
-13 49 8 12 15 13 35 3 16 -7 27 -8 31 -2 4 6 0 12 -7 15 -9 4 -13 28 -12 88
1 104 1 103 22 85 31 -27 48 -33 28 -10 -10 12 -27 24 -37 27 -21 7 -26 25 -7
25 6 0 20 -7 30 -17 10 -9 21 -14 24 -11 3 3 -11 16 -30 28 -20 12 -36 26 -36
31 0 15 15 10 44 -12 15 -12 29 -19 32 -16 6 6 -50 47 -65 47 -6 0 -11 1 -11
3 -6 30 -10 187 -5 187 4 0 24 -9 44 -21 l36 -21 -30 26 c-16 14 -35 26 -41
26 -14 0 -24 59 -12 66 5 3 27 -9 51 -27 23 -18 48 -37 55 -42 6 -5 12 -6 12
-1 0 5 -29 29 -65 54 -35 25 -64 51 -65 58 0 17 7 15 43 -12 41 -30 70 -44 35
-16 -63 49 -73 59 -67 64 3 3 24 -8 48 -25 23 -17 44 -29 47 -26 3 2 -18 19
-46 37 -27 18 -50 39 -50 47 0 14 3 13 23 -1 59 -43 68 -48 72 -44 3 3 -18 19
-45 37 -28 18 -50 37 -50 42 0 16 17 10 50 -17 17 -15 33 -24 36 -21 3 3 -13
18 -35 33 -23 14 -41 33 -41 41 0 15 6 13 53 -20 16 -10 31 -17 34 -14 2 3 -8
12 -24 21 -37 19 -62 46 -42 46 9 0 8 4 -3 13 -15 10 -23 36 -19 59 2 11 101
-52 101 -64 0 -6 -10 -8 -24 -4 -14 3 -27 2 -30 -3 -17 -27 149 -39 223 -17
30 9 60 16 66 16 22 0 32 -42 23 -94 -4 -28 -6 -61 -3 -73 6 -26 -6 -29 -70
-12 -82 20 -111 21 -136 0 -28 -23 -20 -38 10 -20 31 20 36 4 12 -41 -27 -52
-12 -52 23 0 25 39 46 52 46 29 0 -6 -9 -22 -20 -36 -11 -14 -20 -30 -20 -34
0 -13 38 -11 46 3 4 7 3 8 -4 4 -18 -11 -14 3 9 35 34 49 50 36 22 -18 -30
-59 -25 -95 19 -140 37 -38 50 -36 19 3 -28 36 -27 57 9 106 17 22 30 46 30
52 -1 11 -27 -17 -56 -58 -7 -11 -16 -17 -20 -14 -10 11 24 66 55 87 l29 21 7
-46 c11 -77 3 -303 -12 -316 -7 -6 -13 -19 -13 -30 0 -10 -7 -21 -15 -24 -8
-4 -15 -10 -15 -15 0 -10 40 8 50 21 3 4 14 12 25 18 11 6 14 12 8 12 -7 0
-13 5 -13 11 0 6 8 8 18 5 16 -6 16 -5 0 7 -18 14 -22 97 -5 97 4 0 23 -11 41
-25 18 -14 36 -25 40 -25 4 0 -16 19 -45 42 -29 23 -47 44 -41 46 10 3 10 7 2
18 -7 7 -9 18 -6 23 4 6 29 -7 59 -29 29 -22 56 -40 61 -40 5 0 -21 23 -58 51
-36 27 -64 54 -61 60 4 5 33 -11 66 -36 32 -26 59 -43 59 -38 0 4 -29 28 -65
53 -36 25 -65 48 -65 53 0 16 27 5 69 -28 24 -19 48 -35 54 -35 5 0 25 17 43
38 l34 37 27 -33 c30 -35 60 -44 48 -14 -14 33 -10 46 15 53 22 6 21 7 -10 8
-70 2 -77 31 -14 57 23 10 32 19 28 29 -9 21 -15 19 -61 -20 -23 -19 -44 -35
-48 -35 -4 0 -18 9 -32 20 -37 29 -48 25 -18 -7 30 -33 32 -54 7 -76 -17 -15
-20 -15 -43 0 -13 10 -37 30 -54 45 -16 15 -33 28 -37 28 -5 0 -8 7 -8 16 0 9
5 12 13 8 6 -4 4 2 -6 13 -31 35 -6 33 40 -4 24 -20 46 -34 49 -31 2 3 -20 24
-51 48 -58 45 -70 66 -32 55 21 -6 21 -5 4 9 -10 8 -17 22 -15 30 2 14 7 13
28 -7 14 -13 39 -32 55 -42 26 -15 26 -14 -5 11 -74 62 -85 73 -77 80 4 4 17
-2 30 -13 12 -11 38 -30 57 -43 20 -14 9 1 -28 35 -41 38 -59 60 -52 65 9 6 9
9 1 14 -6 4 -9 11 -6 16 3 5 31 -11 61 -35 30 -25 58 -45 62 -45 4 1 -13 18
-37 38 -25 20 -56 47 -70 59 -14 12 -23 24 -20 28 9 8 60 -5 54 -15 -2 -4 15
-15 38 -24 48 -18 71 -21 62 -7 -3 6 18 10 52 10 32 1 74 5 93 9 24 6 -1 8
-77 6 -88 -3 -114 0 -123 11 -7 8 -23 15 -36 15 -12 0 -25 4 -29 10 -3 5 -12
7 -20 4 -10 -4 -12 0 -8 15 4 17 8 19 19 10 8 -7 17 -10 20 -7 2 3 -7 13 -21
22 -14 9 -23 21 -19 27 4 6 11 6 20 -2 8 -6 14 -7 14 -3 0 5 -9 15 -20 22 -12
7 -18 17 -15 23 4 6 26 -6 53 -27 26 -21 49 -39 52 -41 2 -2 -2 -8 -9 -12 -8
-5 -9 -11 -3 -15 5 -3 14 0 20 7 13 16 -2 36 -49 65 -39 24 -75 59 -67 67 2 3
24 -9 49 -26 29 -20 35 -23 19 -8 -14 13 -37 31 -50 40 -14 9 -22 20 -18 24 4
4 33 -11 64 -34 30 -24 58 -40 61 -37 4 3 1 6 -6 6 -8 0 -10 8 -7 20 3 11 8
28 11 39 3 11 0 21 -9 24 -10 4 -13 1 -9 -9 8 -22 -6 -17 -53 19 l-43 32 -1
132 c0 72 4 134 8 137 12 7 124 -83 119 -97 -7 -21 -22 -17 -39 12 -16 29 -58
60 -58 43 0 -5 11 -15 25 -22 21 -11 24 -18 19 -56 -6 -50 -17 -46 116 -44 47
1 93 -2 103 -6 40 -15 10 -20 -97 -16 -80 3 -116 0 -121 -8 -5 -8 -14 -5 -31
11 -13 12 -24 19 -24 15 0 -4 14 -19 30 -33 17 -14 30 -34 30 -48 0 -25 29
-43 41 -24 4 6 12 8 19 4 7 -4 16 -2 20 6 7 10 12 10 23 1 11 -10 17 -9 27 3
17 21 27 19 34 -7 l7 -23 11 23 c14 27 24 28 31 2 3 -11 10 -20 15 -20 11 0
28 197 18 207 -3 3 -14 -1 -24 -10 -22 -20 -42 -22 -42 -4 -1 6 -10 1 -21 -13
-19 -23 -21 -23 -31 -6 -9 17 -11 17 -29 0 -17 -15 -19 -15 -19 -1 0 15 -16
30 -103 97 -26 19 -46 41 -47 49 0 11 6 9 23 -6 34 -31 107 -77 113 -71 3 3
-8 14 -24 24 -55 36 -111 79 -112 87 0 16 26 5 77 -34 29 -23 55 -40 58 -37 2
2 -25 26 -60 53 -36 27 -65 55 -65 63 0 9 15 2 43 -20 52 -43 97 -72 97 -64 0
3 -31 29 -70 57 -38 28 -70 55 -70 60 0 14 7 11 58 -24 58 -41 72 -49 72 -44
0 2 -28 24 -62 47 -34 24 -56 46 -50 48 6 2 26 -7 44 -21 55 -41 65 -42 21 -3
-47 41 -58 68 -18 42 23 -15 24 -15 18 1 -5 14 -1 15 28 11 19 -3 62 -2 96 1
90 10 100 0 119 -124 9 -62 17 -189 19 -334 3 -230 0 -260 -30 -284 -5 -5 0
-6 11 -2 23 6 42 -19 23 -31 -6 -4 -4 -15 5 -30 34 -51 47 -322 26 -504 -6
-47 -12 -94 -13 -104 -2 -16 11 -24 71 -42 39 -12 72 -19 72 -15 0 10 -46 31
-68 31 -21 1 -54 25 -45 34 3 3 15 -1 25 -11 10 -9 18 -11 18 -6 0 6 -10 17
-22 26 -13 8 -20 18 -16 23 5 4 18 -1 30 -12 12 -10 18 -13 14 -6 -12 20 13
14 47 -12 51 -37 65 -41 27 -6 l-35 31 40 -4 c51 -6 138 10 192 34 24 10 52
19 62 19 11 0 23 5 26 10 8 14 -7 13 -95 -6 -82 -17 -253 -14 -290 6 -25 13
-27 35 -2 25 41 -16 46 -17 27 -2 -11 9 -26 17 -33 17 -8 0 -10 9 -6 28 16 72
19 74 66 41 48 -34 42 -16 -7 21 -35 26 -45 40 -45 62 0 15 4 28 8 28 13 0
102 -71 102 -81 0 -15 -10 -10 -52 22 -21 17 -41 29 -44 26 -3 -3 10 -15 28
-28 18 -13 35 -27 36 -31 5 -11 90 -10 96 1 3 5 -1 11 -9 15 -18 7 -20 68 -3
96 17 27 5 34 -37 20 -34 -11 -38 -10 -80 22 -24 18 -45 36 -45 41 0 14 23 7
52 -18 16 -14 35 -25 41 -25 7 1 3 6 -9 13 -39 23 -93 71 -88 79 3 4 23 -6 46
-22 23 -17 45 -30 51 -30 5 0 -13 17 -42 38 -28 20 -51 40 -51 45 0 15 22 6
61 -25 21 -17 42 -29 45 -25 3 3 -5 11 -18 18 -34 18 -93 77 -85 85 3 4 14 1
22 -6 19 -15 28 -17 150 -24 l90 -5 -86 9 c-48 4 -100 16 -115 25 l-29 16 26
-5 c68 -14 163 -24 202 -21 23 1 46 0 52 -3 5 -3 21 -6 34 -6 34 -1 39 -29 45
-244 2 -95 9 -178 14 -185 5 -7 17 -46 25 -87 9 -41 29 -116 46 -166 48 -144
51 -137 -87 -218 -64 -38 -142 -89 -173 -112 -53 -41 -58 -42 -88 -31 -17 6
-31 14 -31 17 0 4 14 19 30 35 32 31 38 45 17 45 -8 0 -28 -20 -46 -45 -30
-42 -82 -81 -93 -69 -3 2 5 31 18 62 26 66 23 98 -12 106 -29 8 -32 26 -5 26
28 0 117 115 152 197 15 35 15 42 3 47 -9 3 -14 -1 -14 -13 0 -23 -63 -105
-134 -177 -62 -62 -178 -126 -270 -149 -79 -19 -99 -11 -72 29 9 14 16 34 16
46 0 11 5 20 10 20 10 0 14 -13 11 -42 -2 -11 5 -18 14 -18 16 0 16 10 -2 58
-3 6 2 12 11 12 9 0 21 -11 26 -25 5 -14 16 -25 25 -25 19 0 20 19 1 26 -8 3
-16 15 -19 26 -5 16 -12 19 -33 15 -41 -8 -54 12 -54 85 0 110 11 168 33 179
32 18 43 -3 28 -53 -7 -24 -14 -50 -17 -58 -2 -9 7 -22 24 -32 26 -16 28 -15
56 8 15 14 26 28 22 31 -3 3 -14 -1 -24 -10 -10 -10 -24 -17 -31 -17 -14 0
-13 7 15 81 15 39 16 51 6 74 -12 25 -16 27 -57 22 -39 -4 -45 -2 -45 14 0 24
-16 33 -24 13 -3 -9 -6 -87 -6 -173 0 -145 -2 -159 -20 -176 -11 -10 -20 -25
-20 -34 0 -14 2 -14 10 -1 7 12 10 8 10 -14 0 -24 -2 -27 -15 -16 -21 17 -20
-4 1 -25 9 -9 13 -19 9 -23 -11 -11 -205 -5 -250 8 -80 23 -190 84 -247 139
-60 56 -73 60 -37 10 25 -35 121 -102 192 -134 61 -26 184 -48 280 -49 l67 -1
0 -58 c0 -43 -3 -58 -12 -54 -7 2 -12 18 -12 35 1 21 -3 32 -13 32 -9 0 -13
-10 -11 -35 1 -19 -1 -37 -4 -41 -15 -15 -28 11 -28 57 0 68 -18 62 -22 -8 -3
-61 -21 -79 -26 -28 -2 17 -8 36 -14 43 -13 15 -44 16 -54 1 -4 -7 2 -9 16 -7
13 2 25 -3 27 -9 3 -8 -4 -13 -15 -13 -28 0 -48 -26 -33 -44 10 -11 33 -13
108 -10 l96 5 -6 -63 c-3 -35 -6 -64 -7 -64 0 -1 -18 2 -41 6 -34 6 -39 5 -34
-8 3 -9 9 -35 12 -59 3 -24 10 -43 14 -43 10 0 12 11 9 58 -2 33 5 38 28 23
19 -12 12 -140 -8 -151 -21 -10 -225 -38 -280 -38 -25 0 -103 0 -174 -1 -72 0
-131 1 -133 3 -2 2 -5 16 -7 32 -5 37 -61 260 -86 342 -10 35 -17 69 -14 76 3
7 -3 19 -12 27 -15 12 -16 12 -11 -6 3 -11 26 -105 51 -210 42 -171 60 -241
73 -285 3 -12 6 -12 12 -1 12 19 25 -8 40 -79 12 -58 43 -147 67 -192 21 -40
17 -57 -21 -79 -37 -22 -50 -48 -14 -29 22 12 49 7 49 -9 0 -5 -11 -12 -25
-15 -14 -4 -25 -11 -25 -16 0 -14 8 -13 41 7 31 18 35 28 19 38 -13 8 -13 25
0 25 6 0 40 -60 76 -132 37 -73 80 -153 97 -178 99 -145 170 -241 174 -236 3
2 -20 40 -51 84 -133 191 -293 488 -347 641 -21 61 -23 71 -10 71 11 0 52
-116 43 -124 -9 -9 9 -7 45 6 23 8 33 18 32 33 0 14 -2 16 -6 5 -6 -14 -22
-30 -33 -30 -7 0 -27 50 -35 87 -6 30 -4 32 24 35 24 2 28 6 22 17 -8 13 -15
12 -52 -2 -51 -20 -61 -13 -57 39 l3 39 143 2 c106 2 144 -1 147 -10 2 -6 11
-38 21 -70 17 -59 24 -63 72 -51 16 5 22 13 20 28 -3 24 8 46 23 46 6 0 9 -8
8 -18 -1 -9 -1 -23 0 -29 1 -15 41 -18 41 -3 0 6 -4 10 -10 10 -5 0 -10 5 -10
11 0 8 4 8 15 -1 22 -18 94 -4 89 18 -3 11 5 21 22 29 15 7 29 11 31 10 6 -7
-38 -82 -50 -83 -6 0 -20 -2 -29 -2 -52 -5 -76 -84 -37 -123 29 -29 17 -59
-26 -59 -47 0 -64 -30 -58 -105 2 -33 5 -60 6 -60 1 -1 23 0 50 3 54 5 64 22
13 22 -30 0 -34 3 -38 30 -4 25 -1 31 17 36 12 3 30 4 40 2 10 -2 20 3 22 10
3 8 -7 12 -32 12 -46 0 -43 24 3 28 24 2 32 8 32 23 0 10 5 19 12 19 8 0 9
-35 5 -133 -18 -354 -20 -487 -8 -487 7 0 11 31 11 98 1 199 13 437 23 444 7
4 7 11 -2 22 -19 23 -10 69 16 81 32 14 46 60 32 100 -7 18 -9 47 -5 68 8 40
26 51 26 15 0 -13 4 -18 9 -12 10 11 21 124 11 124 -3 0 -23 -18 -45 -40 -28
-28 -41 -36 -47 -27 -11 18 -10 79 2 72 11 -7 38 6 285 135 198 103 502 287
491 297 -3 4 -113 -62 -231 -138 -33 -22 -67 -39 -76 -39 -9 0 -22 -7 -29 -15
-17 -20 -101 -66 -114 -62 -20 7 228 216 299 252 39 20 69 38 75 46 3 4 25 17
49 30 60 33 77 43 93 57 12 10 17 7 26 -14 21 -44 15 -59 -34 -82 -26 -13 -44
-25 -41 -28 2 -3 20 4 38 15 43 26 43 26 58 -6 15 -32 11 -35 -64 -57 -77 -24
-165 -68 -233 -118 -49 -36 -84 -70 -172 -168 -18 -19 -30 -28 -27 -19 4 11
-6 21 -29 33 -46 21 -51 21 -70 -10 -13 -19 -14 -28 -5 -37 8 -8 11 -6 11 10
0 12 4 24 9 28 17 10 59 -17 63 -40 6 -29 -8 -56 -26 -49 -9 3 -13 -4 -13 -23
-1 -15 -17 -72 -37 -126 -19 -53 -36 -113 -38 -133 -3 -45 -16 -53 -39 -25
-10 12 -23 20 -29 16 -5 -3 -19 -1 -30 5 -12 6 -26 9 -33 7 -7 -3 2 -10 20
-17 17 -6 34 -18 37 -26 3 -9 10 -13 16 -9 5 3 19 -2 30 -13 19 -18 20 -19 2
-35 -15 -14 -25 -15 -58 -6 -52 15 -66 27 -58 53 4 12 4 18 0 15 -3 -3 -12
-29 -20 -58 -12 -48 -12 -53 5 -61 28 -16 34 -12 14 10 -28 31 -8 42 45 26 33
-10 46 -19 48 -35 5 -32 19 -25 26 13 l7 34 67 -45 c37 -25 69 -47 72 -50 12
-13 -67 11 -83 25 -19 17 -24 15 -29 -13 -2 -15 5 -20 37 -26 64 -12 97 -28
102 -50 6 -21 6 -21 19 2 21 37 17 45 -31 73 -25 15 -45 31 -45 36 0 9 29 15
58 11 19 -3 42 18 42 39 0 14 -12 18 -57 23 -43 4 -63 12 -75 28 l-18 21 0
-31 c0 -25 4 -31 23 -31 34 0 67 -11 67 -23 0 -12 -108 -3 -121 10 -8 8 2 69
30 193 15 66 65 174 111 240 77 111 160 184 292 258 48 28 136 62 161 62 13 0
8 -25 -19 -91 -23 -55 -27 -82 -31 -199 -6 -175 17 -305 78 -437 38 -84 129
-236 137 -229 2 3 -7 23 -21 44 -67 101 -136 269 -162 392 -23 114 -25 340 -2
362 8 7 12 20 9 30 -5 22 14 24 22 2 9 -24 7 -46 -4 -39 -12 8 -13 -8 -1 -21
5 -5 11 -58 13 -119 3 -60 9 -119 15 -130 5 -11 16 -42 22 -70 12 -50 87 -232
102 -249 21 -24 16 5 -11 59 -52 105 -98 262 -105 360 -3 50 -8 100 -11 113
-8 40 15 23 37 -28 12 -28 23 -49 25 -47 3 2 -10 36 -27 76 -18 39 -29 74 -25
78 4 4 11 1 16 -7 6 -9 10 -10 10 -3 0 6 -4 15 -10 18 -5 3 -10 17 -10 31 0
13 5 24 10 24 6 0 10 9 10 20 0 25 8 25 33 3 19 -17 20 -17 8 4 -6 12 -11 30
-11 40 0 22 58 -83 105 -190 9 -21 19 -36 22 -33 3 3 -22 60 -56 127 l-61 121
21 29 c24 33 36 36 56 12 11 -14 11 -11 -1 9 -14 23 -14 27 0 39 9 7 26 33 38
57 l23 44 35 -50 c20 -27 43 -63 51 -79 9 -16 24 -36 34 -44 17 -13 17 -13 2
11 -9 14 -35 57 -59 95 -24 39 -48 73 -53 76 -5 4 -1 32 9 64 l18 57 28 -33
c15 -18 28 -37 28 -42 0 -13 81 -119 87 -113 3 3 -6 19 -21 37 -15 17 -34 45
-43 63 -9 17 -29 48 -45 69 -18 22 -28 44 -24 53 5 13 9 14 21 4 8 -7 15 -19
15 -26 0 -8 5 -14 10 -14 6 0 10 -6 10 -12 1 -7 10 -24 21 -37 36 -44 28 -17
-17 52 -24 37 -44 72 -44 77 0 20 17 9 36 -23 32 -56 119 -176 126 -177 4 0
-29 51 -72 113 -44 61 -80 115 -80 120 0 22 23 -3 84 -88 37 -52 72 -98 78
-101 15 -9 5 6 -57 91 -66 90 -91 133 -82 141 4 4 8 5 10 3 2 -2 36 -50 76
-106 39 -57 74 -103 78 -103 6 0 -8 22 -79 125 -26 38 -48 76 -48 85 1 18 -3
22 80 -99 30 -45 58 -81 62 -81 4 0 -6 19 -23 43 -46 64 -79 116 -79 122 0 3
9 1 20 -5 11 -6 20 -15 20 -21 0 -13 81 -121 87 -115 2 2 -13 27 -35 56 -25
33 -38 59 -35 71 3 10 1 19 -5 19 -13 0 -73 39 -96 63 -9 8 -16 23 -16 33 0
13 3 14 15 4 9 -7 15 -8 15 -2 0 5 -7 12 -15 16 -12 4 -14 19 -9 77 9 116 14
121 60 61 21 -28 42 -51 46 -52 9 0 -61 101 -80 115 -14 12 -6 45 11 45 6 0
22 -10 36 -22 l26 -23 -20 25 c-11 14 -24 28 -29 32 -23 16 87 196 136 224 80
46 155 59 212 36 l39 -15 -32 -26 c-29 -24 -60 -90 -92 -196 -17 -56 -10 -110
21 -171 25 -49 31 -76 36 -155 8 -119 0 -177 -31 -223 -24 -36 -24 -52 1 -19
7 10 15 15 18 12 11 -11 -16 -124 -46 -193 -38 -88 -74 -261 -83 -401 -6 -108
-7 -112 -62 -220 -31 -60 -75 -141 -99 -178 -24 -37 -44 -70 -44 -73 0 -3 -26
-40 -57 -84 -110 -150 -201 -307 -257 -441 -69 -167 -136 -262 -299 -421 -55
-53 -96 -101 -93 -107 4 -5 -10 -15 -31 -21 -54 -15 -201 -40 -244 -40 -19 0
-40 -5 -45 -10 -7 -7 -29 -6 -67 1 -48 10 -60 9 -75 -3 -9 -8 -27 -18 -39 -21
-28 -6 -183 11 -197 22 -6 5 -22 9 -36 9 -44 -1 -172 29 -180 42 -4 7 -15 10
-24 7 -9 -4 -16 -3 -16 1 0 4 -20 15 -45 26 -48 19 -119 92 -111 113 3 7 -1
13 -9 13 -13 0 -35 29 -35 45 0 3 10 3 21 0 15 -5 19 -4 15 4 -4 6 -16 11 -26
11 -10 0 -22 5 -25 11 -7 10 32 9 300 -7 245 -15 1024 -9 1041 8 13 14 1 14
-106 7 -167 -12 -817 -9 -1026 4 -173 12 -193 15 -214 35 -13 12 -28 22 -32
22 -5 0 -7 4 -3 9 3 5 0 13 -6 16 -5 4 -8 13 -5 21 3 7 -2 18 -12 23 -36 20
-2 21 38 1 23 -12 44 -19 47 -16 3 2 -20 16 -50 31 -40 19 -57 32 -61 51 -9
35 -3 39 31 19 l28 -17 -25 21 -25 21 60 -5 c33 -3 73 -8 89 -11 16 -2 272 -4
569 -4 526 0 862 12 882 32 9 9 -85 7 -405 -7 -41 -2 -230 -6 -420 -10 l-345
-6 -32 43 c-18 24 -62 79 -98 123 -82 99 -205 281 -285 419 -33 57 -60 107
-60 110 0 3 13 12 29 20 26 14 30 14 46 -4 21 -24 38 -25 54 -6 9 11 9 20 2
34 -10 19 -11 19 -83 -1 -40 -12 -75 -22 -77 -23 -6 -5 103 -190 180 -307 106
-159 148 -215 235 -312 41 -46 74 -86 74 -90 0 -9 -262 6 -282 16 -10 5 -19 5
-22 0 -6 -9 -46 -7 -125 5 -24 4 -31 8 -23 16 8 8 7 15 -6 24 -16 12 -16 13 3
14 l20 1 -20 11 c-29 17 -45 35 -45 50 0 17 -49 147 -49 132 -3 -42 102 -345
148 -430 17 -32 31 -61 31 -65 0 -15 -45 -17 -74 -2 -26 14 -29 14 -19 1 7 -8
31 -23 53 -33 22 -10 40 -22 40 -27 0 -5 -14 -1 -31 7 -17 9 -33 14 -35 12 -9
-9 27 -37 47 -37 10 0 19 -4 19 -10 0 -5 -5 -10 -11 -10 -16 0 -238 104 -239
112 0 3 16 5 37 3 l36 -2 -24 18 c-14 11 -32 16 -44 12 -27 -8 -28 -9 -21 -31
4 -12 38 -34 89 -57 45 -21 102 -47 126 -59 l44 -21 -54 -7 c-30 -4 -85 -11
-124 -15 -60 -6 -65 -8 -35 -13 19 -3 39 -3 44 2 6 4 46 8 90 8 66 -1 77 -3
61 -12 -11 -7 -42 -11 -70 -11 -40 0 -45 -1 -26 -8 25 -10 83 -3 114 13 10 5
17 5 17 0 0 -5 -45 -24 -100 -42 -55 -18 -99 -35 -96 -37 4 -4 141 38 215 65
9 3 12 1 7 -6 -3 -6 -59 -27 -123 -47 -95 -30 -120 -35 -140 -26 -31 14 -46
14 -37 0 4 -8 -1 -9 -16 -4 -15 5 -20 4 -16 -4 4 -6 0 -11 -9 -11 -10 0 -13 5
-9 11 7 12 -20 8 -60 -7 -9 -3 -16 -2 -16 4 0 6 17 13 38 17 60 10 68 20 30
38 l-33 16 42 7 c48 7 50 34 2 34 -46 0 -33 20 14 21 23 1 56 5 72 10 25 7 22
8 -17 5 -45 -3 -64 6 -35 17 6 3 -3 6 -22 6 l-34 1 19 22 c19 21 19 21 -6 15
-14 -4 -41 -7 -60 -7 -31 -1 -37 -5 -58 -45 -12 -25 -22 -53 -22 -64 0 -10 -8
-29 -19 -42 -30 -39 -35 -68 -15 -90 15 -17 16 -26 6 -67 -21 -88 -23 -110
-13 -116 6 -4 8 -38 4 -89 l-6 -82 54 -17 c30 -10 64 -20 75 -23 12 -3 33 -23
48 -45 23 -35 48 -57 69 -59 4 0 19 -4 32 -7 24 -6 25 -9 19 -50 -6 -39 -3
-48 27 -86 19 -23 39 -51 44 -62 21 -41 217 -50 325 -15 36 12 110 25 165 29
85 7 101 11 113 29 14 20 62 30 62 13 0 -5 21 -20 48 -34 42 -23 54 -25 109
-18 33 4 65 10 70 13 5 3 40 8 78 11 37 3 84 11 104 17 86 28 92 31 86 50 -11
33 22 21 38 -14 9 -19 33 -43 57 -56 56 -32 95 -23 169 39 l59 49 38 -20 c47
-24 68 -24 106 -2 27 17 29 21 23 60 -3 24 -3 43 2 43 4 -1 22 -18 38 -40 32
-41 71 -62 103 -53 11 2 36 0 57 -6 33 -9 41 -7 77 20 23 16 47 29 54 29 7 0
17 6 21 13 4 6 17 12 28 12 16 0 20 6 19 32 -1 25 2 30 14 26 10 -4 13 -2 8 5
-14 23 4 52 32 52 15 1 37 6 49 13 26 14 83 95 83 118 0 8 11 26 24 38 27 25
56 80 56 104 0 8 -12 18 -27 22 -18 4 -23 9 -15 14 9 5 2 15 -22 32 -42 28
-76 85 -76 126 0 34 -16 53 -46 53 -12 0 -33 10 -48 21 -20 16 -40 21 -76 20
-46 -1 -51 2 -86 44 -21 26 -45 45 -57 45 -11 0 -39 18 -63 40 -37 34 -50 40
-86 40 -24 0 -58 -4 -76 -9 -52 -15 -51 10 6 97 28 42 78 135 113 206 59 122
169 322 221 399 12 19 48 72 79 118 150 223 187 285 192 324 3 22 12 105 21
183 16 144 21 169 51 252 10 25 19 54 21 65 2 11 18 61 36 110 32 90 32 91 32
285 1 139 -3 201 -12 217 -10 19 -7 34 22 106 18 46 37 99 41 118 3 19 13 53
22 76 8 23 13 47 11 55 -5 13 -38 -88 -38 -116 0 -9 -4 -16 -10 -16 -5 0 -7
15 -5 33 6 37 -24 -45 -50 -135 -8 -32 -19 -58 -24 -58 -5 0 2 37 15 83 14 45
31 105 39 133 8 28 15 58 15 67 0 9 5 19 11 23 8 4 9 -6 5 -37 l-6 -44 15 39
c8 21 22 44 30 50 24 17 9 44 -38 67 -95 49 -199 30 -285 -51 -110 -104 -166
-254 -171 -460 -2 -65 -9 -101 -30 -155 -34 -86 -51 -137 -51 -156 0 -8 -11
-38 -25 -67 -13 -29 -25 -60 -27 -69 -3 -18 -30 -53 -72 -91 -15 -15 -34 -39
-42 -54 -8 -16 -18 -28 -23 -28 -5 0 -12 30 -16 68 -10 99 -15 131 -32 192
-21 77 -73 280 -79 310 -2 14 -9 48 -15 75 -7 28 -15 129 -20 225 -15 318 -28
522 -38 594 -6 39 -10 188 -9 331 1 296 -6 348 -62 470 -47 103 -88 141 -154
143 -42 2 -52 -2 -80 -30 -39 -40 -69 -116 -91 -233 -14 -73 -15 -113 -7 -261
10 -174 -2 -394 -20 -394 -4 0 -8 51 -8 113 0 61 -7 170 -15 242 -8 71 -15
215 -15 320 -1 215 -3 241 -25 351 -20 96 -45 140 -92 159 -47 20 -80 18 -124
-5z m137 -68 c12 -23 33 -73 46 -110 21 -62 23 -82 22 -276 -1 -240 3 -231
-95 -242 -32 -4 -56 -10 -53 -15 3 -5 -3 -9 -12 -9 -10 0 -14 3 -11 7 4 3 -5
12 -20 20 -21 11 -28 11 -34 1 -7 -10 -11 -10 -21 0 -6 6 -20 12 -30 12 -14 0
-18 8 -18 40 0 22 4 40 8 40 5 0 21 -13 37 -30 16 -16 34 -30 39 -30 6 0 -11
20 -37 44 l-49 43 5 89 c3 49 6 91 6 93 1 2 16 -8 35 -23 19 -14 38 -26 42
-26 4 0 -11 15 -34 32 l-43 33 6 60 c10 110 17 155 25 160 4 3 19 -4 33 -15
39 -31 45 -23 7 9 -40 33 -37 52 3 21 40 -31 45 -23 7 10 -29 25 -33 31 -20
40 21 14 36 12 50 -5 14 -17 35 -21 24 -4 -3 6 -22 17 -41 25 -18 8 -31 19
-28 23 7 12 41 2 56 -15 6 -8 15 -14 20 -14 5 0 -5 13 -23 30 -24 22 -29 29
-16 30 9 0 20 -4 23 -10 3 -5 12 -10 18 -10 7 0 4 5 -6 11 -29 17 -9 30 25 16
20 -8 40 -28 54 -55z m-370 -97 c25 -17 49 -69 41 -88 -3 -9 -31 -16 -78 -21
-83 -7 -96 -15 -78 -44 7 -12 10 -24 7 -28 -10 -9 -89 56 -82 67 3 5 10 6 16
3 6 -4 8 1 3 15 -8 25 2 27 33 5 12 -8 22 -11 22 -5 0 6 -9 15 -20 21 -24 13
-27 35 -4 26 10 -4 14 -1 12 6 -6 18 14 35 53 46 47 14 52 14 75 -3z m759
-143 c19 -12 43 -45 67 -93 52 -102 67 -151 73 -228 18 -231 15 -286 -19 -295
-11 -4 -65 -9 -119 -12 -73 -4 -102 -2 -114 8 -9 7 -27 13 -41 13 -14 0 -27 6
-30 14 -3 10 0 12 14 7 17 -6 17 -5 -1 14 -11 12 -20 37 -20 56 -1 19 -6 39
-12 45 -12 12 -6 49 7 49 5 0 28 -15 52 -33 53 -40 68 -50 68 -43 0 3 -31 29
-70 57 -62 45 -84 69 -63 69 4 0 33 -21 65 -46 32 -25 58 -42 58 -37 -1 4 -23
26 -51 47 -27 22 -47 46 -45 53 3 7 -5 19 -16 27 -12 9 -19 18 -16 22 4 3 36
-15 72 -41 36 -26 66 -45 66 -42 0 3 -29 26 -65 52 -36 25 -65 50 -65 56 0 15
10 11 54 -22 27 -21 32 -23 14 -6 -15 14 -37 32 -49 41 -22 15 -22 18 -11 77
6 35 15 66 19 70 4 4 24 -5 43 -21 19 -16 32 -32 27 -36 -4 -4 -15 0 -25 9
-27 24 -38 21 -16 -5 19 -21 19 -21 -1 -14 -16 6 -18 5 -7 -5 19 -20 14 -31
-8 -19 -29 15 -25 4 5 -16 24 -16 27 -16 40 2 11 15 15 16 15 4 1 -8 3 -27 5
-42 4 -34 1 -35 -42 -2 -19 14 -36 24 -39 22 -7 -7 83 -68 100 -68 12 0 16 10
16 38 0 47 15 74 29 52 9 -12 11 -12 17 3 13 34 -3 50 -42 42 -23 -4 -34 -3
-30 4 4 5 -14 24 -39 41 -25 17 -45 35 -45 40 0 15 8 12 48 -16 32 -23 33 -23
10 -2 -16 13 -28 27 -28 32 0 5 12 0 28 -9 l27 -18 -19 22 c-12 13 -26 19 -38
15 -20 -6 -24 6 -7 23 9 9 22 4 53 -21 61 -49 77 -53 26 -7 -48 44 -39 54 19
20 25 -14 29 -15 12 -2 -54 40 -64 50 -57 61 11 18 67 14 101 -6z m-875 -52
c11 0 11 -3 2 -12 -8 -8 -21 -5 -51 17 -23 15 -38 31 -35 36 3 5 20 -2 38 -16
18 -14 39 -25 46 -25z m-54 -4 c10 -8 16 -17 12 -21 -7 -7 -48 16 -48 27 0 12
14 9 36 -6z m5 -55 c13 -11 21 -23 17 -26 -9 -9 -58 21 -58 35 0 15 15 12 41
-9z m169 0 c0 -9 -24 -21 -42 -21 -6 0 -6 6 2 15 14 16 40 20 40 6z m-460
-292 c0 -6 7 -9 15 -5 8 3 26 1 39 -4 28 -10 66 -101 65 -153 0 -18 -3 -26 -6
-19 -6 15 -57 42 -98 52 -16 4 -39 11 -50 15 -18 6 -18 5 -2 -5 23 -15 13 -30
-19 -30 -32 0 -66 18 -59 31 4 6 13 5 25 -1 31 -17 35 -11 9 16 l-24 26 25 -7
c22 -7 23 -6 11 9 -17 21 -7 33 14 16 8 -7 15 -8 15 -2 0 5 -7 12 -15 16 -22
8 -18 19 13 38 32 20 42 22 42 7z m863 4 c-7 -2 -21 -2 -30 0 -10 3 -4 5 12 5
17 0 24 -2 18 -5z m-958 -163 c3 -5 17 -10 30 -10 13 0 27 -5 31 -12 5 -7 10
-4 15 10 10 27 45 29 76 4 46 -36 34 -46 -51 -43 -81 3 -107 -8 -84 -36 13
-17 29 -17 26 0 -2 9 16 11 71 9 59 -3 77 0 93 15 20 18 20 17 16 -104 -2 -70
-8 -127 -14 -133 -6 -6 -50 -14 -98 -17 l-87 -6 -34 33 c-24 23 -33 41 -33 61
1 34 8 36 33 9 10 -11 23 -20 29 -20 5 0 -8 19 -30 43 -34 35 -40 47 -35 70
l6 29 32 -36 c17 -20 36 -36 41 -36 5 0 -8 17 -29 39 -32 31 -38 45 -37 75 1
38 7 43 26 24 9 -9 12 -9 12 0 0 7 -7 15 -15 18 -16 7 -21 24 -6 24 6 0 13 -4
16 -10z m1447 -105 c-2 -17 4 -100 12 -185 14 -151 21 -302 18 -387 l-2 -43
-87 0 c-123 0 -193 10 -193 26 0 8 -3 14 -7 14 -5 0 -30 21 -56 46 l-49 45 2
-38 c1 -21 1 -56 0 -78 -2 -35 -3 -37 -10 -15 -4 14 -8 50 -9 82 -1 52 -2 56
-23 50 -14 -3 -19 -2 -14 6 4 7 14 12 22 12 11 0 13 6 9 19 -3 11 -1 22 5 26
6 4 11 -7 11 -27 1 -23 3 -26 6 -10 6 29 11 28 58 -9 34 -26 33 -24 -8 15 -36
33 -44 46 -30 46 10 -1 34 -14 53 -30 19 -17 38 -30 43 -30 5 0 -14 18 -42 40
-51 40 -67 68 -33 56 10 -4 5 5 -12 19 -15 15 -26 29 -22 32 6 7 76 -38 76
-49 0 -5 6 -8 13 -8 15 1 -64 70 -80 70 -7 0 -13 5 -13 10 0 6 5 10 12 10 12
0 78 -47 90 -64 4 -6 10 -7 14 -3 4 4 5 8 3 10 -2 1 -25 19 -51 40 -25 20 -51
37 -57 37 -6 0 -11 7 -11 15 0 23 12 18 56 -19 33 -28 52 -36 101 -41 54 -7
63 -5 83 15 28 28 22 83 -15 119 l-25 25 37 38 c22 23 31 38 23 38 -8 0 -28
-14 -44 -30 -16 -17 -34 -30 -41 -30 -13 0 -45 52 -45 74 0 20 -10 20 -35 2
-11 -8 -16 -19 -12 -30 8 -20 -6 -21 -23 -1 -7 8 -19 15 -27 15 -10 0 -13 9
-11 28 2 19 8 26 20 24 12 -2 15 3 11 18 -4 16 -2 19 11 14 9 -3 16 -1 16 4 0
7 22 9 63 7 34 -3 87 -1 117 4 30 5 66 8 80 7 22 -1 25 -5 22 -31z m-1105 -67
c29 -21 42 -38 28 -38 -10 0 -75 45 -75 53 0 12 12 8 47 -15z m843 -75 c0 -7
7 -13 16 -13 11 0 14 -6 9 -21 -4 -11 -10 -41 -13 -65 -7 -41 -8 -43 -27 -31
-70 41 -85 54 -85 71 0 19 0 19 23 0 12 -11 31 -26 42 -34 11 -7 0 5 -24 27
-25 22 -40 42 -35 46 5 3 26 -10 46 -29 20 -19 40 -34 45 -34 4 0 -14 20 -42
44 -60 53 -54 72 7 26 42 -32 42 -31 -5 11 -27 24 -45 47 -42 51 10 10 85 -34
85 -49z m-860 -18 c7 -8 8 -15 2 -15 -5 0 -15 7 -22 15 -7 8 -8 15 -2 15 5 0
15 -7 22 -15z m-335 -35 c10 -11 15 -23 12 -27 -8 -7 -47 25 -47 39 0 14 16 9
35 -12z m1301 -24 c10 -43 1 -61 -31 -61 -26 0 -30 4 -33 29 -2 16 2 40 9 52
9 18 16 21 30 13 10 -5 21 -20 25 -33z m-1058 -52 c28 -78 27 -391 -1 -398
-175 -46 -197 -47 -245 -6 -42 37 -55 64 -24 53 16 -6 16 -5 1 13 -11 14 -14
34 -11 72 4 47 6 51 20 40 16 -12 16 -11 1 7 -12 15 -16 37 -14 90 4 120 1
112 33 82 15 -15 32 -27 37 -27 4 0 -8 16 -28 35 -36 35 -46 55 -28 55 5 0 14
-7 21 -15 11 -13 14 -13 24 -1 6 9 44 19 90 26 44 5 82 13 85 15 11 12 25 -3
39 -41z m494 -18 c21 -16 36 -31 34 -33 -11 -11 -96 51 -96 69 0 11 14 3 62
-36z m348 -46 c0 -5 -5 -10 -11 -10 -5 0 -7 5 -4 10 3 6 8 10 11 10 2 0 4 -4
4 -10z m0 -40 c0 -5 -4 -10 -10 -10 -5 0 -10 5 -10 10 0 6 5 10 10 10 6 0 10
-4 10 -10z m98 -208 c2 -7 -1 -12 -8 -12 -12 0 -59 50 -60 64 0 11 63 -37 68
-52z m-1198 -97 c15 -16 19 -25 10 -25 -15 0 -50 29 -50 42 0 15 16 8 40 -17z
m2380 -87 c-22 -100 -40 -152 -48 -144 -4 5 13 83 46 200 25 89 27 48 2 -56z
m-1211 -35 c54 -41 79 -70 85 -95 4 -16 4 -28 0 -28 -3 0 -28 18 -54 40 -26
22 -53 40 -59 40 -6 0 -11 5 -11 10 0 19 25 10 63 -21 21 -17 40 -29 42 -27 7
6 -77 68 -92 68 -7 0 -13 7 -13 15 0 20 11 19 39 -2z m-439 -41 c19 -16 46
-35 60 -42 14 -7 20 -15 13 -17 -12 -4 -123 67 -123 79 0 14 15 8 50 -20z
m-748 -316 c-3 -6 -7 -18 -7 -26 -1 -8 -2 -26 -4 -40 l-2 -25 -20 24 c-11 13
-22 22 -24 19 -3 -2 6 -15 20 -28 14 -13 25 -29 25 -37 0 -18 -9 -16 -28 5
-23 24 -3 -7 22 -36 13 -15 16 -26 10 -32 -7 -7 -20 0 -38 21 -27 30 -28 34
-22 108 3 42 6 86 6 99 0 23 1 23 35 -9 19 -18 31 -37 27 -43z m1188 53 c0
-10 -12 -11 -34 -3 -25 10 -19 22 9 16 14 -2 25 -8 25 -13z m180 -3 c0 -2 -11
-6 -25 -8 -14 -3 -25 -1 -25 3 0 5 11 9 25 9 14 0 25 -2 25 -4z m-217 -445 c4
-1 7 -14 7 -31 0 -24 -8 -35 -37 -53 -56 -35 -138 -72 -231 -106 l-83 -30 3
67 3 66 62 13 c34 7 93 28 130 47 50 26 77 34 103 31 19 -2 38 -4 43 -4z m-23
-110 c0 -5 -7 -27 -15 -50 -8 -22 -12 -41 -10 -41 2 0 21 11 41 25 44 30 54
31 54 6 0 -11 5 -23 10 -26 6 -4 10 7 10 24 0 33 19 41 50 21 17 -11 19 -8
-65 -75 -70 -55 -151 -136 -148 -147 5 -14 -252 -129 -260 -117 -1 2 -1 36 1
75 l4 72 31 -16 c17 -9 26 -17 19 -20 -16 -5 -15 -32 1 -32 17 0 37 20 37 37
0 7 -17 20 -37 28 -28 12 -34 18 -25 27 9 9 15 9 24 0 17 -17 33 -15 18 3 -17
20 -40 19 -57 -2 -13 -16 -13 -12 -8 32 4 28 8 51 8 52 11 10 113 41 121 35 6
-3 17 -7 25 -7 17 0 46 -79 37 -100 -9 -25 -26 -17 -42 20 -14 34 -27 41 -58
29 -25 -10 -19 -24 11 -24 l26 0 -22 -23 c-13 -15 -19 -30 -15 -40 8 -21 37
-22 53 -3 7 8 28 17 47 21 26 4 34 10 30 23 -24 90 -33 115 -44 120 -11 4 -11
6 0 13 7 5 21 9 31 9 14 0 17 -5 12 -21 -4 -12 -3 -24 2 -28 5 -3 14 -21 19
-40 11 -40 29 -51 37 -21 3 12 1 18 -5 14 -6 -4 -14 0 -19 7 -14 23 -10 57 9
69 16 10 16 10 -2 8 -34 -5 -28 20 11 46 41 27 53 31 53 17z m-495 -71 c-3 -5
-11 -10 -16 -10 -6 0 -7 5 -4 10 3 6 11 10 16 10 6 0 7 -4 4 -10z m1062 -30
c-4 -33 -17 -40 -31 -17 -7 10 -5 21 3 31 21 25 31 19 28 -14z m-765 -122 c-7
-7 -12 -8 -12 -2 0 14 12 26 19 19 2 -3 -1 -11 -7 -17z m-154 -227 c3 -30 2
-31 -17 -19 -23 14 -43 2 -21 -13 11 -8 12 -12 3 -16 -7 -2 -13 -9 -13 -14 0
-6 5 -7 10 -4 6 3 10 2 10 -4 0 -5 -9 -9 -20 -8 -15 1 -20 8 -20 29 0 33 0 33
-47 13 -19 -8 -46 -15 -59 -15 -13 0 -24 -4 -24 -10 0 -5 -5 -10 -10 -10 -6 0
-10 6 -9 13 1 6 -1 20 -6 30 -4 10 -5 20 -3 23 3 2 47 11 97 18 51 8 95 17 99
20 13 13 27 -2 30 -33z m-753 9 c19 -21 14 -50 -8 -50 -11 0 -47 48 -47 64 0
14 38 4 55 -14z m-38 -56 c7 -18 -20 -44 -44 -44 -11 0 -10 6 2 30 17 33 32
38 42 14z m713 -14 c0 -5 -4 -10 -10 -10 -5 0 -10 5 -10 10 0 6 5 10 10 10 6
0 10 -4 10 -10z m-90 -62 c0 -12 -28 -10 -35 2 -4 6 -4 19 0 28 6 16 8 15 21
-2 8 -11 14 -23 14 -28z m216 -54 c11 -44 -52 -84 -84 -52 -20 20 -14 55 14
77 31 25 60 14 70 -25z m-655 -29 c-1 -15 -24 -12 -29 3 -3 9 2 13 12 10 10
-1 17 -7 17 -13z m1594 -975 c12 -10 22 -39 13 -40 -2 0 -34 -12 -73 -26 l-70
-25 60 6 c33 3 81 11 106 17 47 11 106 1 102 -18 -2 -5 -42 -12 -90 -15 l-88
-5 83 -2 c121 -3 93 -17 -39 -20 -63 -2 -115 -5 -118 -8 -2 -2 59 -4 137 -4
83 0 142 -4 142 -9 0 -6 -24 -12 -52 -14 l-53 -3 57 -2 c61 -2 92 -21 36 -23
-35 -1 -32 -3 17 -15 l30 -7 -25 -7 -25 -8 25 -1 c14 -1 38 -8 54 -16 15 -8
34 -15 42 -15 7 0 16 -5 20 -11 5 -8 -5 -10 -32 -5 -62 10 -69 12 -82 20 -16
10 -218 52 -349 73 -70 11 -103 21 -103 30 0 13 18 19 75 27 17 2 -3 2 -42 0
-44 -2 -73 0 -73 6 0 6 5 10 11 10 21 0 133 44 122 47 -6 2 -28 -3 -48 -11
-49 -21 -58 -20 -46 3 20 36 166 90 233 86 15 -1 34 -8 43 -15z m-2039 -152
c-11 -103 -21 -144 -30 -130 -8 13 -1 110 11 160 11 45 26 22 19 -30z m2291
-18 c14 -11 30 -20 36 -20 6 0 2 9 -8 20 -23 25 -5 26 25 2 25 -20 20 -42 -8
-42 -22 0 -82 37 -82 50 0 15 9 12 37 -10z m-2207 -20 c0 -5 -10 -10 -22 -9
-22 0 -22 1 -3 9 11 5 21 9 23 9 1 1 2 -3 2 -9z m297 -11 c-36 -21 -87 -39
-87 -30 0 9 66 39 90 40 11 0 11 -2 -3 -10z m108 -8 c-3 -6 -13 -11 -21 -11
-8 0 -64 -22 -124 -50 -60 -27 -115 -50 -123 -50 -7 0 -22 -7 -33 -15 -10 -8
-25 -15 -33 -15 -8 0 -25 -10 -38 -22 -27 -25 -34 -22 -22 9 4 13 29 32 54 44
32 15 42 24 34 30 -7 4 5 5 28 2 27 -3 48 0 64 10 13 8 37 18 53 21 15 4 47
15 70 25 94 41 105 44 91 22z m1311 5 c44 -8 103 -17 133 -21 30 -3 60 -9 65
-13 6 -4 20 -7 31 -8 11 0 55 -9 98 -20 65 -16 79 -23 84 -42 4 -16 -2 -31
-17 -47 -15 -16 -24 -41 -28 -75 -2 -27 -9 -50 -14 -50 -5 0 -34 11 -64 25
-30 14 -57 25 -60 25 -8 0 -112 53 -174 89 -30 17 -88 50 -129 73 -43 24 -69
44 -60 46 8 3 18 11 22 18 10 17 17 17 113 0z m617 -27 c19 -48 14 -64 -13
-47 -13 9 -19 23 -18 50 1 49 11 48 31 -3z m-2243 -7 c0 -11 -96 -45 -111 -40
-7 2 12 14 42 25 61 25 69 26 69 15z m100 3 c0 -8 -73 -36 -78 -30 -3 2 10 11
29 19 36 16 49 19 49 11z m399 -31 l-24 -26 38 21 c51 29 56 26 21 -11 -16
-18 -19 -24 -6 -14 30 26 28 5 -3 -24 -14 -13 -23 -25 -20 -28 2 -2 16 10 31
28 20 23 33 31 51 27 12 -2 23 0 23 4 0 5 4 9 9 9 5 0 7 -10 4 -22 -4 -22 -4
-22 12 2 l16 25 -6 -35 c-4 -27 -3 -32 7 -22 7 7 15 12 18 12 4 0 8 -53 9
-117 1 -65 4 -119 6 -121 2 -2 7 28 11 67 3 39 11 71 16 71 5 0 7 -15 4 -32
-3 -18 -10 -67 -17 -109 -6 -42 -9 -83 -7 -90 2 -7 13 39 23 103 10 65 22 115
27 112 5 -3 7 -13 3 -22 -3 -8 -1 -18 5 -22 21 -13 -18 -240 -41 -240 -5 0 -4
11 1 26 16 40 13 39 -41 -18 l-51 -53 5 45 5 45 -11 -37 c-12 -44 -27 -51 -19
-10 7 40 -6 22 -17 -24 l-10 -39 2 38 c2 20 0 37 -4 37 -9 0 -19 -38 -19 -72
0 -15 -5 -30 -11 -34 -14 -8 -5 66 22 184 10 45 19 86 19 90 0 18 -46 -82 -70
-153 -22 -64 -31 -79 -45 -77 -13 3 -16 -1 -12 -12 11 -27 -7 -17 -25 14 -9
17 -25 30 -35 30 -10 0 -26 7 -36 14 -17 13 -15 18 23 91 22 43 39 79 37 82
-3 2 -26 -34 -51 -81 -26 -48 -51 -86 -57 -86 -12 0 -11 14 2 27 6 6 8 16 4
23 -5 8 -14 5 -31 -11 -24 -22 -35 -14 -12 9 8 8 8 12 1 12 -6 0 -26 -17 -44
-37 -29 -33 -69 -53 -69 -34 0 4 22 35 50 69 27 34 46 62 42 62 -4 0 -34 -32
-66 -70 -33 -39 -61 -68 -64 -65 -3 3 1 13 10 22 8 10 39 47 70 83 30 36 61
76 67 90 10 20 6 19 -18 -9 -18 -20 -36 -31 -44 -28 -15 6 -52 -28 -82 -76
-20 -31 -44 -23 -27 9 5 11 15 43 22 72 11 49 25 71 36 59 3 -3 1 -21 -4 -41
-6 -20 -7 -36 -4 -36 10 0 46 63 44 76 -3 13 269 276 277 268 3 -2 -47 -57
-109 -121 l-115 -117 134 128 c73 70 136 124 139 121 3 -3 -5 -17 -19 -31z
m-599 16 c0 -5 -7 -10 -16 -10 -8 0 -12 5 -9 10 3 6 10 10 16 10 5 0 9 -4 9
-10z m1526 -1 c5 -8 8 -8 13 0 5 8 14 5 26 -9 18 -20 18 -21 0 -14 -13 5 -16
4 -11 -4 13 -22 -10 -12 -34 13 -13 14 -18 25 -12 25 6 0 14 -5 18 -11z
m-1116 -110 c-58 -55 -109 -99 -115 -99 -5 1 25 35 69 76 43 41 76 77 74 79
-2 3 -46 -38 -98 -90 -52 -52 -99 -95 -104 -95 -5 0 1 11 14 25 16 17 19 25
10 25 -8 0 14 29 50 65 35 35 66 62 68 60 3 -2 -1 -13 -9 -22 -7 -10 3 -3 22
15 21 19 42 30 50 27 9 -3 25 5 39 20 13 14 26 22 29 19 3 -4 -41 -51 -99
-105z m1073 98 c10 9 107 -67 107 -84 0 -14 -2 -14 -19 1 -16 15 -19 15 -24 2
-4 -9 -1 -18 5 -22 7 -4 8 -3 4 4 -12 19 6 14 31 -10 13 -12 23 -28 23 -35 0
-7 25 -37 55 -65 30 -28 53 -53 50 -56 -2 -3 -13 1 -22 8 -10 8 16 -21 57 -63
41 -42 68 -77 61 -77 -14 0 -157 127 -296 264 -44 43 -90 85 -102 93 -26 17
-31 35 -8 27 8 -4 15 -1 15 5 0 6 7 8 17 4 11 -5 14 -3 8 6 -6 10 -3 11 12 2
11 -6 23 -8 26 -4z m-1523 -26 c0 -27 -15 -49 -26 -39 -7 8 8 68 17 68 5 0 9
-13 9 -29z m440 23 c0 -6 -214 -104 -226 -104 -8 0 -23 -9 -35 -21 -11 -11
-27 -18 -35 -15 -8 3 -12 2 -9 -3 3 -5 1 -12 -5 -16 -5 -3 -10 -2 -10 4 0 6
-7 8 -15 5 -8 -4 -15 -2 -15 2 0 19 280 151 320 151 16 0 30 -1 30 -3z m1343
-83 c24 -16 76 -46 116 -65 41 -20 79 -40 85 -45 6 -5 46 -23 89 -41 83 -34
187 -120 187 -154 0 -15 -7 -12 -38 16 -21 19 -53 43 -70 54 -18 10 -32 23
-32 29 0 6 -21 21 -46 33 l-45 22 6 -21 c8 -24 22 -30 -145 65 -126 71 -260
163 -260 177 0 12 100 -33 153 -70z m-1693 59 c0 -5 -5 -10 -11 -10 -5 0 -7 5
-4 10 3 6 8 10 11 10 2 0 4 -4 4 -10z m1188 -68 c54 -70 92 -112 92 -100 0 2
-22 33 -50 68 -48 64 -57 86 -23 59 17 -13 17 -13 1 7 -10 11 -18 25 -18 30 0
5 25 -18 56 -51 52 -56 53 -56 16 -9 -53 65 -46 80 30 65 49 -11 62 -19 144
-102 49 -50 131 -127 182 -172 97 -84 119 -111 102 -122 -6 -3 -14 4 -19 17
-5 13 -34 43 -64 67 -31 23 -74 63 -97 87 -22 24 -43 44 -47 44 -4 0 3 -10 14
-22 11 -13 35 -54 53 -93 18 -38 47 -96 66 -128 35 -59 41 -90 24 -117 -8 -12
-10 -11 -10 7 0 12 -4 24 -10 28 -5 3 -7 13 -4 23 4 12 3 13 -3 4 -7 -9 -18 0
-41 35 -29 45 -121 165 -137 181 -18 17 19 -40 89 -138 42 -58 76 -108 76
-112 0 -22 -22 2 -84 93 -38 55 -71 97 -74 95 -2 -3 16 -33 40 -68 70 -99 94
-146 80 -160 -8 -8 -11 -6 -10 9 2 19 -101 178 -109 169 -3 -2 7 -22 22 -44
14 -22 23 -46 20 -55 -7 -16 13 -63 22 -54 2 3 -1 15 -7 27 -6 12 -9 24 -7 27
3 3 13 -9 22 -27 13 -25 14 -35 4 -46 -6 -8 -16 -14 -22 -14 -6 0 -23 -12 -39
-27 -33 -32 -51 -23 -20 10 26 27 30 92 8 123 -21 28 -32 9 -12 -20 20 -32 20
-45 -1 -68 -21 -24 -40 -23 -53 3 -14 24 -4 40 11 19 8 -11 9 -9 4 10 l-6 25
20 -25 c26 -32 27 -20 1 30 -22 44 -35 53 -24 18 7 -23 6 -23 -15 -4 -22 20
-30 9 -9 -12 6 -6 9 -14 6 -17 -3 -4 -20 19 -38 50 -32 57 -54 72 -25 19 25
-48 57 -126 53 -130 -2 -2 -39 57 -82 132 -43 74 -81 133 -84 130 -2 -3 0 -11
5 -18 19 -24 95 -170 91 -174 -2 -2 -18 2 -35 8 -25 9 -35 9 -47 -1 -9 -7 -14
-16 -12 -20 2 -3 -7 -7 -19 -7 -21 -2 -25 5 -36 55 -6 31 -20 83 -30 115 -11
33 -19 65 -19 73 0 7 -4 13 -9 13 -5 0 0 -28 11 -62 24 -74 40 -168 40 -220
-1 -31 3 -38 19 -38 10 0 19 -4 19 -8 0 -4 -24 -8 -52 -8 -29 0 -69 -8 -88
-18 -19 -9 -27 -14 -18 -12 45 13 121 18 115 9 -12 -20 -221 -40 -232 -23 -4
6 7 10 28 10 18 0 53 10 78 22 24 12 60 25 79 29 34 6 33 7 -13 8 -30 1 -62
-6 -87 -19 -51 -26 -63 -26 -55 1 5 16 4 19 -6 14 -9 -6 -10 -3 -5 11 24 58
17 100 -18 114 -27 10 -97 -5 -108 -23 -10 -16 -20 -3 -13 16 4 8 15 17 26 20
14 4 19 14 19 39 0 25 3 29 10 18 7 -11 10 -2 10 33 0 31 4 46 11 42 7 -5 8
13 4 57 -5 49 -4 60 5 48 9 -12 11 -7 6 24 -3 21 -14 49 -26 61 -23 25 -25 35
-7 35 21 0 47 -34 63 -82 l14 -43 -5 40 c-4 22 -8 47 -11 55 -2 10 3 16 15 17
14 1 21 -7 25 -33 4 -19 11 -34 16 -34 5 0 3 19 -5 41 -19 52 -19 49 4 49 16
0 22 -12 32 -55 7 -31 16 -58 21 -61 11 -7 10 5 -7 51 -20 55 -19 76 2 50 15
-19 15 -19 8 10 -8 36 5 25 23 -18 11 -29 12 -29 7 -4 -3 15 -7 37 -11 50 -4
18 1 25 23 34 58 23 69 17 131 -65z m-338 58 c0 -5 7 -10 15 -10 17 0 18 -2 9
-24 -9 -23 -24 -20 -24 5 0 17 -4 20 -20 15 -11 -3 -29 -9 -40 -12 -30 -10
-24 11 8 23 36 14 52 15 52 3z m1376 -20 c38 0 38 -19 1 -21 -14 -1 -9 -4 13
-9 19 -4 27 -8 17 -9 -10 0 -15 -5 -12 -11 3 -5 -1 -10 -9 -10 -9 0 -16 4 -16
9 0 5 -12 12 -27 16 -21 5 -24 8 -12 16 12 7 11 9 -3 9 -10 0 -18 5 -18 11 0
6 7 8 16 5 9 -3 31 -6 50 -6z m-1976 -45 c-37 -38 -49 -43 -46 -20 2 14 67 65
75 58 3 -2 -11 -19 -29 -38z m-404 -9 c-3 -14 -11 -26 -17 -26 -6 0 -8 7 -5
16 3 9 6 25 6 37 0 16 3 18 11 10 7 -7 9 -23 5 -37z m924 14 c0 -5 -4 -10 -10
-10 -5 0 -10 5 -10 10 0 6 5 10 10 10 6 0 10 -4 10 -10z m-880 -58 c0 -48 -15
-73 -23 -40 -9 30 -9 73 -1 81 13 13 24 -5 24 -41z m290 34 c0 -8 -4 -17 -9
-21 -12 -7 -24 12 -16 25 9 15 25 12 25 -4z m2216 0 c30 -22 13 -25 -31 -5
-35 16 -37 19 -14 19 14 0 34 -6 45 -14z m-22 -27 c40 -31 31 -42 -11 -13 -48
32 -49 34 -31 34 8 0 27 -9 42 -21z m-2240 -16 c-4 -10 -9 -40 -12 -68 -4 -48
-16 -75 -33 -75 -12 0 2 112 17 138 17 26 40 30 28 5z m1491 -3 c3 -5 1 -10
-4 -10 -6 0 -11 5 -11 10 0 6 2 10 4 10 3 0 8 -4 11 -10z m-785 -92 c0 -39 -3
-68 -7 -64 -10 10 -11 136 -1 136 4 0 8 -32 8 -72z m1053 2 c42 -24 77 -50 77
-57 0 -7 9 -17 20 -23 11 -6 20 -16 20 -22 0 -7 -5 -7 -14 1 -10 8 -21 9 -33
3 -27 -13 -96 -9 -101 6 -3 11 0 12 18 2 12 -6 23 -10 26 -8 6 7 -44 56 -76
75 -17 9 -28 23 -26 29 2 6 -4 18 -15 27 -27 24 -25 43 4 25 12 -8 57 -34 100
-58z m442 60 c3 -5 -1 -10 -9 -10 -9 0 -16 5 -16 10 0 6 4 10 9 10 6 0 13 -4
16 -10z m-2394 -67 c-10 -17 -10 -17 -11 2 0 11 4 31 8 45 l7 25 3 -27 c2 -15
-1 -35 -7 -45z m2319 57 c0 -5 -15 -11 -32 -11 l-33 -1 30 -7 c19 -4 26 -9 18
-14 -18 -11 -57 2 -71 24 -11 18 -9 19 38 19 27 0 50 -4 50 -10z m-2238 -26
c-7 -12 -11 -13 -17 -4 -4 7 -2 16 6 21 18 11 23 4 11 -17z m129 -7 c-8 -8
-11 -7 -11 4 0 20 13 34 18 19 3 -7 -1 -17 -7 -23z m-185 -39 c-3 -13 -9 -40
-12 -60 -4 -21 -11 -38 -16 -38 -6 0 -7 8 -3 18 4 9 10 36 12 60 3 23 10 42
15 42 6 0 8 -10 4 -22z m2280 9 c4 -4 -4 -7 -19 -7 -14 0 -29 5 -32 10 -7 12
39 9 51 -3z m-2265 -68 l-9 -34 -1 37 c-1 20 2 45 6 55 7 16 8 16 11 -3 2 -12
-1 -37 -7 -55z m50 -14 c12 8 11 -6 -1 -25 -7 -11 -10 -11 -10 -2 0 7 -5 10
-12 6 -8 -5 -9 0 -5 17 4 13 8 35 9 49 1 15 3 10 5 -13 2 -20 8 -35 14 -32z
m2173 49 c28 -10 62 -14 82 -11 34 6 47 -6 19 -16 -29 -12 -165 20 -165 38 0
8 15 6 64 -11z m-1963 -51 c-35 -47 -83 -99 -79 -86 4 18 81 113 91 113 5 0
-1 -12 -12 -27z m2005 6 c3 -6 17 -9 31 -6 15 3 22 0 20 -7 -5 -15 -47 -20
-47 -6 0 8 -11 10 -34 6 -19 -4 -37 -2 -40 3 -6 8 12 15 51 20 6 0 15 -4 19
-10z m-2184 -44 c-2 -14 -9 -25 -14 -25 -6 0 -7 7 -4 16 3 9 6 22 6 30 0 9 4
13 9 10 4 -3 6 -17 3 -31z m58 17 c0 -4 -9 -13 -20 -20 -16 -10 -20 -10 -20 2
0 8 6 17 13 19 19 8 27 8 27 -1z m699 -54 c1 -10 -6 -18 -15 -18 -11 0 -14 5
-10 16 3 9 6 28 7 42 l1 27 8 -25 c4 -14 8 -33 9 -42z m1271 -5 c0 -18 -28
-29 -42 -15 -7 7 -6 17 2 32 9 17 14 19 26 9 8 -6 14 -18 14 -26z m58 -1 c2
-7 -2 -10 -12 -6 -9 3 -16 11 -16 16 0 13 23 5 28 -10z m-138 -2 c0 -5 -4 -10
-9 -10 -6 0 -13 5 -16 10 -3 6 1 10 9 10 9 0 16 -4 16 -10z m150 -25 c27 -15
20 -19 -17 -9 -13 4 -23 10 -23 15 0 12 11 11 40 -6z m-120 -19 c0 -2 -9 -2
-20 1 -11 3 -20 9 -20 15 0 5 9 4 20 -2 11 -6 20 -12 20 -14z m-325 -17 c-4
-10 -2 -27 4 -36 9 -15 10 -14 11 10 0 16 4 26 10 22 17 -10 12 -72 -6 -79
-23 -9 -24 -6 -31 60 -5 43 -3 55 6 50 6 -4 9 -16 6 -27z m-1260 -9 c10 -11
14 -20 8 -20 -5 0 -18 9 -28 20 -10 11 -14 20 -8 20 5 0 18 -9 28 -20z m1575
10 c12 -8 11 -10 -7 -10 -13 0 -23 5 -23 10 0 13 11 13 30 0z m135 0 c3 -5 -1
-10 -9 -10 -8 0 -18 5 -21 10 -3 6 1 10 9 10 8 0 18 -4 21 -10z m-226 -47 c2
-2 2 -6 -2 -9 -7 -7 -67 36 -67 48 0 5 15 -2 33 -14 17 -13 34 -24 36 -25z
m16 38 c3 -5 1 -12 -4 -15 -5 -3 -11 1 -15 9 -6 16 9 21 19 6z m-1091 -58 c5
9 6 24 3 32 -4 8 -3 16 1 19 10 6 15 -61 6 -75 -4 -6 -13 -4 -25 7 -17 16 -19
16 -19 1 0 -10 -4 -17 -10 -17 -5 0 -10 14 -10 31 0 16 4 28 9 25 5 -3 12 4
16 17 7 19 9 16 15 -18 5 -31 8 -36 14 -22z m-145 18 c12 -8 13 -12 1 -26 -13
-15 -34 -15 -92 1 -29 8 -21 22 15 27 57 7 62 7 76 -2z m78 -28 c-3 -10 -5 -4
-5 12 0 17 2 24 5 18 2 -7 2 -21 0 -30z m533 21 c0 -9 -68 -34 -95 -34 -43 0
-27 16 28 27 28 5 55 11 60 11 4 1 7 0 7 -4z m-955 -79 c4 -33 3 -47 -3 -40
-5 6 -13 35 -16 65 -7 68 9 46 19 -25z m25 66 c0 -5 3 -23 6 -40 4 -18 2 -31
-4 -31 -5 0 -12 18 -14 40 -2 22 0 40 4 40 5 0 8 -4 8 -9z m-130 -18 c0 -14 2
-15 9 -4 6 10 11 5 16 -18 4 -18 4 -35 1 -38 -3 -4 -6 3 -6 15 0 12 -5 22 -11
22 -8 0 -10 -17 -7 -50 6 -55 -6 -68 -16 -19 -9 48 -7 109 4 109 6 0 10 -8 10
-17z m230 12 c0 -4 -7 -19 -15 -35 -22 -42 -38 -37 -18 5 14 30 33 47 33 30z
m-267 -57 c6 -38 -7 -54 -16 -20 -3 11 -5 9 -6 -8 -1 -20 -3 -22 -11 -10 -13
20 -13 63 0 55 6 -3 10 4 10 16 0 34 16 10 23 -33z m447 32 c23 -7 22 -8 -10
-9 -19 0 -42 4 -50 9 -12 8 -10 10 10 9 14 -1 36 -5 50 -9z m-240 -22 c0 -18
-2 -20 -9 -8 -6 8 -7 18 -5 22 9 14 14 9 14 -14z m-276 -4 c10 -25 -1 -29 -14
-5 -6 12 -7 21 -1 21 5 0 12 -7 15 -16z m171 7 c3 -5 1 -12 -5 -16 -5 -3 -10
1 -10 9 0 18 6 21 15 7z m1191 -19 c-8 -9 -19 -13 -22 -9 -10 9 16 38 28 31 6
-4 4 -13 -6 -22z m-911 -8 c-22 -17 -46 -15 -53 4 -2 8 8 12 35 12 36 -1 37
-1 18 -16z m50 -4 c-3 -5 -10 -10 -16 -10 -5 0 -9 5 -9 10 0 6 7 10 16 10 8 0
12 -4 9 -10z"/>
<path d="M1550 5506 c0 -2 14 -14 30 -26 17 -12 30 -19 30 -16 0 2 -13 14 -30
26 -16 12 -30 19 -30 16z"/>
<path d="M1532 5404 c10 -10 20 -16 22 -13 3 3 -5 11 -17 18 -21 13 -21 12 -5
-5z"/>
<path d="M1535 5364 c16 -15 31 -39 32 -53 2 -14 6 -53 10 -86 l8 -60 29 77
c15 43 37 89 48 103 10 14 16 30 13 35 -11 18 -33 -8 -50 -61 -17 -51 -35 -57
-35 -11 0 20 -11 34 -43 55 l-42 29 30 -28z"/>
<path d="M1510 5345 c0 -2 10 -10 23 -16 20 -11 21 -11 8 4 -13 16 -31 23 -31
12z"/>
<path d="M1682 5338 c-7 -7 -12 -21 -12 -31 0 -16 2 -17 15 -7 22 19 26 8 10
-24 -19 -36 -21 -150 -2 -143 7 2 12 24 12 59 0 30 5 61 11 69 20 25 26 59 14
74 -15 18 -32 19 -48 3z"/>
<path d="M1526 5295 c10 -8 23 -15 28 -15 6 0 1 7 -10 15 -10 8 -23 15 -28 15
-6 0 -1 -7 10 -15z"/>
<path d="M1500 5286 c0 -2 14 -14 30 -26 17 -12 30 -19 30 -16 0 2 -13 14 -30
26 -16 12 -30 19 -30 16z"/>
<path d="M1515 5235 c17 -14 35 -25 40 -25 6 0 -3 11 -20 25 -16 13 -34 24
-40 24 -5 0 4 -11 20 -24z"/>
<path d="M1515 5156 c17 -14 35 -25 40 -25 11 0 -20 25 -50 41 -11 5 -6 -2 10
-16z"/>
<path d="M1500 5145 c0 -10 23 -31 43 -38 24 -9 21 -4 -13 21 -16 13 -30 20
-30 17z"/>
<path d="M1490 5113 c1 -10 70 -54 70 -45 0 4 -16 17 -35 30 -19 12 -35 19
-35 15z"/>
<path d="M1510 5059 c42 -34 67 -42 30 -10 -19 17 -39 30 -45 31 -5 0 1 -9 15
-21z"/>
<path d="M1505 5020 c10 -11 20 -20 23 -20 3 0 -3 9 -13 20 -10 11 -20 20 -23
20 -3 0 3 -9 13 -20z"/>
<path d="M1540 4996 c0 -2 8 -10 18 -17 15 -13 16 -12 3 4 -13 16 -21 21 -21
13z"/>
<path d="M1485 4950 c3 -5 8 -10 11 -10 2 0 4 5 4 10 0 6 -5 10 -11 10 -5 0
-7 -4 -4 -10z"/>
<path d="M2016 5275 c10 -8 24 -14 29 -14 6 0 1 6 -9 14 -11 8 -24 15 -30 15
-5 0 -1 -7 10 -15z"/>
<path d="M2000 5186 c0 -2 8 -10 18 -17 15 -13 16 -12 3 4 -13 16 -21 21 -21
13z"/>
<path d="M1920 4937 c0 -3 18 -20 40 -37 22 -17 40 -29 40 -27 0 3 -18 20 -40
37 -22 17 -40 29 -40 27z"/>
<path d="M1900 4836 c0 -9 91 -79 96 -74 3 3 -18 22 -46 42 -27 20 -50 34 -50
32z"/>
<path d="M1975 4740 c3 -5 8 -10 11 -10 2 0 4 5 4 10 0 6 -5 10 -11 10 -5 0
-7 -4 -4 -10z"/>
<path d="M1940 4732 c0 -5 7 -15 15 -22 8 -7 15 -8 15 -2 0 5 -7 15 -15 22 -8
7 -15 8 -15 2z"/>
<path d="M1990 4690 c0 -5 5 -10 11 -10 5 0 7 5 4 10 -3 6 -8 10 -11 10 -2 0
-4 -4 -4 -10z"/>
<path d="M754 4561 c20 -22 26 -25 26 -13 0 4 -10 13 -22 21 -23 14 -23 14 -4
-8z"/>
<path d="M760 4475 c13 -14 25 -23 28 -21 4 5 -35 46 -45 46 -3 0 4 -11 17
-25z"/>
<path d="M800 4446 c0 -2 7 -9 15 -16 9 -7 15 -8 15 -2 0 5 -7 12 -15 16 -8 3
-15 4 -15 2z"/>
<path d="M1930 4233 c0 -10 40 -36 46 -30 3 2 -7 12 -21 21 -14 9 -25 13 -25
9z"/>
<path d="M1880 4153 c0 -11 93 -93 105 -93 5 1 -1 10 -15 21 -14 12 -40 34
-57 50 -18 16 -33 26 -33 22z"/>
<path d="M875 4291 c-27 -5 -30 -10 -33 -51 -2 -39 0 -42 10 -26 30 44 45 59
51 49 3 -5 -1 -22 -9 -37 -18 -36 -18 -36 7 -36 11 0 18 4 15 8 -5 9 30 59 38
51 3 -2 -1 -23 -9 -44 -20 -56 -19 -61 16 -85 36 -26 52 -19 19 8 l-23 19 26
76 c14 42 21 77 15 77 -5 0 -22 -9 -36 -21 l-27 -21 -3 21 c-4 22 -7 22 -57
12z"/>
<path d="M760 4276 c0 -2 7 -9 15 -16 13 -11 14 -10 9 4 -5 14 -24 23 -24 12z"/>
<path d="M760 4235 c13 -14 26 -23 28 -20 7 7 -29 45 -41 45 -6 0 0 -11 13
-25z"/>
<path d="M757 4189 c12 -12 25 -20 28 -17 3 3 -7 13 -22 23 l-28 17 22 -23z"/>
<path d="M740 4177 c0 -2 15 -16 33 -33 l32 -29 -29 33 c-28 30 -36 37 -36 29z"/>
<path d="M780 3966 c0 -2 8 -10 18 -17 15 -13 16 -12 3 4 -13 16 -21 21 -21
13z"/>
<path d="M680 3463 c0 -5 10 -18 23 -29 l22 -19 -20 25 c-11 14 -21 27 -22 29
-2 2 -3 0 -3 -6z"/>
<path d="M2360 1280 c-20 -6 -21 -8 -5 -8 11 0 29 3 40 8 25 11 -1 11 -35 0z"/>
<path d="M2313 1233 c9 -2 23 -2 30 0 6 3 -1 5 -18 5 -16 0 -22 -2 -12 -5z"/>
<path d="M2368 1213 c12 -2 30 -2 40 0 9 3 -1 5 -23 4 -22 0 -30 -2 -17 -4z"/>
<path d="M2268 1183 c7 -3 16 -2 19 1 4 3 -2 6 -13 5 -11 0 -14 -3 -6 -6z"/>
<path d="M2338 1163 c6 -2 18 -2 25 0 6 3 1 5 -13 5 -14 0 -19 -2 -12 -5z"/>
<path d="M2488 1143 c23 -2 61 -2 85 0 23 2 4 4 -43 4 -47 0 -66 -2 -42 -4z"/>
<path d="M2277 1070 c3 -10 12 -25 21 -32 13 -11 12 -8 -2 20 -19 36 -27 41
-19 12z"/>
<path d="M2333 1030 c11 -27 24 -50 29 -50 9 0 0 25 -25 68 -27 46 -29 40 -4
-18z"/>
<path d="M2364 1055 c5 -11 13 -33 18 -50 12 -35 27 -55 39 -55 5 0 -6 26 -23
58 -33 62 -46 79 -34 47z"/>
<path d="M2444 1035 c32 -85 50 -125 54 -121 6 6 -37 117 -51 131 -7 7 -7 3
-3 -10z"/>
<path d="M2410 1031 c0 -6 4 -13 10 -16 6 -3 7 1 4 9 -7 18 -14 21 -14 7z"/>
<path d="M2490 1023 c0 -17 41 -125 46 -120 2 2 -7 33 -20 68 -14 35 -25 59
-26 52z"/>
<path d="M2520 1023 c0 -4 5 -15 10 -23 8 -13 10 -13 10 2 0 9 -4 20 -10 23
-5 3 -10 3 -10 -2z"/>
<path d="M2635 1020 c-3 -5 -1 -10 4 -10 6 0 11 5 11 10 0 6 -2 10 -4 10 -3 0
-8 -4 -11 -10z"/>
<path d="M2605 980 c4 -6 11 -8 16 -5 14 9 11 15 -7 15 -8 0 -12 -5 -9 -10z"/>
<path d="M2440 968 c0 -9 5 -20 10 -23 13 -8 13 5 0 25 -8 13 -10 13 -10 -2z"/>
<path d="M2546 960 c3 -14 11 -32 16 -40 6 -10 7 -7 2 10 -3 14 -11 32 -16 40
-6 10 -7 7 -2 -10z"/>
<path d="M2590 920 c0 -22 3 -40 8 -40 4 0 8 18 8 40 1 22 -2 40 -7 40 -5 0
-9 -18 -9 -40z"/>
<path d="M1025 958 l-60 -63 63 60 c58 55 67 65 59 65 -1 0 -29 -28 -62 -62z"/>
<path d="M1204 1003 c4 -10 4 -14 0 -10 -9 8 -34 -11 -34 -26 0 -6 7 -2 15 9
14 19 14 19 15 0 0 -20 0 -20 15 0 19 25 19 44 -1 44 -11 0 -14 -5 -10 -17z"/>
<path d="M1105 990 c-10 -11 -14 -20 -9 -20 5 0 15 9 22 20 7 11 11 20 9 20
-2 0 -12 -9 -22 -20z"/>
<path d="M1218 922 c-41 -118 -41 -120 -24 -92 16 26 60 159 54 165 -2 2 -15
-31 -30 -73z"/>
<path d="M1261 964 c0 -11 3 -14 6 -6 3 7 2 16 -1 19 -3 4 -6 -2 -5 -13z"/>
<path d="M1186 935 c-9 -26 -7 -32 5 -12 6 10 9 21 6 23 -2 3 -7 -2 -11 -11z"/>
<path d="M1039 924 c-14 -17 2 -19 19 -2 9 9 12 9 12 -1 0 -7 5 -9 10 -6 16
10 12 21 -9 22 -11 1 -25 -5 -32 -13z"/>
<path d="M1251 924 c0 -11 3 -14 6 -6 3 7 2 16 -1 19 -3 4 -6 -2 -5 -13z"/>
<path d="M1124 908 c-11 -13 -26 -32 -34 -43 -14 -19 -14 -19 3 -6 18 14 62
71 54 71 -2 0 -12 -10 -23 -22z"/>
<path d="M1156 915 c-9 -26 -7 -32 5 -12 6 10 9 21 6 23 -2 3 -7 -2 -11 -11z"/>
<path d="M1246 873 c-6 -14 -5 -15 5 -6 7 7 10 15 7 18 -3 3 -9 -2 -12 -12z"/>
<path d="M925 870 c-3 -5 -2 -10 4 -10 5 0 13 5 16 10 3 6 2 10 -4 10 -5 0
-13 -4 -16 -10z"/>
<path d="M985 870 c-3 -5 -2 -10 4 -10 5 0 13 5 16 10 3 6 2 10 -4 10 -5 0
-13 -4 -16 -10z"/>
<path d="M996 840 c-20 -22 -36 -45 -36 -51 0 -6 -22 -34 -49 -62 -54 -57 -95
-107 -88 -107 10 0 182 176 216 220 l35 45 -40 -37 c-50 -48 -69 -50 -24 -3
19 19 31 35 28 35 -3 0 -22 -18 -42 -40z"/>
<path d="M1127 849 c-8 -19 -36 -81 -61 -139 -26 -58 -42 -100 -37 -95 13 14
121 258 116 263 -2 2 -10 -11 -18 -29z"/>
<path d="M1110 748 c-30 -71 -56 -134 -58 -139 -2 -5 1 -9 7 -9 6 0 14 12 17
28 4 15 27 74 51 131 24 58 42 108 41 112 -2 4 -28 -51 -58 -123z"/>
<path d="M936 815 c-3 -8 -1 -15 3 -15 5 0 11 7 15 15 3 8 1 15 -3 15 -5 0
-11 -7 -15 -15z"/>
<path d="M1062 764 c-18 -35 -32 -68 -32 -72 1 -4 17 24 36 62 19 37 34 70 32
72 -2 2 -18 -26 -36 -62z"/>
<path d="M849 793 l-24 -26 27 19 c15 10 28 22 28 27 0 12 -5 8 -31 -20z"/>
<path d="M995 750 c-24 -38 -34 -64 -17 -44 16 17 54 84 48 84 -3 0 -17 -18
-31 -40z"/>
<path d="M1291 764 c0 -11 3 -14 6 -6 3 7 2 16 -1 19 -3 4 -6 -2 -5 -13z"/>
<path d="M1212 710 c0 -14 2 -19 5 -12 2 6 2 18 0 25 -3 6 -5 1 -5 -13z"/>
<path d="M1352 705 c0 -16 2 -22 5 -12 2 9 2 23 0 30 -3 6 -5 -1 -5 -18z"/>
<path d="M1011 662 c-6 -12 -11 -27 -11 -34 1 -7 8 0 16 15 9 16 13 31 11 34
-3 2 -10 -4 -16 -15z"/>
<path d="M1201 664 c0 -11 3 -14 6 -6 3 7 2 16 -1 19 -3 4 -6 -2 -5 -13z"/>
<path d="M1272 640 c0 -14 2 -19 5 -12 2 6 2 18 0 25 -3 6 -5 1 -5 -13z"/>
<path d="M1090 615 c-6 -15 -8 -30 -6 -33 3 -3 10 8 16 23 6 15 8 30 6 33 -3
3 -10 -8 -16 -23z"/>
<path d="M2027 1039 c12 -12 25 -20 28 -17 3 3 -7 13 -22 23 l-28 17 22 -23z"/>
<path d="M2005 995 c33 -31 69 -60 80 -66 11 -6 -11 18 -50 54 -38 36 -74 66
-80 66 -5 0 17 -24 50 -54z"/>
<path d="M1844 998 c16 -21 30 -38 33 -38 8 0 -16 36 -38 55 -19 16 -18 13 5
-17z"/>
<path d="M1667 1013 c-17 -4 -16 -8 8 -33 19 -20 26 -35 22 -50 -7 -27 15 -92
40 -118 10 -10 24 -27 31 -38 22 -33 -8 26 -35 69 -13 20 -19 37 -14 37 5 0
20 -17 32 -37 49 -82 92 -144 96 -139 3 2 -4 17 -15 33 -33 47 -102 154 -102
159 0 17 21 -5 54 -56 21 -33 40 -60 43 -60 5 0 -1 12 -50 84 -40 59 -55 106
-34 106 6 0 0 11 -13 25 -24 25 -29 27 -63 18z"/>
<path d="M1938 922 c29 -35 52 -68 52 -73 0 -5 5 -9 10 -9 19 0 -17 54 -66
100 l-48 45 52 -63z"/>
<path d="M1502 930 c0 -14 2 -19 5 -12 2 6 2 18 0 25 -3 6 -5 1 -5 -13z"/>
<path d="M1740 941 c0 -5 7 -15 17 -22 15 -13 15 -12 4 9 -12 23 -21 28 -21
13z"/>
<path d="M1980 930 c11 -21 50 -46 50 -32 0 10 -43 52 -53 52 -4 0 -3 -9 3
-20z"/>
<path d="M1632 910 c0 -8 4 -26 8 -40 6 -20 8 -21 8 -5 0 11 -3 29 -8 40 -5
12 -8 14 -8 5z"/>
<path d="M1610 881 c0 -6 4 -13 10 -16 6 -3 7 1 4 9 -7 18 -14 21 -14 7z"/>
<path d="M1526 825 c3 -22 10 -44 14 -49 5 -5 5 8 -1 30 -15 57 -20 64 -13 19z"/>
<path d="M1860 856 c0 -2 8 -10 18 -17 15 -13 16 -12 3 4 -13 16 -21 21 -21
13z"/>
<path d="M1899 845 c16 -31 49 -70 54 -65 3 3 -11 23 -30 45 -19 22 -30 31
-24 20z"/>
<path d="M1551 834 c0 -11 3 -14 6 -6 3 7 2 16 -1 19 -3 4 -6 -2 -5 -13z"/>
<path d="M1816 837 c3 -10 9 -15 12 -12 3 3 0 11 -7 18 -10 9 -11 8 -5 -6z"/>
<path d="M1502 820 c0 -14 2 -19 5 -12 2 6 2 18 0 25 -3 6 -5 1 -5 -13z"/>
<path d="M1950 825 c0 -4 9 -18 20 -32 11 -14 20 -22 20 -18 0 4 -9 18 -20 32
-11 14 -20 22 -20 18z"/>
<path d="M2037 792 c133 -180 157 -211 161 -207 6 5 -26 51 -111 158 -68 87
-104 122 -50 49z"/>
<path d="M1464 783 c3 -21 8 -62 12 -90 3 -29 10 -53 16 -53 5 0 7 8 4 18 -2
9 -10 50 -16 90 -7 39 -14 72 -17 72 -3 0 -2 -17 1 -37z"/>
<path d="M1860 816 c0 -2 8 -10 18 -17 15 -13 16 -12 3 4 -13 16 -21 21 -21
13z"/>
<path d="M1561 794 c0 -11 3 -14 6 -6 3 7 2 16 -1 19 -3 4 -6 -2 -5 -13z"/>
<path d="M1511 774 c0 -11 3 -14 6 -6 3 7 2 16 -1 19 -3 4 -6 -2 -5 -13z"/>
<path d="M1910 786 c0 -2 8 -10 18 -17 15 -13 16 -12 3 4 -13 16 -21 21 -21
13z"/>
<path d="M1614 755 c4 -11 10 -35 13 -53 3 -18 9 -35 13 -37 11 -7 -10 88 -23
100 -7 7 -8 4 -3 -10z"/>
<path d="M1721 754 c0 -11 3 -14 6 -6 3 7 2 16 -1 19 -3 4 -6 -2 -5 -13z"/>
<path d="M1850 743 c0 -6 8 -17 18 -24 16 -13 16 -13 2 6 -8 11 -16 22 -17 24
-2 2 -3 0 -3 -6z"/>
<path d="M1890 730 c6 -11 13 -20 16 -20 2 0 0 9 -6 20 -6 11 -13 20 -16 20
-2 0 0 -9 6 -20z"/>
<path d="M1910 746 c0 -2 8 -10 18 -17 15 -13 16 -12 3 4 -13 16 -21 21 -21
13z"/>
<path d="M1940 746 c0 -2 8 -10 18 -17 15 -13 16 -12 3 4 -13 16 -21 21 -21
13z"/>
<path d="M1552 720 c0 -14 2 -19 5 -12 2 6 2 18 0 25 -3 6 -5 1 -5 -13z"/>
<path d="M1760 737 c0 -14 69 -145 80 -152 6 -4 0 16 -15 44 -32 64 -65 119
-65 108z"/>
<path d="M1726 705 c-4 -15 -5 -30 -1 -33 3 -3 5 3 6 14 0 18 1 18 9 -1 l9
-20 0 20 c0 11 -3 26 -8 33 -6 10 -10 7 -15 -13z"/>
<path d="M1601 704 c0 -11 3 -14 6 -6 3 7 2 16 -1 19 -3 4 -6 -2 -5 -13z"/>
<path d="M1656 700 c3 -14 10 -29 15 -34 14 -16 10 6 -7 34 l-15 25 7 -25z"/>
<path d="M1531 694 c0 -11 3 -14 6 -6 3 7 2 16 -1 19 -3 4 -6 -2 -5 -13z"/>
<path d="M1448 694 c-12 -11 -10 -52 3 -59 14 -10 16 -5 9 33 -3 19 -8 30 -12
26z"/>
<path d="M1515 660 c12 -97 28 -170 37 -170 5 0 7 8 4 18 -3 9 -12 53 -21 97
-19 94 -27 118 -20 55z"/>
<path d="M1561 681 c0 -7 4 -43 11 -79 9 -49 17 -66 31 -70 10 -3 16 -10 13
-18 -3 -8 0 -14 5 -14 7 0 9 9 5 23 -3 12 -6 28 -6 36 0 10 -3 11 -14 2 -11
-9 -16 2 -29 61 -8 40 -15 67 -16 59z"/>
<path d="M1929 662 c5 -10 18 -25 27 -33 16 -12 16 -10 -1 19 -20 33 -43 46
-26 14z"/>
<path d="M1960 676 c0 -17 34 -56 49 -56 9 0 23 -6 30 -12 11 -11 12 -9 3 7
-6 11 -18 29 -26 40 l-16 20 7 -20 c6 -18 4 -18 -20 4 -15 14 -27 21 -27 17z"/>
<path d="M1910 642 c0 -5 7 -15 15 -22 8 -7 15 -8 15 -2 0 5 -7 15 -15 22 -8
7 -15 8 -15 2z"/>
<path d="M1781 630 c-1 -18 16 -46 23 -40 2 3 -2 16 -9 30 -8 15 -14 19 -14
10z"/>
<path d="M1741 604 c0 -11 3 -14 6 -6 3 7 2 16 -1 19 -3 4 -6 -2 -5 -13z"/>
<path d="M1601 594 c0 -11 3 -14 6 -6 3 7 2 16 -1 19 -3 4 -6 -2 -5 -13z"/>
<path d="M1655 570 c11 -52 27 -73 19 -25 -4 22 -11 45 -16 50 -7 7 -8 -2 -3
-25z"/>
<path d="M1686 570 c11 -58 25 -80 18 -30 -3 25 -10 49 -15 55 -6 6 -7 -4 -3
-25z"/>
<path d="M1632 570 c0 -14 2 -19 5 -12 2 6 2 18 0 25 -3 6 -5 1 -5 -13z"/>
<path d="M1641 524 c0 -11 3 -14 6 -6 3 7 2 16 -1 19 -3 4 -6 -2 -5 -13z"/>
<path d="M2430 793 c0 -1 8 -7 18 -12 13 -7 19 -6 19 2 0 7 -9 13 -19 13 -10
0 -18 -1 -18 -3z"/>
<path d="M2488 757 c7 -7 8 -18 4 -22 -4 -5 -2 -5 5 -2 6 4 13 2 15 -4 2 -6
13 -10 23 -8 16 4 12 9 -19 27 -22 13 -34 17 -28 9z"/>
<path d="M1159 5011 c13 -12 28 -21 35 -21 12 0 -5 14 -39 31 -16 8 -15 6 4
-10z"/>
<path d="M1166 4903 c-6 -14 -5 -15 5 -6 7 7 10 15 7 18 -3 3 -9 -2 -12 -12z"/>
<path d="M1150 4864 c0 -2 9 -8 20 -14 11 -6 20 -7 20 -2 0 6 -9 12 -20 15
-11 3 -20 3 -20 1z"/>
<path d="M1150 4766 c0 -3 9 -10 20 -16 11 -6 20 -8 20 -6 0 3 -9 10 -20 16
-11 6 -20 8 -20 6z"/>
<path d="M1154 4726 c11 -9 24 -16 30 -16 12 0 7 5 -24 19 -24 11 -24 11 -6
-3z"/>
<path d="M1127 4679 c7 -7 15 -10 18 -7 3 3 -2 9 -12 12 -14 6 -15 5 -6 -5z"/>
<path d="M1160 4656 c0 -2 7 -7 16 -10 8 -3 12 -2 9 4 -6 10 -25 14 -25 6z"/>
<path d="M1157 4629 c7 -7 15 -10 18 -7 3 3 -2 9 -12 12 -14 6 -15 5 -6 -5z"/>
<path d="M1237 4463 c-12 -12 -7 -70 7 -82 25 -21 85 12 86 47 0 20 -17 14
-23 -8 -3 -11 -14 -20 -24 -20 -16 0 -18 6 -15 35 3 26 0 35 -10 35 -8 0 -18
-3 -21 -7z"/>
<path d="M1460 4445 c0 -2 10 -10 23 -16 20 -11 21 -11 8 4 -13 16 -31 23 -31
12z"/>
<path d="M1471 4397 c2 -1 15 -11 29 -22 l25 -20 -19 23 c-11 12 -24 22 -29
22 -6 0 -8 -1 -6 -3z"/>
<path d="M1080 4366 c0 -7 81 -59 85 -54 3 3 -13 17 -35 32 -38 25 -50 30 -50
22z"/>
<path d="M1074 4285 c8 -8 18 -15 22 -15 3 0 1 7 -6 15 -7 8 -17 15 -22 15 -5
0 -3 -7 6 -15z"/>
<path d="M1110 4266 c0 -2 8 -10 18 -17 15 -13 16 -12 3 4 -13 16 -21 21 -21
13z"/>
<path d="M1096 4232 c16 -16 41 -33 55 -36 l24 -7 -24 19 c-14 11 -38 28 -55
37 l-31 17 31 -30z"/>
<path d="M1090 4161 c0 -5 7 -12 16 -15 14 -5 15 -4 4 9 -14 17 -20 19 -20 6z"/>
<path d="M1608 4078 c6 -6 18 -8 28 -6 14 3 12 5 -9 10 -19 3 -25 2 -19 -4z"/>
<path d="M1465 4040 c3 -5 8 -10 11 -10 2 0 4 5 4 10 0 6 -5 10 -11 10 -5 0
-7 -4 -4 -10z"/>
<path d="M1499 4017 c14 -18 51 -42 51 -33 0 3 -15 15 -32 27 -24 17 -29 18
-19 6z"/>
<path d="M2980 4006 c0 -2 8 -10 18 -17 15 -13 16 -12 3 4 -13 16 -21 21 -21
13z"/>
<path d="M2950 3993 c0 -5 13 -17 27 -27 l27 -20 -20 27 c-18 26 -34 35 -34
20z"/>
<path d="M1957 3949 c12 -12 25 -20 28 -17 3 3 -7 13 -22 23 l-28 17 22 -23z"/>
<path d="M2910 3952 c0 -5 15 -19 33 -32 l32 -23 -29 31 c-31 34 -36 37 -36
24z"/>
<path d="M2945 3950 c3 -5 8 -10 11 -10 2 0 4 5 4 10 0 6 -5 10 -11 10 -5 0
-7 -4 -4 -10z"/>
<path d="M1470 3916 c0 -2 8 -10 18 -17 15 -13 16 -12 3 4 -13 16 -21 21 -21
13z"/>
<path d="M2900 3918 c0 -11 59 -72 64 -67 3 3 -10 21 -29 39 -19 19 -35 31
-35 28z"/>
<path d="M2870 3907 c0 -3 11 -18 25 -33 14 -15 25 -23 25 -17 0 5 -11 20 -25
33 -14 13 -25 21 -25 17z"/>
<path d="M805 3860 c10 -11 20 -20 23 -20 3 0 -3 9 -13 20 -10 11 -20 20 -23
20 -3 0 3 -9 13 -20z"/>
<path d="M720 3862 c0 -4 19 -26 42 -47 l41 -40 -38 48 c-40 49 -45 53 -45 39z"/>
<path d="M2875 3850 c10 -11 20 -20 23 -20 3 0 -3 9 -13 20 -10 11 -20 20 -23
20 -3 0 3 -9 13 -20z"/>
<path d="M1197 3843 c-4 -3 -7 -11 -7 -17 0 -6 5 -5 12 2 6 6 9 14 7 17 -3 3
-9 2 -12 -2z"/>
<path d="M2849 3833 c12 -23 29 -38 37 -31 2 3 -8 15 -22 29 -25 23 -26 23
-15 2z"/>
<path d="M879 3796 c-57 -74 -64 -75 -115 -19 -24 26 -43 43 -44 38 0 -6 25
-35 56 -65 30 -30 52 -48 49 -39 -4 11 1 18 16 22 31 8 33 5 15 -36 -11 -27
-23 -38 -48 -45 -31 -8 -32 -9 -10 -16 19 -6 22 -13 17 -33 -5 -20 -2 -24 12
-21 10 2 18 12 18 23 0 17 7 20 48 18 26 -1 47 3 47 8 0 5 -18 9 -40 9 -45 0
-46 3 -25 54 17 40 31 45 52 19 13 -16 14 -12 8 32 -4 28 -7 58 -7 67 1 33
-16 28 -49 -16z"/>
<path d="M2098 3823 c-27 -4 -27 -5 -12 -29 12 -17 15 -38 12 -69 l-6 -45 40
0 c24 0 37 4 33 10 -3 6 -12 10 -19 10 -26 0 -35 80 -11 100 8 7 15 16 15 21
0 9 -4 9 -52 2z"/>
<path d="M1082 3804 c9 -10 32 -28 50 -38 39 -22 29 -11 -27 29 -23 17 -33 21
-23 9z"/>
<path d="M2920 3795 c13 -14 26 -25 28 -25 3 0 -5 11 -18 25 -13 14 -26 25
-28 25 -3 0 5 -11 18 -25z"/>
<path d="M2836 3803 c6 -4 14 -18 18 -30 4 -13 14 -23 22 -23 8 0 14 -6 14
-13 0 -7 8 -19 18 -28 44 -38 42 -28 -8 32 -29 35 -58 65 -64 67 -8 3 -8 1 0
-5z"/>
<path d="M2896 3776 c3 -8 13 -17 22 -21 13 -5 13 -2 -3 15 -21 24 -26 25 -19
6z"/>
<path d="M711 3739 c0 -8 17 -27 37 -43 l37 -30 -35 39 c-19 22 -36 42 -37 44
-2 2 -3 -2 -2 -10z"/>
<path d="M2831 3708 c18 -27 34 -48 36 -48 7 0 -16 35 -42 65 -20 23 -19 18 6
-17z"/>
<path d="M2855 3720 c3 -5 8 -10 11 -10 2 0 4 5 4 10 0 6 -5 10 -11 10 -5 0
-7 -4 -4 -10z"/>
<path d="M1100 3675 c19 -19 36 -35 39 -35 3 0 -10 16 -29 35 -19 19 -36 35
-39 35 -3 0 10 -16 29 -35z"/>
<path d="M1116 3696 c3 -8 13 -17 21 -20 25 -10 23 -3 -3 17 -18 13 -22 14
-18 3z"/>
<path d="M2882 3688 c2 -6 15 -18 29 -27 l24 -15 -24 27 c-26 29 -35 34 -29
15z"/>
<path d="M730 3676 c0 -11 30 -39 36 -34 2 3 -5 13 -16 23 -11 10 -20 15 -20
11z"/>
<path d="M1075 3660 c27 -29 75 -64 75 -53 0 5 -21 24 -47 42 -33 24 -42 27
-28 11z"/>
<path d="M2780 3671 c0 -7 16 -29 36 -49 l37 -37 -34 45 c-18 25 -34 47 -36
49 -2 2 -3 -1 -3 -8z"/>
<path d="M1771 3640 c-30 -26 -14 -26 19 0 14 11 21 20 15 19 -5 0 -21 -9 -34
-19z"/>
<path d="M1880 3656 c0 -2 19 -15 43 -30 l42 -27 -35 30 c-32 27 -50 38 -50
27z"/>
<path d="M2880 3647 c0 -9 51 -59 56 -54 2 2 -10 16 -26 32 -17 16 -30 26 -30
22z"/>
<path d="M1210 3630 c0 -14 78 -50 105 -49 11 1 5 5 -15 11 -43 12 -62 28 -34
29 15 1 14 3 -6 9 -36 12 -50 11 -50 0z"/>
<path d="M1070 3622 c0 -11 59 -57 64 -51 2 2 -12 17 -31 32 -18 16 -33 24
-33 19z"/>
<path d="M1880 3623 c0 -4 16 -18 35 -31 45 -29 45 -22 0 12 -19 15 -35 23
-35 19z"/>
<path d="M2776 3617 c3 -10 9 -15 12 -12 3 3 0 11 -7 18 -10 9 -11 8 -5 -6z"/>
<path d="M1340 3590 c0 -10 8 -24 19 -29 16 -9 20 -7 23 14 6 29 1 35 -24 35
-11 0 -18 -7 -18 -20z"/>
<path d="M1670 3600 c-21 -7 -21 -8 -5 -9 11 0 27 4 35 9 18 11 5 11 -30 0z"/>
<path d="M2879 3593 c5 -10 22 -29 37 -43 24 -22 23 -20 -6 18 -35 44 -47 54
-31 25z"/>
<path d="M1608 3583 c6 -2 18 -2 25 0 6 3 1 5 -13 5 -14 0 -19 -2 -12 -5z"/>
<path d="M1700 3574 c-25 -7 -55 -13 -67 -13 -13 -1 -23 -6 -23 -12 0 -7 7 -8
18 -4 9 3 39 11 65 16 48 9 98 29 67 27 -8 0 -35 -6 -60 -14z"/>
<path d="M2830 3548 c38 -56 84 -109 71 -83 -5 11 -19 29 -30 39 -12 11 -21
24 -21 30 -1 12 -35 56 -44 56 -3 0 8 -19 24 -42z"/>
<path d="M1455 3570 c3 -5 16 -15 28 -21 22 -12 22 -12 3 10 -19 21 -43 30
-31 11z"/>
<path d="M2772 3575 c5 -17 93 -134 100 -134 5 -1 -8 20 -27 47 -45 61 -77
100 -73 87z"/>
<path d="M2869 3553 c40 -53 48 -63 56 -63 5 0 -1 10 -12 23 -11 12 -26 32
-32 45 -6 12 -16 22 -22 22 -6 0 -1 -12 10 -27z"/>
<path d="M1170 3518 c-11 -18 -20 -50 -20 -71 0 -31 5 -40 33 -57 36 -22 99
-26 114 -7 23 28 32 77 21 110 -14 44 -34 57 -85 57 -38 0 -46 -4 -63 -32z
m115 -12 c24 -32 25 -37 13 -63 -18 -37 -61 -43 -94 -12 -28 26 -31 65 -7 91
26 28 59 22 88 -16z"/>
<path d="M1227 3493 c-14 -13 -6 -33 13 -33 22 0 23 1 14 24 -7 17 -16 20 -27
9z"/>
<path d="M900 3481 c0 -17 -6 -31 -16 -35 -21 -8 -34 1 -34 25 0 10 -5 19 -11
19 -7 0 -9 -11 -6 -27 3 -17 0 -36 -9 -47 -22 -30 -17 -63 12 -82 19 -13 24
-24 22 -48 -3 -27 -7 -31 -35 -34 -18 -2 -33 -8 -33 -13 0 -6 12 -9 28 -7 26
3 27 1 24 -34 -2 -31 0 -37 13 -32 9 4 15 18 15 35 0 27 8 34 38 30 6 -1 12 3
12 9 0 5 -9 10 -20 10 -16 0 -20 7 -20 33 0 25 6 36 30 49 32 18 38 43 16 73
-8 12 -11 34 -8 62 3 28 1 43 -7 43 -6 0 -11 -13 -11 -29z m-30 -101 c0 -16
-5 -30 -10 -30 -14 0 -24 26 -16 45 10 26 26 16 26 -15z m37 -27 c-16 -16 -17
-15 -17 17 0 32 1 33 17 17 16 -16 16 -18 0 -34z"/>
<path d="M1070 3472 c0 -4 10 -13 23 -21 22 -14 22 -14 3 8 -20 22 -26 25 -26
13z"/>
<path d="M1990 3401 c0 -5 5 -13 10 -16 6 -3 10 -2 10 4 0 5 -4 13 -10 16 -5
3 -10 2 -10 -4z"/>
<path d="M2910 3400 c25 -8 97 -13 89 -6 -2 2 -29 6 -59 9 -36 4 -46 3 -30 -3z"/>
<path d="M3010 3379 c0 -8 -18 -10 -57 -6 -56 5 -57 5 -16 -5 33 -8 54 -7 95
5 53 15 53 15 16 16 -22 1 -38 -4 -38 -10z"/>
<path d="M2935 3320 c10 -11 20 -20 23 -20 3 0 -3 9 -13 20 -10 11 -20 20 -23
20 -3 0 3 -9 13 -20z"/>
<path d="M1084 3252 c-46 -37 -34 -102 19 -102 19 0 19 1 4 18 -20 22 -22 43
-5 60 19 19 44 14 56 -10 8 -17 11 -19 11 -6 1 15 -43 58 -58 58 -3 0 -16 -8
-27 -18z"/>
<path d="M1772 3238 c-43 -27 -42 -48 4 -48 24 0 34 -4 31 -12 -2 -7 -14 -12
-26 -11 -11 2 -21 -2 -21 -7 0 -22 -22 -8 -31 20 -6 17 -15 30 -21 30 -6 0 -7
-7 -4 -16 24 -61 10 -93 -14 -34 -7 17 -19 30 -27 30 -11 0 -10 -8 8 -37 12
-21 25 -41 29 -46 14 -16 150 60 150 84 0 5 -18 9 -40 9 -48 0 -52 14 -9 26
26 8 29 11 18 21 -12 9 -21 7 -47 -9z"/>
<path d="M2670 3215 c0 -8 6 -18 14 -21 7 -3 22 -21 32 -40 10 -19 22 -34 26
-34 5 0 8 -6 8 -14 0 -8 7 -17 16 -20 17 -7 18 -8 -38 76 -42 62 -58 78 -58
53z"/>
<path d="M1196 3177 c3 -9 -1 -26 -10 -39 -21 -30 -20 -38 6 -38 12 0 18 3 15
6 -10 10 12 44 28 44 20 0 19 -19 -2 -42 -15 -16 -15 -21 -3 -28 11 -7 19 1
33 37 10 25 14 50 10 54 -4 4 -25 11 -46 14 -31 6 -36 5 -31 -8z"/>
<path d="M1362 3184 c2 -5 19 -42 38 -81 19 -40 37 -73 41 -73 4 0 15 26 24
58 9 31 26 65 38 74 22 17 22 18 -17 18 -29 0 -36 -3 -29 -12 11 -14 -3 -98
-16 -98 -15 0 -31 72 -20 92 7 13 6 18 -3 18 -7 0 -24 3 -37 7 -13 3 -22 2
-19 -3z"/>
<path d="M2799 3172 c5 -10 18 -25 28 -33 12 -10 11 -5 -6 19 -24 35 -38 43
-22 14z"/>
<path d="M2660 3176 c0 -9 100 -156 106 -156 6 0 0 10 -64 108 -32 48 -42 59
-42 48z"/>
<path d="M1322 3148 c-7 -7 -12 -20 -12 -31 0 -10 -7 -25 -15 -34 -17 -16 -16
-34 2 -40 7 -3 9 4 6 15 -2 11 1 23 7 27 17 10 31 -16 18 -32 -7 -8 -7 -13 0
-13 16 0 35 29 29 45 -4 8 -2 17 3 20 16 10 12 42 -6 49 -20 8 -18 8 -32 -6z
m38 -18 c0 -5 -7 -10 -15 -10 -8 0 -15 5 -15 10 0 6 7 10 15 10 8 0 15 -4 15
-10z"/>
<path d="M856 3141 c-4 -5 3 -12 14 -16 23 -7 21 -21 -11 -89 -22 -46 -24 -69
-6 -64 6 3 16 21 21 41 11 45 26 48 26 7 0 -36 3 -36 42 -9 16 12 32 19 35 15
10 -10 -19 -68 -38 -75 -15 -5 -12 -8 15 -17 27 -8 33 -8 29 3 -3 7 1 33 8 58
10 32 19 45 32 45 10 0 15 5 12 10 -10 16 -48 11 -75 -10 -36 -28 -40 -25 -40
24 0 38 -4 48 -29 66 -17 11 -32 16 -35 11z"/>
<path d="M2630 3094 c0 -13 102 -165 108 -159 3 3 -2 13 -10 22 -9 10 -28 41
-43 70 -25 49 -55 85 -55 67z"/>
<path d="M2780 3066 c0 -4 7 -14 15 -22 8 -9 15 -11 15 -6 0 5 -7 15 -15 22
-8 7 -15 9 -15 6z"/>
<path d="M2620 3047 c0 -9 5 -17 10 -17 6 0 10 -6 10 -13 0 -16 52 -97 62 -97
5 0 -5 19 -22 42 -16 22 -30 46 -30 52 0 6 -7 20 -15 30 -13 17 -15 18 -15 3z"/>
<path d="M660 3046 c0 -2 8 -10 18 -17 15 -13 16 -12 3 4 -13 16 -21 21 -21
13z"/>
<path d="M2600 3030 c0 -15 88 -160 97 -160 3 0 -3 12 -13 28 -10 15 -31 52
-47 82 -34 64 -37 68 -37 50z"/>
<path d="M650 3021 c0 -5 5 -13 10 -16 6 -3 10 -2 10 4 0 5 -4 13 -10 16 -5 3
-10 2 -10 -4z"/>
<path d="M1035 2984 c-21 -22 -16 -68 9 -72 10 -2 23 1 29 7 9 9 5 11 -12 9
-13 -2 -26 3 -29 11 -3 10 1 12 16 9 12 -4 26 0 33 8 6 8 15 11 20 8 15 -9 10
-46 -8 -66 -15 -17 -15 -18 9 -18 21 0 27 6 32 35 10 53 34 45 39 -12 l3 -48
2 56 2 56 -47 6 c-26 3 -49 10 -51 16 -5 16 -28 13 -47 -5z m40 -14 c-3 -5
-10 -10 -16 -10 -5 0 -9 5 -9 10 0 6 7 10 16 10 8 0 12 -4 9 -10z"/>
<path d="M2552 2963 c8 -10 35 -55 59 -101 24 -45 45 -78 47 -73 2 5 -8 29
-22 53 -14 24 -37 64 -52 91 -15 26 -32 47 -37 47 -6 0 -3 -8 5 -17z"/>
<path d="M810 2963 c0 -8 29 -26 109 -70 114 -62 415 -101 541 -70 52 13 46
13 -96 9 -120 -4 -168 -1 -230 13 -91 20 -188 57 -257 97 -49 28 -67 34 -67
21z"/>
<path d="M2610 2935 c29 -50 40 -63 34 -39 -3 10 -17 33 -31 49 l-25 30 22
-40z"/>
<path d="M1237 2953 c-11 -11 -8 -41 5 -45 13 -5 55 28 47 36 -10 9 -46 16
-52 9z"/>
<path d="M2531 2944 c-1 -12 88 -184 94 -184 6 0 -51 118 -63 133 -6 7 -16 24
-21 38 -5 13 -10 19 -10 13z"/>
<path d="M630 2905 c0 -6 29 -35 55 -55 11 -8 4 3 -14 23 -35 37 -41 42 -41
32z"/>
<path d="M1256 2891 c-3 -5 -16 -7 -27 -4 -16 4 -20 2 -17 -8 2 -8 19 -15 36
-17 27 -3 32 0 32 17 0 21 -14 28 -24 12z"/>
<path d="M2650 2868 c0 -15 34 -70 38 -60 2 6 -6 24 -17 38 -12 15 -21 25 -21
22z"/>
<path d="M2515 2823 c9 -21 23 -45 31 -53 9 -9 5 7 -10 38 -30 60 -44 70 -21
15z"/>
<path d="M2464 2828 c3 -13 5 -27 6 -33 0 -5 5 -3 10 7 11 17 4 48 -11 48 -5
0 -7 -10 -5 -22z"/>
<path d="M650 2795 c19 -19 36 -35 39 -35 3 0 -10 16 -29 35 -19 19 -36 35
-39 35 -3 0 10 -16 29 -35z"/>
<path d="M2192 2814 c-12 -8 -22 -25 -22 -37 l0 -21 16 22 c8 12 24 22 35 22
12 0 19 5 17 12 -7 19 -22 19 -46 2z"/>
<path d="M2490 2801 c0 -5 5 -13 10 -16 6 -3 10 -2 10 4 0 5 -4 13 -10 16 -5
3 -10 2 -10 -4z"/>
<path d="M1070 2780 c-8 -5 -42 -6 -77 -3 -53 5 -64 3 -69 -11 -10 -25 0 -29
45 -15 48 14 56 10 40 -23 -9 -20 -8 -32 5 -56 9 -17 16 -33 16 -36 0 -3 -18
-9 -40 -12 -22 -4 -40 -10 -40 -15 0 -11 2 -11 55 2 32 8 48 8 65 -1 29 -16
39 -3 13 15 -19 13 -20 19 -12 51 6 19 8 48 4 63 -5 23 -1 29 22 38 22 9 24
11 8 12 -11 0 -27 -3 -35 -9z m-16 -58 c-1 -7 -2 -27 -3 -44 -2 -31 -2 -32
-16 -14 -16 21 -20 58 -8 70 10 9 28 1 27 -12z"/>
<path d="M620 2777 c0 -2 14 -16 30 -32 36 -34 40 -27 6 9 -20 23 -36 32 -36
23z"/>
<path d="M1267 2730 c-11 -27 -23 -50 -26 -50 -4 0 -15 17 -26 37 -17 33 -25
38 -60 41 l-39 3 22 -24 c24 -25 28 -66 11 -99 -9 -17 -8 -19 8 -16 10 2 22
17 28 36 5 17 12 32 15 32 10 0 30 -48 31 -73 0 -13 9 0 22 33 14 38 22 49 24
35 12 -67 8 -64 81 -62 66 2 67 2 70 31 5 39 -16 76 -43 76 -30 0 -45 -19 -45
-57 0 -44 -27 -45 -35 0 -7 35 8 87 25 87 5 0 10 5 10 10 0 6 -12 10 -26 10
-21 0 -29 -8 -47 -50z m140 -36 c7 -18 -6 -45 -25 -52 -14 -4 -35 35 -28 54 7
19 45 18 53 -2z"/>
<path d="M2213 2758 c-34 -17 -28 -24 17 -20 42 4 58 -15 21 -25 -21 -5 -18
-33 3 -33 19 1 48 49 41 70 -7 22 -45 26 -82 8z"/>
<path d="M2460 2765 c0 -5 5 -17 10 -25 5 -8 10 -10 10 -5 0 6 -5 17 -10 25
-5 8 -10 11 -10 5z"/>
<path d="M2490 2755 c0 -5 5 -17 10 -25 5 -8 10 -10 10 -5 0 6 -5 17 -10 25
-5 8 -10 11 -10 5z"/>
<path d="M2520 2752 c0 -16 30 -75 36 -70 2 3 -5 22 -16 43 -11 22 -20 34 -20
27z"/>
<path d="M2081 2737 c-17 -17 -13 -31 14 -57 23 -22 25 -40 4 -40 -6 0 -21 12
-34 26 -23 25 -24 25 -35 5 -9 -18 -8 -21 8 -21 27 0 42 -22 35 -50 -4 -16 -3
-21 5 -16 7 4 12 13 12 20 0 7 18 28 40 46 22 18 40 41 40 50 0 26 -70 56 -89
37z m47 -19 c16 -16 15 -38 -2 -38 -18 0 -39 27 -31 40 8 13 18 13 33 -2z"/>
<path d="M2484 2707 c3 -10 6 -20 6 -23 0 -2 6 -1 14 2 8 3 16 -4 19 -17 4
-13 9 -21 12 -17 9 9 -17 58 -28 51 -5 -3 -14 1 -19 8 -8 11 -8 10 -4 -4z"/>
<path d="M2570 2710 c0 -5 5 -10 11 -10 5 0 7 5 4 10 -3 6 -8 10 -11 10 -2 0
-4 -4 -4 -10z"/>
<path d="M2371 2674 c0 -11 3 -14 6 -6 3 7 2 16 -1 19 -3 4 -6 -2 -5 -13z"/>
<path d="M1750 2633 c-34 -44 -116 -218 -150 -321 -38 -114 -34 -133 5 -25 16
43 41 107 58 143 16 36 33 75 38 88 5 12 25 48 44 78 39 60 42 83 5 37z"/>
<path d="M2523 2600 c6 -16 15 -30 19 -30 5 0 2 14 -7 30 -9 17 -17 30 -19 30
-3 0 1 -13 7 -30z"/>
<path d="M1794 2609 c-3 -5 7 -14 21 -19 32 -12 35 -12 35 -2 0 12 -49 31 -56
21z"/>
<path d="M1970 2600 c-12 -23 0 -53 28 -69 13 -7 14 -13 6 -21 -16 -16 -50 3
-59 31 -5 16 -10 18 -21 8 -18 -15 -18 -39 0 -39 8 0 24 -8 37 -19 20 -16 21
-21 10 -35 -11 -14 -11 -16 3 -16 9 0 24 19 35 43 11 24 27 50 36 57 20 17 19
43 -3 63 -25 23 -59 21 -72 -3z m58 -22 c18 -18 15 -28 -8 -28 -10 0 -24 9
-30 20 -9 17 -8 20 8 20 10 0 23 -5 30 -12z"/>
<path d="M1780 2570 c0 -4 13 -10 29 -12 17 -2 28 -1 26 3 -7 10 -55 18 -55 9z"/>
<path d="M1755 2539 c-8 -12 -9 -11 27 -27 24 -10 29 -9 39 10 10 18 9 20 -6
15 -9 -4 -25 -2 -35 3 -13 7 -21 7 -25 -1z"/>
<path d="M802 2488 c-5 -7 -13 -23 -16 -35 -8 -26 21 -47 45 -32 11 7 9 9 -8
9 -28 0 -30 21 -3 45 21 19 50 14 50 -10 0 -8 5 -15 10 -15 14 0 13 23 -2 38
-16 16 -63 15 -76 0z"/>
<path d="M1720 2479 c-14 -24 -3 -41 11 -17 9 17 49 14 49 -4 0 -6 -7 -8 -15
-4 -9 3 -15 0 -15 -10 0 -20 29 -15 43 8 8 12 7 21 -2 32 -19 23 -58 20 -71
-5z"/>
<path d="M1164 2416 c-22 -12 -46 -20 -52 -18 -15 5 -15 2 6 -78 21 -77 28
-91 46 -84 11 4 12 13 3 40 -9 28 -7 37 8 54 10 11 28 20 41 20 52 0 68 26 44
71 -14 25 -45 23 -96 -5z m49 -20 c-10 -13 -20 -20 -21 -15 -5 12 17 39 30 39
5 0 1 -11 -9 -24z m-50 -49 c-3 -6 -11 -3 -19 8 -7 10 -11 22 -7 28 3 6 11 3
19 -8 7 -10 11 -22 7 -28z m92 33 c3 -5 -3 -10 -15 -10 -12 0 -18 5 -15 10 3
6 10 10 15 10 5 0 12 -4 15 -10z"/>
<path d="M2202 2415 c-38 -17 -66 -71 -56 -110 3 -13 17 -35 31 -49 25 -25 24
-46 -3 -46 -21 0 -17 -17 6 -23 15 -4 20 -14 20 -41 0 -25 4 -36 15 -36 11 0
15 11 15 41 0 36 2 41 20 36 12 -3 20 0 20 8 0 7 -9 15 -20 18 -28 7 -25 25 5
33 34 8 65 50 65 86 0 21 -11 41 -34 64 -38 38 -39 38 -84 19z m76 -48 c18
-14 14 -62 -7 -81 -22 -20 -50 -15 -75 13 -47 52 25 112 82 68z"/>
<path d="M832 2398 c-7 -7 -12 -21 -11 -32 0 -21 0 -21 9 -1 7 18 8 19 15 3 9
-21 27 -14 18 7 -3 8 0 15 6 15 6 0 11 -8 11 -17 0 -13 3 -14 12 -5 8 8 8 15
3 21 -18 16 -51 21 -63 9z"/>
<path d="M1672 2368 c-28 -28 5 -58 64 -58 26 0 34 30 12 47 -22 17 -64 23
-76 11z m67 -34 c2 -2 2 -6 -1 -9 -9 -9 -58 6 -58 17 0 9 49 3 59 -8z"/>
<path d="M1046 2345 c4 -8 10 -12 15 -9 11 6 2 24 -11 24 -5 0 -7 -7 -4 -15z"/>
<path d="M605 2340 c3 -5 11 -10 16 -10 6 0 7 5 4 10 -3 6 -11 10 -16 10 -6 0
-7 -4 -4 -10z"/>
<path d="M956 2292 c-3 -5 -22 -13 -41 -16 -19 -4 -35 -11 -35 -16 0 -13 7
-12 30 0 28 15 35 -6 8 -24 -16 -11 -18 -16 -7 -16 21 0 56 27 47 36 -4 4 -3
13 4 21 6 7 8 16 5 19 -3 3 -8 1 -11 -4z"/>
<path d="M2345 2257 c-5 -24 -2 -45 9 -64 8 -15 20 -48 27 -73 8 -33 28 -61
82 -117 39 -40 72 -71 75 -69 2 3 -21 35 -52 71 -63 78 -105 159 -116 228 -9
61 -17 68 -25 24z"/>
<path d="M966 2198 c2 -13 2 -17 -2 -10 -8 17 -25 15 -18 -3 4 -8 3 -15 0 -15
-4 0 -11 10 -16 23 -8 21 -9 21 -9 1 -1 -11 5 -29 13 -39 14 -19 15 -19 35 5
24 29 27 60 7 60 -9 0 -13 -8 -10 -22z"/>
<path d="M770 2196 c0 -9 5 -16 10 -16 6 0 10 4 10 9 0 6 -4 13 -10 16 -5 3
-10 -1 -10 -9z"/>
<path d="M1552 2143 c-21 -97 -24 -152 -13 -239 16 -121 76 -294 101 -294 14
0 12 11 -8 45 -67 112 -100 328 -72 475 13 67 6 78 -8 13z"/>
<path d="M708 2167 c-27 -10 -37 -31 -20 -41 12 -7 73 34 66 45 -6 11 -10 10
-46 -4z"/>
<path d="M770 2139 c0 -8 5 -20 12 -27 10 -10 6 -11 -18 -6 -21 4 -34 1 -44
-10 -11 -14 -10 -20 10 -41 26 -28 45 -33 36 -10 -3 10 5 20 24 30 17 9 30 18
30 21 0 3 -11 17 -25 32 -18 19 -25 22 -25 11z m0 -55 c0 -2 -7 -4 -15 -4 -8
0 -15 4 -15 10 0 5 7 7 15 4 8 -4 15 -8 15 -10z"/>
<path d="M1610 2100 c0 -5 14 -13 32 -18 47 -12 51 -37 4 -28 -23 4 -36 3 -36
-4 0 -5 10 -10 23 -10 23 0 47 -17 47 -32 0 -5 -15 -6 -32 -3 -39 6 -61 -5
-56 -30 4 -23 28 -32 28 -11 0 9 5 16 10 16 6 0 10 -9 10 -20 0 -14 7 -20 24
-20 28 0 36 15 29 56 -4 27 -3 28 11 10 8 -10 19 -15 25 -11 18 10 12 32 -9
38 -23 6 -27 37 -5 37 8 0 15 5 15 11 0 6 -6 9 -14 6 -8 -3 -35 1 -60 8 -25 8
-46 10 -46 5z m61 -143 c-13 -13 -26 -3 -16 12 3 6 11 8 17 5 6 -4 6 -10 -1
-17z"/>
<path d="M848 2062 c-3 -11 -23 -28 -46 -38 l-40 -19 17 -30 c9 -16 17 -32 18
-34 1 -2 10 0 20 3 14 6 15 9 4 15 -17 11 -6 48 20 61 13 8 25 7 39 0 26 -14
25 -11 -4 28 -20 28 -24 30 -28 14z"/>
<path d="M1013 2070 c-13 -5 -23 -11 -23 -14 0 -13 13 -36 21 -36 4 0 6 7 2
16 -5 14 -1 16 20 12 21 -4 27 -1 27 13 0 21 -12 23 -47 9z"/>
<path d="M670 2065 c0 -2 10 -10 23 -16 20 -11 21 -11 8 4 -13 16 -31 23 -31
12z"/>
<path d="M1792 2038 c-9 -12 -34 -90 -29 -94 1 0 16 -6 32 -11 22 -7 31 -17
33 -37 3 -27 2 -28 -40 -24 -34 2 -43 0 -46 -15 -3 -15 2 -17 35 -11 28 4 42
2 51 -9 7 -8 22 -13 32 -10 22 6 26 19 9 25 -18 6 -21 69 -4 88 19 21 25 91 8
97 -6 2 -13 -6 -15 -19 -4 -23 -5 -22 -16 5 -12 29 -33 35 -50 15z m38 -12 c0
-3 -4 -8 -10 -11 -5 -3 -10 -1 -10 4 0 6 5 11 10 11 6 0 10 -2 10 -4z m29 -52
c1 -1 0 -8 -4 -14 -4 -7 -19 -9 -38 -4 -39 8 -41 10 -32 24 6 10 61 5 74 -6z"/>
<path d="M661 2037 c2 -1 13 -9 24 -17 19 -14 19 -14 6 3 -7 9 -18 17 -24 17
-6 0 -8 -1 -6 -3z"/>
<path d="M1070 2021 c0 -5 5 -13 11 -17 7 -4 7 -10 1 -16 -6 -6 -17 -5 -30 3
-12 7 -24 11 -27 7 -7 -7 16 -58 27 -58 18 0 49 42 46 62 -3 22 -28 39 -28 19z
m-10 -51 c0 -5 -2 -10 -4 -10 -3 0 -8 5 -11 10 -3 6 -1 10 4 10 6 0 11 -4 11
-10z"/>
<path d="M1395 2020 c-22 -10 -13 -13 28 -10 15 1 27 -3 27 -9 0 -6 -15 -11
-34 -11 -28 0 -35 -4 -40 -25 -4 -14 -13 -25 -21 -25 -21 0 -19 -9 6 -29 41
-33 135 -3 100 32 -8 8 -11 7 -11 -6 0 -12 -8 -17 -30 -17 -25 0 -30 4 -30 25
0 20 5 25 28 26 15 1 31 1 36 0 12 -3 26 20 26 42 0 13 -8 17 -32 16 -18 0
-42 -4 -53 -9z"/>
<path d="M680 1982 c0 -4 9 -13 20 -20 11 -7 20 -9 20 -4 0 4 -9 13 -20 20
-11 7 -20 9 -20 4z"/>
<path d="M885 1940 c22 -24 13 -39 -11 -19 -15 12 -16 11 -9 -10 5 -17 4 -22
-6 -18 -8 2 -13 10 -11 16 1 6 -2 11 -8 11 -17 0 -11 -26 11 -51 11 -13 18
-19 16 -14 -7 13 13 39 36 48 21 8 22 21 1 41 -23 23 -40 19 -19 -4z"/>
<path d="M710 1883 c0 -10 40 -36 46 -30 3 2 -7 12 -21 21 -14 9 -25 13 -25 9z"/>
<path d="M907 1872 c-19 -20 -22 -42 -8 -42 5 0 13 9 16 20 8 25 24 26 27 3 3
-35 3 -38 12 -43 16 -9 14 44 -2 63 -19 21 -25 21 -45 -1z"/>
<path d="M1376 1854 c-3 -9 -6 -24 -6 -35 0 -13 -7 -19 -21 -19 -18 0 -20 -5
-17 -42 3 -37 6 -43 28 -47 18 -2 32 6 52 30 16 18 28 27 28 19 0 -7 -7 -22
-17 -32 -15 -17 -15 -18 11 -18 25 0 27 3 24 37 -2 28 -8 39 -23 42 -21 4 -44
29 -45 49 0 21 16 13 28 -13 7 -15 20 -25 32 -25 16 0 20 7 20 35 0 35 0 35
-44 35 -31 0 -46 -5 -50 -16z m74 -19 c0 -8 -4 -15 -10 -15 -5 0 -10 7 -10 15
0 8 5 15 10 15 6 0 10 -7 10 -15z m-50 -60 c0 -6 -9 -20 -20 -30 -17 -16 -20
-16 -26 -2 -8 22 13 57 31 51 8 -4 15 -12 15 -19z"/>
<path d="M720 1836 c0 -3 9 -10 20 -16 11 -6 20 -8 20 -6 0 3 -9 10 -20 16
-11 6 -20 8 -20 6z"/>
<path d="M961 1790 c-28 -23 -57 -38 -63 -34 -7 4 -8 3 -4 -4 9 -15 66 -16 66
-2 0 5 18 21 40 35 23 14 38 30 35 35 -10 16 -21 12 -74 -30z"/>
<path d="M1730 1806 c0 -12 11 -16 48 -18 26 0 57 0 68 1 12 1 25 -6 28 -15 5
-13 9 -14 21 -4 23 19 10 27 -57 34 -35 4 -73 10 -85 13 -17 4 -23 1 -23 -11z"/>
<path d="M740 1780 c0 -5 5 -10 11 -10 5 0 7 5 4 10 -3 6 -8 10 -11 10 -2 0
-4 -4 -4 -10z"/>
<path d="M905 1780 c4 -6 11 -8 16 -5 14 9 11 15 -7 15 -8 0 -12 -5 -9 -10z"/>
<path d="M1730 1744 c-6 -14 -8 -30 -4 -35 7 -12 41 -12 49 1 3 6 13 10 21 10
8 0 14 -4 14 -10 0 -5 -9 -10 -20 -10 -11 0 -20 -4 -20 -10 0 -13 43 -13 57 1
6 6 8 19 6 30 -6 21 -42 26 -61 7 -16 -16 -28 -2 -14 15 12 14 7 27 -10 27 -5
0 -13 -12 -18 -26z"/>
<path d="M992 1744 c-12 -8 -22 -24 -22 -35 0 -18 3 -17 26 8 24 26 27 27 39
10 15 -20 28 -8 19 17 -8 20 -33 20 -62 0z"/>
<path d="M770 1721 c0 -5 7 -12 16 -15 14 -5 15 -4 4 9 -14 17 -20 19 -20 6z"/>
<path d="M1060 1680 c0 -5 5 -10 10 -10 6 0 10 -5 10 -11 0 -7 -11 -8 -31 -4
-35 8 -56 -10 -37 -32 18 -22 54 -15 73 13 13 20 14 28 4 40 -13 16 -29 19
-29 4z m-2 -48 c3 -9 -2 -13 -14 -10 -9 1 -19 9 -22 16 -3 9 2 13 14 10 9 -1
19 -9 22 -16z"/>
<path d="M1018 1494 l5 -55 -37 15 c-20 8 -36 13 -36 10 0 -3 16 -12 35 -20
19 -8 34 -18 34 -22 -4 -23 4 -32 26 -32 25 0 34 14 16 24 -15 10 -23 80 -12
109 10 25 8 27 -13 27 -21 0 -22 -3 -18 -56z"/>
<path d="M1088 1543 c17 -7 15 -33 -5 -55 -9 -10 -11 -18 -5 -18 6 0 14 -16
18 -35 6 -32 20 -53 29 -43 3 2 -1 21 -7 41 -9 29 -8 42 2 62 11 20 11 27 0
40 -7 8 -20 15 -29 14 -10 0 -11 -2 -3 -6z"/>
<path d="M1974 1542 c-26 -17 -34 -48 -18 -70 19 -28 54 -29 54 -2 0 11 -7 20
-15 20 -20 0 -19 14 1 31 14 11 20 10 39 -13 13 -15 29 -52 35 -83 13 -62 24
-64 33 -8 7 44 60 113 87 113 28 0 45 -27 34 -57 -12 -36 -31 -40 -45 -9 -17
36 -31 32 -27 -6 3 -29 7 -33 35 -36 23 -2 35 3 47 20 21 30 20 71 -2 91 -29
26 -52 20 -93 -23 -41 -43 -49 -47 -49 -27 0 7 -13 25 -28 40 -27 26 -65 34
-88 19z"/>
<path d="M1379 1515 c-13 -13 -14 -26 -8 -67 8 -50 20 -68 47 -68 16 0 15 17
-2 23 -18 7 -31 64 -18 80 5 7 7 20 3 30 -6 16 -8 16 -22 2z"/>
<path d="M1569 1515 c-1 -11 -3 -40 -4 -65 0 -25 -4 -52 -9 -61 -6 -13 -2 -16
19 -16 27 0 42 12 25 22 -5 3 -10 27 -11 53 0 26 -4 56 -9 67 l-9 20 -2 -20z"/>
<path d="M900 1516 c0 -2 7 -7 16 -10 8 -3 12 -2 9 4 -6 10 -25 14 -25 6z"/>
<path d="M1282 1508 c-18 -18 -14 -49 10 -75 27 -29 18 -40 -16 -18 -28 19
-35 6 -10 -19 18 -19 45 -21 61 -5 12 12 7 37 -14 57 -21 21 -16 44 7 37 26
-8 26 11 1 25 -24 13 -24 13 -39 -2z"/>
<path d="M1440 1499 c0 -4 7 -12 15 -19 18 -15 20 -81 3 -98 -9 -9 -6 -12 13
-12 23 0 25 3 24 53 0 46 2 52 23 55 40 6 23 20 -28 24 -28 1 -50 0 -50 -3z"/>
<path d="M1757 1503 c-3 -5 -1 -30 3 -56 7 -48 24 -77 37 -64 4 4 1 13 -5 19
-15 15 -16 75 -1 84 8 4 7 9 -2 15 -17 11 -27 11 -32 2z"/>
<path d="M1162 1488 c-17 -17 -15 -73 3 -88 16 -13 65 -6 65 10 0 6 -12 10
-26 10 -14 0 -23 4 -19 10 3 6 15 10 25 10 24 0 33 15 25 40 -7 23 -53 28 -73
8z m58 -13 c10 -12 9 -16 -5 -21 -19 -8 -40 9 -31 25 10 15 21 14 36 -4z"/>
<path d="M1658 1489 c-21 -12 -24 -69 -6 -87 15 -15 58 -16 58 -2 0 6 -9 10
-20 10 -12 0 -22 9 -26 24 -8 34 1 44 33 38 25 -5 27 -4 14 11 -15 19 -29 21
-53 6z"/>
<path d="M1833 1488 c2 -7 13 -12 25 -11 30 4 37 -26 8 -37 -30 -11 -38 -23
-30 -44 7 -19 51 -21 91 -4 26 11 26 12 7 15 -15 3 -24 14 -28 35 -3 17 -11
37 -17 45 -15 17 -62 18 -56 1z m57 -67 c0 -12 -20 -25 -27 -18 -7 7 6 27 18
27 5 0 9 -4 9 -9z"/>
<path d="M910 1446 c0 -2 7 -7 16 -10 8 -3 12 -2 9 4 -6 10 -25 14 -25 6z"/>
<path d="M732 1420 c7 -11 26 -24 42 -30 42 -15 45 -12 10 9 -18 11 -35 24
-38 30 -4 6 -11 11 -17 11 -5 0 -4 -9 3 -20z"/>
<path d="M1970 1401 c0 -12 5 -21 10 -21 6 0 10 6 10 14 0 8 -4 18 -10 21 -5
3 -10 -3 -10 -14z"/>
<path d="M720 1366 c0 -2 7 -7 16 -10 8 -3 12 -2 9 4 -6 10 -25 14 -25 6z"/>
<path d="M586 1344 c-4 -9 -4 -19 -1 -22 2 -3 7 3 11 12 4 9 4 19 1 22 -2 3
-7 -3 -11 -12z"/>
<path d="M624 1332 c-5 -4 -15 -15 -23 -24 -12 -16 -10 -18 20 -17 26 0 30 2
15 8 -12 5 -16 10 -9 14 6 4 18 4 27 1 22 -8 20 3 -2 15 -10 5 -22 7 -28 3z"/>
<path d="M980 1310 c8 -5 22 -9 30 -9 10 0 8 3 -5 9 -27 12 -43 12 -25 0z"/>
<path d="M655 1269 c22 -5 58 -11 80 -14 l40 -5 -45 15 c-25 8 -61 14 -80 14
l-35 -1 40 -9z"/>
<path d="M1060 1250 c8 -5 22 -10 30 -10 13 0 13 1 0 10 -8 5 -22 10 -30 10
-13 0 -13 -1 0 -10z"/>
<path d="M1049 1220 c24 -11 55 -23 70 -25 18 -4 14 0 -14 13 -22 10 -53 22
-70 25 -23 5 -20 2 14 -13z"/>
<path d="M1290 1220 c0 -5 5 -10 11 -10 5 0 7 5 4 10 -3 6 -8 10 -11 10 -2 0
-4 -4 -4 -10z"/>
<path d="M688 1163 c6 -2 18 -2 25 0 6 3 1 5 -13 5 -14 0 -19 -2 -12 -5z"/>
<path d="M625 1150 c3 -5 15 -10 26 -10 11 0 17 5 14 10 -3 6 -15 10 -26 10
-11 0 -17 -4 -14 -10z"/>
<path d="M1586 1122 c-3 -5 1 -9 9 -9 8 0 12 4 9 9 -3 4 -7 8 -9 8 -2 0 -6 -4
-9 -8z"/>
<path d="M1418 1083 c7 -3 16 -2 19 1 4 3 -2 6 -13 5 -11 0 -14 -3 -6 -6z"/>
<path d="M1470 1070 c8 -5 31 -9 50 -9 l35 1 -30 8 c-16 4 -39 8 -50 9 -16 1
-17 -1 -5 -9z"/>
</g>
</svg>
