<?xml version="1.0" standalone="no"?>
<!DOCTYPE svg PUBLIC "-//W3C//DTD SVG 20010904//EN"
 "http://www.w3.org/TR/2001/REC-SVG-20010904/DTD/svg10.dtd">
<svg version="1.0" xmlns="http://www.w3.org/2000/svg"
 width="880.000000pt" height="804.000000pt" viewBox="0 0 880.000000 804.000000"
 preserveAspectRatio="xMidYMid meet">

<g transform="translate(0.000000,804.000000) scale(0.100000,-0.100000)"
fill="#000000" stroke="none">
<path d="M7136 7218 c-3 -13 -6 -35 -6 -50 0 -42 -29 -119 -64 -167 -44 -62
-160 -145 -321 -231 -128 -69 -149 -84 -246 -180 -95 -95 -111 -115 -157 -210
-28 -58 -64 -124 -79 -146 -33 -49 -533 -609 -723 -809 -148 -157 -203 -195
-279 -195 -90 0 -101 12 -117 126 -7 47 23 149 86 294 52 118 64 176 57 279
-9 151 -57 237 -234 421 -118 122 -210 193 -328 253 -192 96 -564 155 -720
113 -32 -9 -71 -16 -86 -16 -62 0 -269 -44 -381 -80 -284 -93 -465 -208 -817
-518 -169 -149 -260 -254 -388 -451 -52 -79 -130 -190 -174 -247 -92 -122
-126 -186 -203 -386 -88 -229 -97 -273 -103 -495 -8 -280 6 -373 99 -663 45
-143 51 -153 161 -309 248 -347 453 -498 965 -712 92 -38 170 -73 175 -78 4
-4 -29 -50 -74 -102 -125 -142 -462 -512 -565 -619 -255 -268 -353 -390 -411
-516 -42 -92 -14 -154 77 -169 70 -12 124 23 257 167 65 70 190 203 277 295
156 165 349 388 595 690 91 112 133 155 155 162 17 5 162 12 321 15 269 4 310
7 575 45 485 68 801 155 1053 290 295 159 410 247 674 513 207 208 270 283
352 420 191 318 238 572 145 786 -35 81 -121 197 -193 264 -153 140 -316 201
-611 228 -63 6 -115 12 -117 14 -1 1 97 97 220 214 122 116 313 303 424 416
209 213 231 229 365 280 227 85 293 164 358 426 33 129 34 146 33 400 0 85 0
177 1 204 1 52 -17 74 -28 34z m-16 -313 c0 -78 -3 -95 -15 -95 -12 0 -15 17
-15 95 0 78 3 95 15 95 12 0 15 -17 15 -95z m-169 -208 c-39 -111 -93 -198
-174 -278 -54 -54 -146 -122 -131 -98 123 197 295 429 318 429 3 0 -3 -24 -13
-53z m98 -58 c2 -139 -38 -207 -166 -283 -43 -26 -123 -78 -178 -116 -89 -62
-181 -107 -193 -96 -2 3 11 12 30 22 97 49 251 188 344 309 25 33 69 108 97
167 58 119 65 119 66 -3z m-201 78 c-5 -21 -290 -427 -299 -427 -16 0 -9 26
30 106 38 79 84 141 195 267 57 64 81 82 74 54z m-2442 -48 c219 -38 428 -162
631 -372 119 -124 173 -219 193 -338 18 -103 4 -168 -82 -379 -81 -202 -95
-280 -60 -336 37 -57 63 -63 292 -57 196 5 482 -7 674 -28 176 -19 294 -77
426 -209 154 -154 207 -282 197 -475 -7 -131 -23 -195 -86 -337 -82 -183 -194
-332 -351 -466 -41 -35 -104 -102 -141 -150 -111 -148 -268 -271 -530 -417
-237 -132 -403 -190 -754 -264 -377 -79 -612 -103 -1010 -105 -333 -1 -338 0
-545 89 -69 29 -177 72 -240 95 -235 86 -429 200 -591 347 -271 246 -393 461
-496 868 -30 121 -35 157 -35 260 -1 123 19 282 53 437 15 67 42 135 119 290
175 357 371 640 605 872 229 228 485 418 674 502 144 63 468 147 667 173 99
12 320 13 390 0z m2170 -81 c-151 -214 -179 -285 -140 -359 15 -30 15 -30 -5
-19 -27 14 -51 61 -51 101 0 56 58 159 131 232 67 67 95 86 65 45z m-26 -143
c0 -16 -62 -125 -71 -125 -13 0 -12 1 26 73 26 49 45 71 45 52z m418 -106
c-42 -75 -112 -117 -178 -107 -19 2 -2 17 86 75 60 40 110 73 112 73 2 0 -7
-19 -20 -41z m-554 -211 c97 -104 97 -98 11 -177 -64 -57 -89 -63 -138 -29
-52 35 -107 91 -107 108 0 16 129 190 142 190 3 0 45 -41 92 -92z m-249 -255
c47 -37 85 -70 85 -73 0 -3 -15 -21 -34 -39 -32 -31 -39 -33 -81 -29 -52 6
-63 -2 -35 -27 11 -10 20 -23 20 -30 0 -21 -34 -43 -80 -50 -82 -12 -83 -13
-60 -42 18 -23 18 -27 4 -55 -20 -38 -34 -42 -79 -24 -41 17 -75 21 -75 8 0
-5 14 -18 30 -30 39 -29 38 -45 -4 -77 -31 -23 -40 -26 -83 -19 l-48 7 24 -26
c12 -14 20 -30 16 -36 -3 -6 -31 -11 -61 -11 l-55 0 22 -31 c33 -47 17 -54
-117 -54 -62 0 -114 1 -114 3 0 4 633 702 637 702 1 0 41 -30 88 -67z m-2770
-3158 c60 -16 85 -30 85 -48 0 -6 -19 -7 -50 -3 -27 4 -50 3 -50 -1 0 -4 12
-19 26 -34 l25 -26 -25 -29 -24 -29 -31 23 c-25 18 -31 20 -31 7 0 -9 7 -29
15 -46 29 -56 -16 -97 -86 -79 -54 15 -62 4 -22 -27 31 -24 32 -26 18 -54 -15
-27 -35 -37 -119 -54 l-29 -6 23 -24 c25 -26 20 -43 -25 -85 -21 -20 -37 -25
-76 -25 -27 0 -49 -2 -49 -4 0 -3 12 -18 27 -33 l27 -28 -21 -28 c-29 -39 -81
-72 -114 -72 -28 0 -29 -2 -29 -49 0 -60 -22 -81 -87 -81 -24 0 -43 -3 -43 -6
0 -3 9 -18 20 -34 l19 -27 -42 8 c-23 4 -44 6 -46 4 -2 -2 2 -18 8 -36 9 -26
8 -37 -5 -57 -14 -21 -22 -24 -56 -19 l-39 5 3 -36 3 -37 -47 1 c-27 0 -48 -2
-48 -5 0 -2 5 -19 12 -37 13 -37 22 -27 -115 -132 -72 -54 -101 -62 -121 -30
-8 13 -3 33 18 84 65 161 94 197 461 594 99 107 226 251 282 320 107 133 261
290 285 290 7 0 40 -7 73 -15z"/>
<path d="M3704 6222 c-28 -10 -65 -29 -82 -42 -68 -53 -108 -193 -83 -285 6
-22 29 -71 51 -107 22 -37 45 -91 51 -120 16 -74 24 -86 68 -99 78 -23 144 8
186 89 13 26 30 56 38 66 14 19 15 19 48 -6 88 -66 140 -75 193 -34 48 36 61
86 40 150 -15 43 -15 48 1 72 9 14 26 29 39 34 32 12 64 55 72 96 12 65 -77
159 -179 189 -67 20 -90 19 -129 -5 -41 -25 -67 -25 -146 0 -77 24 -102 24
-168 2z m211 -65 c51 -34 73 -34 115 3 46 38 89 39 155 1 93 -54 114 -100 68
-149 -33 -36 -203 -143 -216 -135 -4 2 13 24 38 47 85 80 36 94 -57 16 -56
-47 -78 -59 -78 -43 0 3 35 39 77 79 43 40 75 76 71 79 -10 10 -69 -24 -123
-71 -57 -51 -107 -77 -137 -72 -17 2 -11 10 33 40 61 42 146 125 137 134 -10
10 -70 -26 -136 -83 -35 -29 -68 -51 -73 -47 -6 3 20 39 56 79 71 80 81 100
39 85 -40 -15 -61 -12 -104 16 -44 29 -49 40 -22 48 42 12 118 -1 157 -27z
m-241 -50 c-52 -55 -59 -60 -62 -41 -4 31 26 74 63 90 57 25 57 14 -1 -49z
m49 -229 c37 -22 67 -41 67 -43 0 -1 -24 -17 -52 -35 -35 -21 -57 -29 -66 -23
-8 4 -30 34 -49 65 -62 100 -27 112 100 36z m236 -35 c0 -5 -30 -53 -67 -108
-59 -89 -71 -101 -105 -109 -50 -13 -71 1 -75 47 -4 43 27 77 70 77 43 0 89
23 127 64 33 34 52 45 50 29z m207 -50 c6 -51 5 -58 -16 -75 -32 -26 -48 -23
-109 19 l-54 38 79 37 c43 21 82 38 86 38 4 0 10 -26 14 -57z"/>
<path d="M2880 5367 c-36 -12 -85 -34 -110 -49 -67 -39 -147 -129 -182 -204
-62 -132 -36 -220 82 -283 69 -37 100 -77 100 -132 0 -78 46 -152 101 -164 43
-10 91 19 165 98 62 65 68 69 88 57 71 -46 120 -50 173 -15 36 24 58 82 45
120 -6 16 -14 49 -18 72 l-6 42 54 24 c64 28 90 63 96 129 4 40 0 53 -22 82
-37 50 -118 84 -218 95 -96 9 -118 20 -148 73 -41 73 -100 89 -200 55z m128
-43 c12 -8 22 -20 22 -26 0 -21 41 -66 74 -82 19 -9 73 -23 120 -31 102 -18
163 -41 176 -66 26 -49 -1 -114 -61 -145 -67 -34 -85 -82 -58 -151 28 -71 0
-128 -61 -120 -42 6 -196 61 -217 78 -22 19 -45 68 -41 91 3 19 6 18 43 -12
39 -31 40 -31 49 -10 9 19 4 28 -36 66 -26 24 -51 44 -57 44 -5 0 -12 -13 -16
-30 -14 -62 -34 -32 -55 83 -8 42 -17 67 -25 67 -21 0 -45 29 -45 56 0 32 -10
30 -50 -11 -19 -19 -40 -35 -48 -35 -21 0 -72 -56 -72 -79 0 -18 -26 -41 -45
-41 -11 0 6 62 35 125 15 33 46 83 68 112 36 45 47 52 74 51 22 0 57 14 103
41 77 45 90 48 123 25z m-308 -399 c12 -20 19 -43 16 -52 -6 -14 -12 -11 -41
17 -33 32 -34 35 -18 52 9 10 17 18 19 18 1 0 12 -16 24 -35z m285 -207 c18
-8 25 -19 25 -40 0 -38 -22 -36 -54 6 -14 19 -26 37 -26 40 0 10 27 7 55 -6z
m-36 -66 c12 -23 -8 -57 -38 -65 -23 -6 -56 15 -72 45 -14 27 2 38 58 38 31 0
45 -5 52 -18z"/>
<path d="M5724 4736 c-88 -39 -140 -194 -99 -293 37 -88 124 -153 205 -153
120 0 229 102 230 215 0 55 -40 137 -84 170 -64 49 -203 82 -252 61z m182 -71
c57 -28 87 -63 105 -123 17 -58 0 -110 -50 -155 -111 -100 -241 -15 -241 156
0 60 26 108 73 131 43 21 55 20 113 -9z"/>
<path d="M3175 4076 c-16 -8 -50 -34 -74 -60 -83 -85 -149 -85 -263 0 -40 30
-83 57 -95 60 -49 13 -123 -49 -123 -105 0 -11 18 -68 40 -128 29 -80 47 -115
70 -134 33 -28 50 -72 50 -129 0 -82 102 -210 211 -266 68 -34 124 -32 198 7
45 23 80 33 141 40 135 13 216 79 240 196 23 109 -10 190 -103 253 -61 42 -87
87 -87 153 0 89 -40 128 -134 127 -23 -1 -54 -7 -71 -14z m149 -94 c13 -60 -3
-73 -44 -38 -39 32 -70 33 -139 1 -30 -14 -55 -24 -57 -22 -7 6 51 71 80 88
23 15 46 19 91 17 l60 -3 9 -43z m-517 -4 c56 -39 116 -64 186 -78 31 -6 57
-13 57 -16 0 -2 -18 -40 -40 -84 -57 -113 -87 -123 -146 -45 l-27 36 19 40
c13 30 15 45 7 57 -14 24 -53 42 -89 42 -25 0 -33 6 -47 35 -9 20 -17 40 -17
46 0 16 52 -1 97 -33z m610 -181 c50 -43 94 -85 97 -94 6 -16 -11 -83 -20 -83
-3 0 -45 35 -94 78 -48 42 -99 84 -111 93 l-23 16 18 41 c12 26 23 39 30 34 7
-4 53 -42 103 -85z m-216 -3 c-27 -49 -28 -49 -51 -29 l-20 18 27 29 c23 24
29 26 41 14 10 -10 11 -18 3 -32z m94 -101 c-18 -89 -44 -120 -73 -91 -29 29
-5 109 39 134 43 24 48 19 34 -43z m-187 -23 c49 -49 54 -118 11 -169 l-20
-25 -24 25 c-13 13 -31 40 -38 59 -13 30 -12 42 1 88 8 28 20 52 28 52 7 0 26
-13 42 -30z m341 -72 c7 -18 4 -29 -18 -51 -18 -18 -33 -26 -44 -21 -23 8 -21
20 9 60 31 40 41 42 53 12z m-556 -69 c55 -114 69 -121 217 -113 l115 7 -23
-25 c-25 -27 -100 -68 -126 -68 -50 0 -183 105 -215 169 -29 58 -35 113 -12
110 3 0 23 -36 44 -80z m398 -31 c16 -18 29 -36 29 -40 0 -4 19 -8 42 -10 63
-5 62 -28 -2 -28 -43 0 -50 3 -48 17 2 14 -6 19 -40 23 -54 8 -68 21 -53 49
16 30 37 26 72 -11z"/>
<path d="M4664 3961 c-45 -28 -58 -73 -39 -135 22 -72 21 -76 -17 -65 -46 13
-140 11 -159 -4 -43 -33 -50 -93 -19 -175 27 -71 25 -107 -10 -172 -33 -62
-37 -98 -15 -140 27 -52 63 -63 189 -55 103 6 117 5 190 -19 87 -29 217 -35
291 -15 88 25 165 109 165 182 0 55 -55 109 -133 132 -84 24 -104 63 -72 138
20 48 19 83 -5 135 -64 141 -273 252 -366 193z"/>
</g>
</svg>
