<?xml version="1.0" standalone="no"?>
<!DOCTYPE svg PUBLIC "-//W3C//DTD SVG 20010904//EN"
 "http://www.w3.org/TR/2001/REC-SVG-20010904/DTD/svg10.dtd">
<svg version="1.0" xmlns="http://www.w3.org/2000/svg"
 width="512.000000pt" height="512.000000pt" viewBox="0 0 512.000000 512.000000"
 preserveAspectRatio="xMidYMid meet">

<g transform="translate(0.000000,512.000000) scale(0.100000,-0.100000)"
fill="#000000" stroke="none">
<path d="M305 5005 c-167 -59 -120 -305 58 -305 84 0 149 70 149 159 0 111
-102 183 -207 146z m96 -75 c28 -15 51 -65 43 -95 -8 -34 -50 -65 -86 -65 -41
0 -88 48 -88 90 0 61 73 100 131 70z"/>
<path d="M1625 4775 c-330 -69 -771 -160 -981 -203 -417 -87 -436 -94 -494
-174 -48 -66 -65 -137 -50 -212 89 -463 664 -3273 676 -3305 21 -55 82 -117
143 -144 73 -32 137 -27 463 42 l297 63 813 -352 c447 -194 830 -359 852 -366
121 -43 272 18 330 135 62 123 1336 3073 1346 3115 12 56 6 103 -23 165 -45
97 -22 86 -1014 516 -899 391 -920 399 -994 403 -142 8 -218 -52 -295 -229
-37 -87 -50 -108 -56 -93 -4 10 -32 143 -62 294 -30 151 -59 286 -64 300 -20
50 -70 106 -119 133 -95 51 -102 50 -768 -88z m702 10 c45 -19 70 -41 89 -76
12 -24 111 -505 556 -2698 144 -714 141 -683 77 -756 -38 -43 -44 -45 -339
-104 -135 -28 -569 -115 -964 -195 -628 -128 -724 -145 -757 -136 -40 11 -93
50 -109 80 -5 10 -71 317 -145 682 -75 364 -194 947 -265 1293 -297 1451 -281
1365 -270 1407 13 46 59 101 97 116 16 6 107 27 203 46 519 105 1530 310 1625
331 134 28 156 29 202 10z m1383 -720 c366 -158 773 -335 905 -392 137 -59
251 -115 267 -130 34 -33 52 -84 45 -132 -3 -20 -218 -524 -477 -1121 -259
-597 -559 -1287 -667 -1535 -107 -247 -206 -465 -220 -484 -14 -18 -41 -39
-59 -47 -81 -34 -76 -36 -852 302 -400 175 -742 323 -761 331 -18 8 -31 16
-29 18 2 3 256 56 564 120 307 63 578 122 601 130 49 19 113 80 139 133 19 36
26 153 14 211 -5 23 -1 25 89 43 364 74 621 386 621 756 0 354 -214 646 -551
750 -106 33 -156 37 -179 17 -11 -10 -20 -24 -20 -32 0 -8 27 -47 61 -86 68
-82 131 -201 155 -297 22 -85 21 -235 -1 -320 -34 -135 -121 -274 -219 -355
-26 -21 -48 -36 -50 -34 -2 2 -56 272 -121 599 -64 327 -136 691 -160 808 -37
187 -40 212 -25 207 9 -3 26 3 37 12 11 10 64 120 118 246 54 125 101 227 106
227 4 0 97 -38 205 -85 109 -47 208 -85 219 -85 46 0 62 58 23 84 -31 20 -466
206 -482 206 -25 0 -44 -37 -147 -272 -56 -131 -105 -238 -108 -238 -3 0 -20
70 -38 156 l-32 156 74 166 c79 179 117 236 168 251 75 23 101 14 787 -284z
m-291 -1180 c420 -221 507 -758 175 -1089 -105 -106 -241 -175 -376 -191 -49
-6 -57 -5 -61 11 -13 46 -40 185 -36 187 216 156 321 325 351 564 21 163 -22
370 -103 497 -43 69 -43 70 50 21z"/>
<path d="M1959 4517 c-135 -29 -254 -58 -263 -66 -9 -8 -16 -23 -14 -34 7 -45
27 -44 263 4 l225 46 9 -36 c5 -20 28 -130 51 -246 24 -115 49 -220 56 -232
16 -25 53 -30 72 -11 19 19 15 53 -44 335 -54 261 -66 295 -98 292 -6 0 -122
-24 -257 -52z"/>
<path d="M683 4266 c-171 -35 -258 -56 -269 -68 -16 -16 -14 -34 41 -305 33
-161 65 -296 73 -305 17 -21 53 -23 70 -6 19 19 15 49 -38 303 -27 131 -48
240 -47 242 2 2 101 23 220 47 119 24 224 49 232 56 21 17 15 60 -10 75 -17
10 -63 3 -272 -39z"/>
<path d="M966 4084 c-9 -8 -16 -30 -16 -47 0 -18 -3 -41 -6 -52 -8 -31 18 -59
48 -52 22 6 26 13 31 68 10 86 -16 124 -57 83z"/>
<path d="M751 3881 c-17 -30 7 -50 71 -57 64 -7 88 4 88 41 0 29 -17 35 -90
35 -48 0 -61 -4 -69 -19z"/>
<path d="M954 3875 c-10 -25 4 -45 30 -45 13 0 26 7 30 15 9 25 -5 45 -30 45
-14 0 -27 -7 -30 -15z"/>
<path d="M1055 3869 c-11 -35 15 -52 86 -53 48 -1 64 3 73 17 8 12 8 22 0 35
-9 13 -27 18 -82 20 -65 3 -71 1 -77 -19z"/>
<path d="M952 3778 c-16 -16 -16 -130 0 -146 18 -18 46 -14 58 8 6 11 10 48 8
83 -3 58 -5 62 -28 65 -14 2 -31 -3 -38 -10z"/>
<path d="M1446 3618 c-26 -37 -21 -183 8 -272 46 -135 86 -181 132 -151 30 20
30 38 0 89 -38 66 -56 141 -56 241 0 57 -4 95 -12 103 -19 19 -55 14 -72 -10z"/>
<path d="M1839 3578 c-62 -86 -97 -178 -106 -284 -7 -85 5 -114 46 -114 40 0
48 14 54 100 6 89 34 168 82 236 40 56 42 65 17 87 -31 29 -59 21 -93 -25z"/>
<path d="M1080 3440 c-24 -24 -22 -36 17 -117 32 -69 113 -157 187 -205 66
-42 78 -45 100 -22 32 32 20 57 -49 103 -75 49 -116 96 -165 189 -38 73 -58
84 -90 52z"/>
<path d="M2164 3360 c-78 -39 -153 -106 -203 -181 -44 -66 -49 -89 -25 -113
31 -31 61 -20 97 37 49 74 114 133 188 171 52 27 65 38 67 60 8 62 -35 71
-124 26z"/>
<path d="M845 3094 c-31 -32 -15 -65 55 -111 101 -68 275 -110 343 -84 25 10
28 15 25 48 l-3 38 -79 7 c-114 11 -237 57 -276 103 -16 20 -45 19 -65 -1z"/>
<path d="M1585 3081 c-137 -34 -237 -171 -221 -305 12 -101 66 -179 160 -229
58 -31 184 -31 242 0 63 34 131 115 150 181 59 203 -127 402 -331 353z m128
-105 c44 -18 94 -77 107 -126 35 -130 -90 -255 -220 -220 -49 13 -108 63 -126
107 -61 145 94 300 239 239z"/>
<path d="M2288 3019 c-82 -9 -126 -22 -200 -62 -49 -25 -58 -34 -58 -56 0 -58
35 -64 124 -22 76 37 171 54 242 45 45 -5 58 -3 74 11 25 22 25 37 3 63 -22
24 -89 32 -185 21z"/>
<path d="M1140 2739 c-71 -37 -148 -53 -232 -47 -80 6 -101 -4 -96 -47 4 -41
37 -55 128 -55 90 0 168 19 250 60 71 36 88 61 65 96 -20 31 -46 30 -115 -7z"/>
<path d="M2025 2700 c-23 -25 -13 -68 18 -74 12 -3 51 -8 86 -11 80 -8 155
-36 223 -82 48 -34 53 -35 77 -22 38 22 38 52 -1 88 -98 91 -354 156 -403 101z"/>
<path d="M1297 2559 c-8 -5 -26 -28 -40 -51 -38 -64 -116 -135 -188 -172 -60
-30 -64 -35 -64 -67 0 -27 5 -35 26 -43 64 -22 260 122 319 236 20 38 22 50
13 71 -13 27 -42 39 -66 26z"/>
<path d="M1906 2514 c-17 -16 -20 -42 -8 -59 4 -6 28 -23 54 -38 58 -34 120
-103 167 -187 29 -52 42 -66 64 -68 21 -3 29 2 38 21 9 21 7 35 -15 83 -41 88
-99 158 -178 214 -76 53 -97 59 -122 34z"/>
<path d="M1485 2431 c-16 -7 -21 -24 -32 -105 -12 -100 -42 -182 -88 -242 -30
-39 -31 -55 -7 -77 28 -25 47 -21 81 18 66 76 112 204 115 317 1 58 -2 72 -18
84 -22 16 -23 16 -51 5z"/>
<path d="M1700 2410 c-25 -25 -25 -26 1 -75 42 -78 52 -120 58 -234 7 -124 14
-140 64 -127 33 8 40 32 40 131 0 120 -52 272 -105 309 -29 20 -34 20 -58 -4z"/>
<path d="M2686 2018 c-13 -21 -10 -47 37 -275 29 -138 49 -254 46 -257 -3 -4
-98 -24 -210 -46 -112 -23 -214 -45 -226 -50 -16 -7 -23 -18 -23 -38 0 -35 16
-52 50 -52 20 0 380 70 487 95 47 11 46 27 -17 330 -32 157 -64 293 -71 301
-18 21 -57 17 -73 -8z"/>
<path d="M2247 1913 c-22 -22 21 -123 53 -123 29 0 33 34 11 85 -19 42 -45 58
-64 38z"/>
<path d="M2438 1828 c-50 -21 -65 -42 -47 -64 16 -19 33 -18 79 6 44 23 52 32
44 53 -9 25 -28 26 -76 5z"/>
<path d="M2314 1755 c-4 -9 -2 -21 4 -27 15 -15 44 -1 40 19 -4 23 -36 29 -44
8z"/>
<path d="M2198 1720 c-43 -23 -50 -32 -42 -54 8 -20 31 -20 76 -2 48 20 64 41
48 61 -16 20 -37 18 -82 -5z"/>
<path d="M2352 1688 c-17 -17 -15 -33 8 -78 23 -45 32 -52 54 -44 20 8 20 34
1 81 -21 50 -41 63 -63 41z"/>
<path d="M932 1668 c-7 -7 -12 -21 -12 -32 0 -37 112 -571 122 -583 6 -7 22
-13 37 -13 52 0 496 93 514 108 33 29 16 82 -27 82 -12 0 -114 -18 -229 -41
-114 -23 -210 -39 -214 -36 -3 4 -28 114 -55 244 -26 131 -52 248 -58 261 -11
25 -57 31 -78 10z"/>
<path d="M3332 3675 c-37 -53 -40 -80 -12 -95 17 -9 25 -5 54 27 50 54 62 79
46 98 -23 28 -54 18 -88 -30z"/>
<path d="M3088 3679 c-31 -18 -20 -47 33 -89 54 -43 68 -47 87 -28 22 22 12
46 -35 87 -51 44 -58 46 -85 30z"/>
<path d="M4171 3596 c-7 -8 -11 -27 -9 -42 3 -25 18 -33 193 -109 105 -45 200
-87 212 -93 21 -12 20 -15 -74 -229 -53 -120 -98 -235 -101 -255 -3 -32 -1
-39 21 -49 16 -7 31 -8 42 -2 23 13 246 530 242 563 -2 22 -27 35 -237 127
-129 56 -245 102 -256 102 -12 1 -27 -5 -33 -13z"/>
<path d="M3247 3553 c-11 -10 -8 -51 3 -58 20 -12 50 6 50 30 0 27 -35 46 -53
28z"/>
<path d="M3332 3488 c-22 -22 -12 -46 36 -87 52 -45 63 -48 86 -25 25 25 19
40 -35 83 -55 44 -68 48 -87 29z"/>
<path d="M3176 3464 c-69 -68 -84 -126 -35 -132 20 -2 33 7 62 44 39 50 45 72
25 92 -16 16 -34 15 -52 -4z"/>
<path d="M3172 1197 c-7 -8 -13 -36 -14 -63 -3 -44 -1 -49 19 -52 27 -4 44 25
46 81 2 36 -1 42 -19 45 -11 2 -26 -3 -32 -11z"/>
<path d="M2983 1079 c-30 -30 -8 -52 63 -63 30 -5 44 -3 52 7 15 18 6 45 -16
51 -50 15 -88 16 -99 5z"/>
<path d="M3140 1034 c-11 -12 -10 -18 3 -32 16 -15 18 -15 33 0 19 18 12 48
-9 48 -8 0 -20 -7 -27 -16z"/>
<path d="M3598 1038 c-9 -7 -59 -114 -113 -238 -53 -124 -100 -229 -104 -233
-4 -4 -97 31 -207 78 -222 96 -257 102 -262 49 -2 -17 3 -36 10 -42 8 -6 119
-56 248 -112 186 -81 238 -99 254 -92 15 7 54 86 134 273 61 145 112 274 112
286 0 12 -9 27 -19 33 -25 13 -34 13 -53 -2z"/>
<path d="M3224 1015 c-11 -28 4 -43 53 -53 52 -12 73 -3 73 29 0 32 -115 54
-126 24z"/>
<path d="M3126 955 c-19 -19 -32 -103 -18 -117 5 -5 18 -8 28 -6 26 5 53 101
34 123 -16 19 -25 19 -44 0z"/>
<path d="M4417 4862 c-13 -14 -17 -39 -17 -110 l0 -91 -69 -56 c-69 -56 -81
-71 -81 -104 0 -29 31 -48 115 -71 44 -12 83 -24 87 -28 3 -4 18 -42 33 -85
28 -79 52 -107 90 -107 29 1 56 26 104 98 l42 62 80 0 c107 0 139 17 139 74 0
19 -16 48 -48 90 -27 33 -52 66 -55 72 -4 6 2 42 13 80 25 86 25 116 2 137
-26 23 -49 21 -140 -12 l-80 -30 -68 50 c-75 54 -118 63 -147 31z m140 -72
c39 -27 76 -50 81 -50 6 0 45 13 87 29 42 17 82 28 89 25 11 -4 8 -23 -10 -87
-13 -44 -24 -89 -24 -100 0 -10 25 -50 55 -89 31 -39 54 -76 52 -82 -2 -6 -36
-12 -83 -14 -43 -1 -89 -4 -101 -7 -14 -3 -42 -34 -73 -80 -28 -41 -55 -75
-61 -75 -10 0 -31 43 -63 131 -18 51 -24 55 -135 86 -36 10 -66 23 -68 29 -2
6 31 39 73 74 l77 62 -5 99 c-5 96 -4 99 17 99 11 0 53 -22 92 -50z"/>
<path d="M4505 958 c-2 -7 -9 -39 -14 -70 -26 -149 -148 -265 -299 -284 -31
-4 -56 -12 -59 -20 -9 -25 17 -44 61 -44 63 0 152 -47 213 -113 52 -57 76
-110 89 -195 4 -25 13 -46 22 -49 21 -9 42 24 42 66 0 53 50 150 102 198 61
55 119 83 184 90 93 10 101 56 12 68 -153 21 -273 139 -298 292 -5 29 -12 58
-15 63 -9 14 -35 12 -40 -2z m122 -296 c25 -24 67 -54 91 -66 l45 -23 -47 -23
c-61 -29 -134 -103 -165 -164 l-23 -48 -29 53 c-34 64 -101 129 -165 160 l-47
22 49 25 c60 31 143 114 168 170 l19 43 29 -53 c15 -29 49 -72 75 -96z"/>
<path d="M1485 555 c-111 -39 -140 -175 -55 -256 100 -96 260 -31 260 104 0
76 -39 132 -109 156 -42 14 -46 14 -96 -4z m94 -70 c32 -16 41 -33 41 -75 0
-42 -9 -59 -41 -75 -42 -22 -67 -18 -100 14 -33 33 -38 74 -13 109 28 41 69
50 113 27z"/>
</g>
</svg>
