<svg xmlns="http://www.w3.org/2000/svg" width="24" height="24" viewBox="0 0 24 24">
      <path d="M13.73 21C13.55 21.3 13.3 21.55 13 21.73C12.69 21.9 12.35 22 12 22C11.65 22 11.31 21.9 11 21.73C10.7 21.55 10.45 21.3 10.27 21" stroke="white" stroke-width="1.8" stroke-linecap="round" stroke-linejoin="round" fill="none" />
      <path d="M18 8C18 6.41 17.37 4.88 16.24 3.76C15.12 2.63 13.59 2 12 2C10.41 2 8.88 2.63 7.76 3.76C6.63 4.88 6 6.41 6 8C6 15 3 17 3 17H17.5" stroke="white" stroke-width="1.8" stroke-linecap="round" stroke-linejoin="round" fill="none" />
      <path d="M3 3L21 21" stroke="white" stroke-width="1.8" stroke-linecap="round" />
    </svg>
