<svg xmlns="http://www.w3.org/2000/svg" width="24" height="24" viewBox="0 0 24 24">
      <path d="M18.37 2.63C19.95 4.2 20 5.94 18.37 7.56L12.87 13.06C12.87 13.06 10.56 11.44 9.43 10.31C8.31 9.19 6.94 7.13 6.94 7.13L12.44 1.63C14.06 0 15.8 0.05 17.37 1.63L18.37 2.63Z" stroke="white" stroke-width="1.8" stroke-linecap="round" stroke-linejoin="round" fill="none" />
      <path d="M12.87 13.06C11.19 14.75 9 18 7.5 19.5C5.5 21.5 3 22 2 21C1 20 1.5 17.5 3.5 15.5C5 14 8.25 11.81 9.93 10.12" stroke="white" stroke-width="1.8" stroke-linecap="round" stroke-linejoin="round" fill="none" />
    </svg>
