<svg xmlns="http://www.w3.org/2000/svg" width="24" height="24" viewBox="0 0 24 24">
      <path d="M23 19C23 19.53 22.79 20.04 22.41 20.41C22.04 20.79 21.53 21 21 21H3C2.47 21 1.96 20.79 1.59 20.41C1.21 20.04 1 19.53 1 19V8C1 7.47 1.21 6.96 1.59 6.59C1.96 6.21 2.47 6 3 6H7L9 3H15L17 6H21C21.53 6 22.04 6.21 22.41 6.59C22.79 6.96 23 7.47 23 8V19Z" stroke="white" stroke-width="1.8" stroke-linecap="round" stroke-linejoin="round" fill="none" />
      <circle cx="12" cy="13" r="4" stroke="white" stroke-width="1.8" fill="none" />
    </svg>
