<svg xmlns="http://www.w3.org/2000/svg" width="24" height="24" viewBox="0 0 24 24">
      <path d="M6.34 15C4.49 14.73 3 13.21 3 11.32C3 9.26 4.73 7.58 6.86 7.58C7.2 7.58 7.53 7.63 7.84 7.71C8.65 5.56 10.73 4 13.19 4C16.28 4 18.78 6.46 18.78 9.5C18.78 9.58 18.78 9.66 18.77 9.74C20.06 10.34 21 11.64 21 13.15C21 15.19 19.32 16.84 17.24 16.84H6.76" stroke="white" stroke-width="1.8" stroke-linecap="round" stroke-linejoin="round" fill="none" />
      <path d="M8 19L10 17L12 19L14 17L16 19" stroke="white" stroke-width="1.44" stroke-linecap="round" stroke-linejoin="round" fill="none" />
    </svg>
