<svg xmlns="http://www.w3.org/2000/svg" width="24" height="24" viewBox="0 0 24 24">
      <path
        d="M16.52 5.65l3.27 2.17c.61.41.91 1.17.91 1.78v5.12c0 1.29-.86 2.43-2.09 2.74l-5.21 1.32c-.69.17-1.41-.04-1.89-.56l-.57-.63a1.86 1.86 0 01-.52-1.37v-.42l.53-2.3h-3.1c-1.55 0-2.83-1.25-2.87-2.8L4.87 6.58c-.04-1.57 1.18-2.88 2.74-2.95l6.26-.28a2.99 2.99 0 012.65 1.3z"
        stroke="white"
        stroke-width="1.5"
        stroke-linecap="round"
        stroke-linejoin="round"
        fill="none"
      />
      <path
        d="M18.03 5.49v10.16c0 .94.68 1.75 1.61 1.9.1.01.2.02.3.02h.04c1.09 0 1.98-.89 1.98-1.99V7.32c0-1.08-.86-1.97-1.94-1.99l-1.99-.04v.2z"
        stroke="white"
        stroke-width="1.5"
        stroke-linecap="round"
        stroke-linejoin="round"
        fill="none"
      />
    </svg>
