<svg xmlns="http://www.w3.org/2000/svg" width="24" height="24" viewBox="0 0 24 24">
      <path d="M3 3L21 21" stroke="white" stroke-width="1.8" stroke-linecap="round" />
      <path d="M10.5 10.68C10.18 11.03 9.99 11.5 9.99 12C9.99 13.1 10.88 14 11.99 14C12.49 14 12.95 13.81 13.31 13.49" stroke="white" stroke-width="1.8" stroke-linecap="round" fill="none" />
      <path d="M17.36 17.35C15.73 18.45 13.94 19 12 19C5.5 19 2 12 2 12C2 12 3.36 9.35 5.76 7.35" stroke="white" stroke-width="1.8" stroke-linecap="round" fill="none" />
      <path d="M9.75 5.27C10.47 5.09 11.23 5 12 5C18.5 5 22 12 22 12C22 12 21.31 13.4 19.94 15.04" stroke="white" stroke-width="1.8" stroke-linecap="round" fill="none" />
    </svg>
