<svg xmlns="http://www.w3.org/2000/svg" width="24" height="24" viewBox="0 0 24 24">
      <rect x="3" y="8" width="18" height="4" rx="1" stroke="white" stroke-width="1.8" fill="none" />
      <path d="M12 8V22" stroke="white" stroke-width="1.8" stroke-linecap="round" />
      <path d="M19 12V20C19 21.1 18.1 22 17 22H7C5.9 22 5 21.1 5 20V12" stroke="white" stroke-width="1.8" stroke-linecap="round" stroke-linejoin="round" fill="none" />
      <path d="M7.5 8C6.12 8 5 6.88 5 5.5C5 4.12 6.12 3 7.5 3C9.5 3 12 5 12 8" stroke="white" stroke-width="1.8" stroke-linecap="round" fill="none" />
      <path d="M16.5 8C17.88 8 19 6.88 19 5.5C19 4.12 17.88 3 16.5 3C14.5 3 12 5 12 8" stroke="white" stroke-width="1.8" stroke-linecap="round" fill="none" />
    </svg>
