<svg xmlns="http://www.w3.org/2000/svg" width="24" height="24" viewBox="0 0 512 512">
      <g transform="translate(0,512) scale(0.1,-0.1)">
        <path
          d="M874 5109 c-109 -14 -219 -90 -266 -183 -37 -72 -157 -406 -168 -467 -27 -147 59 -314 192 -377 26 -12 229 -72 450 -133 222 -61 404 -112 405 -113 1 0 -23 -39 -53 -86 -311 -481 -547 -1010 -692 -1555 -61 -228 -132 -578 -119 -591 2 -3 33 20 68 50 149 128 473 367 482 355 2 -2 21 -35 43 -74 82 -149 301 -481 311 -472 2 2 12 53 23 113 55 300 134 580 243 859 47 120 139 322 184 404 111 204 155 280 168 291 12 10 14 -25 12 -252 -1 -144 -1 -849 1 -1565 l2 -1303 400 0 400 0 1 1268 c1 697 5 1400 8 1562 l6 295 33 -54 c57 -92 179 -325 233 -444 146 -324 261 -691 323 -1031 14 -76 27 -140 29 -142 11 -11 329 480 350 540 7 20 308 -196 486 -350 35 -30 66 -53 68 -50 6 6 -20 166 -53 321 -134 629 -396 1263 -746 1805 -37 57 -66 105 -65 106 1 1 183 52 405 113 222 61 424 121 450 133 133 63 219 230 192 377 -10 59 -130 394 -165 461 -60 118 -180 190 -316 192 -36 0 -84 -5 -105 -12 -22 -7 -286 -129 -587 -272 l-549 -260 -21 20 c-51 48 -78 52 -377 52 -299 0 -326 -4 -377 -52 l-22 -20 -548 260 c-301 143 -564 264 -583 270 -54 16 -100 19 -156 11z"
          fill="white"
        />
      </g>
    </svg>
