<svg xmlns="http://www.w3.org/2000/svg" width="24" height="24" viewBox="0 0 24 24">
      <path
        d="M7.48 18.35l-3.27-2.17c-.61-.41-.91-1.17-.91-1.78V9.28c0-1.29.86-2.43 2.09-2.74l5.21-1.32c.69-.17 1.41.04 1.89.56l.57.63c.34.37.52.86.52 1.37v.42l-.53 2.3h3.1c1.55 0 2.83 1.25 2.87 2.8l.11 4.12c.04 1.57-1.18 2.88-2.74 2.95l-6.26.28a2.99 2.99 0 01-2.65-1.3z"
        stroke="white"
        stroke-width="1.5"
        stroke-linecap="round"
        stroke-linejoin="round"
        fill="none"
      />
      <path
        d="M5.97 18.51V8.35c0-.94-.68-1.75-1.61-1.9-.1-.01-.2-.02-.3-.02h-.04c-1.09 0-1.98.89-1.98 1.99v8.26c0 1.08.86 1.97 1.94 1.99l1.99.04v-.2z"
        stroke="white"
        stroke-width="1.5"
        stroke-linecap="round"
        stroke-linejoin="round"
        fill="none"
      />
    </svg>
