<svg xmlns="http://www.w3.org/2000/svg" width="24" height="24" viewBox="0 0 24 24" fill="none">
      <path d="M13 2C10.2386 2 8 4.23858 8 7C8 7.55228 8.44772 8 9 8C9.55228 8 10 7.55228 10 7C10 5.34315 11.3431 4 13 4H17C18.6569 4 20 5.34315 20 7V17C20 18.6569 18.6569 20 17 20H13C11.3431 20 10 18.6569 10 17C10 16.4477 9.55228 16 9 16C8.44772 16 8 16.4477 8 17C8 19.7614 10.2386 22 13 22H17C19.7614 22 22 19.7614 22 17V7C22 4.23858 19.7614 2 17 2H13Z" fill="white" />
      <path d="M14 11C14.5523 11 15 11.4477 15 12C15 12.5523 14.5523 13 14 13V11Z" fill="white" />
      <path d="M5.71783 11C5.80685 10.8902 5.89214 10.7837 5.97282 10.682C6.21831 10.3723 6.42615 10.1004 6.57291 9.90549C6.64636 9.80795 6.70468 9.72946 6.74495 9.67492L6.79152 9.61162L6.804 9.59454L6.80842 9.58848C7.13304 9.14167 7.0345 8.51561 6.58769 8.19098C6.14091 7.86637 5.51558 7.9654 5.19094 8.41215L5.18812 8.41602L5.17788 8.43002L5.13612 8.48679C5.09918 8.53682 5.04456 8.61033 4.97516 8.7025C4.83623 8.88702 4.63874 9.14542 4.40567 9.43937C3.93443 10.0337 3.33759 10.7481 2.7928 11.2929L2.08569 12L2.7928 12.7071C3.33759 13.2519 3.93443 13.9663 4.40567 14.5606C4.63874 14.8546 4.83623 15.113 4.97516 15.2975C5.04456 15.3897 5.09918 15.4632 5.13612 15.5132L5.17788 15.57L5.18812 15.584L5.19045 15.5872C5.51509 16.0339 6.14091 16.1336 6.58769 15.809C7.0345 15.4844 7.13355 14.859 6.80892 14.4122L6.804 14.4055L6.79152 14.3884L6.74495 14.3251C6.70468 14.2705 6.64636 14.1921 6.57291 14.0945C6.42615 13.8996 6.21831 13.6277 5.97282 13.318C5.89214 13.2163 5.80685 13.1098 5.71783 13H14V11H5.71783Z" fill="white" />
    </svg>
