<svg xmlns="http://www.w3.org/2000/svg" width="24" height="24" viewBox="0 0 24 24">
      <path
        d="M6.03 18.7c-1.15.46-2.2-.59-1.74-1.74l1.57-3.92c.14-.36.14-.76 0-1.12L4.29 7.99c-.46-1.15.59-2.2 1.74-1.74l3.92 1.57c.36.14.76.14 1.12 0l3.92-1.57c1.15-.46 2.2.59 1.74 1.74L15.16 11.9c-.14.36-.14.76 0 1.12l1.57 3.93c.46 1.15-.59 2.2-1.74 1.74l-3.92-1.57a1.5 1.5 0 00-1.12 0l-3.92 1.58z"
        stroke="white"
        stroke-width="1.5"
        stroke-linecap="round"
        stroke-linejoin="round"
        fill="none"
      />
      <path
        d="M19.2 9.8l.6-1.5.6 1.5 1.5.6-1.5.6-.6 1.5-.6-1.5-1.5-.6 1.5-.6z"
        stroke="white"
        stroke-width="1.5"
        stroke-linecap="round"
        stroke-linejoin="round"
        fill="none"
      />
    </svg>
