<svg xmlns="http://www.w3.org/2000/svg" width="24" height="24" viewBox="0 0 24 24">
      <path d="M18 11V6.5C18 5.67 17.33 5 16.5 5C15.67 5 15 5.67 15 6.5V3.5C15 2.67 14.33 2 13.5 2C12.67 2 12 2.67 12 3.5V6.5C12 5.67 11.33 5 10.5 5C9.67 5 9 5.67 9 6.5V11" stroke="white" stroke-width="1.8" stroke-linecap="round" stroke-linejoin="round" fill="none" />
      <path d="M18 11C19.1 11 20 11.9 20 13V14C20 18.42 16.42 22 12 22C7.58 22 4 18.42 4 14V13C4 12.45 4.45 12 5 12H6" stroke="white" stroke-width="1.8" stroke-linecap="round" stroke-linejoin="round" fill="none" />
      <path d="M9 11V6.5" stroke="white" stroke-width="1.8" stroke-linecap="round" />
    </svg>
