<svg xmlns="http://www.w3.org/2000/svg" width="24" height="24" viewBox="0 0 24 24">
      <path d="M21.56 10.74l-1.35-1.58c-.25-.29-.46-.84-.46-1.23v-1.7c0-1.06-.87-1.93-1.93-1.93h-1.7c-.38 0-.94-.21-1.23-.46L13.31 2.5c-.71-.59-1.88-.59-2.6 0L9.14 3.84c-.29.25-.84.46-1.23.46h-1.7c-1.06 0-1.93.87-1.93 1.93v1.71c0 .38-.21.93-.46 1.22L2.47 10.74c-.58.71-.58 1.87 0 2.58l1.35 1.58c.25.29.46.84.46 1.23v1.7c0 1.06.87 1.93 1.93 1.93h1.7c.38 0 .94.21 1.23.46l1.58 1.35c.71.59 1.88.59 2.6 0l1.58-1.35c.29-.25.85-.46 1.23-.46h1.7c1.06 0 1.93-.87 1.93-1.93v-1.71c0-.38.21-.93.46-1.22l1.35-1.58c.57-.7.57-1.87-.01-2.58z" stroke="white" stroke-width="1.5" stroke-linecap="round" stroke-linejoin="round" fill="none" />
      <path d="M8.38 12l2.41 2.42 4.83-4.84" stroke="white" stroke-width="1.5" stroke-linecap="round" stroke-linejoin="round" fill="none" />
    </svg>
