<svg xmlns="http://www.w3.org/2000/svg" width="24" height="24" viewBox="0 0 24 24">
      <path d="M2 9.93v4.14c0 1.14.64 1.78 1.78 1.78h1.44c.35 0 .7.12.99.34l2.6 2.04c1.76 1.38 3.19.53 3.19-1.88V7.65c0-2.42-1.43-3.27-3.19-1.88l-2.6 2.04c-.29.22-.64.34-.99.34H3.78C2.64 8.15 2 8.79 2 9.93z" stroke="white" stroke-width="1.5" fill="none" />
      <path d="M18 8c1.78 1.79 1.78 4.71 0 6.5" stroke="white" stroke-width="1.5" stroke-linecap="round" stroke-linejoin="round" fill="none" />
      <path d="M19.83 5.5c3.11 3.13 3.11 8.21 0 11.34" stroke="white" stroke-width="1.5" stroke-linecap="round" stroke-linejoin="round" fill="none" />
    </svg>
