<svg xmlns="http://www.w3.org/2000/svg" width="24" height="24" viewBox="0 0 24 24">
      <path d="M15 8.37v-.72c0-2.42-1.43-3.27-3.19-1.88l-2.6 2.04c-.29.22-.64.34-.99.34H6.78C5.64 8.15 5 8.79 5 9.93v4.14c0 .63.19 1.14.5 1.47" stroke="white" stroke-width="1.5" stroke-linecap="round" stroke-linejoin="round" fill="none" />
      <path d="M10.42 16.77c.43.54 1.21.88 2.58-.18v-4.52" stroke="white" stroke-width="1.5" stroke-linecap="round" stroke-linejoin="round" fill="none" />
      <path d="M18.81 9.42c.72 1.55.72 3.34 0 4.88" stroke="white" stroke-width="1.5" stroke-linecap="round" stroke-linejoin="round" fill="none" />
      <path d="M20.63 7.08c1.46 2.76 1.46 6.08 0 8.84" stroke="white" stroke-width="1.5" stroke-linecap="round" stroke-linejoin="round" fill="none" />
      <path d="M22 2L2 22" stroke="white" stroke-width="1.5" stroke-linecap="round" stroke-linejoin="round" fill="none" />
    </svg>
